<svg width="24" height="24" viewBox="0 0 24 24" fill="none" xmlns="http://www.w3.org/2000/svg">
<path d="M20.8084 19.8179L16.3984 15.4078H16.3509C17.7102 13.8051 18.3971 11.7388 18.2679 9.64127C18.1388 7.54372 17.2035 5.57735 15.6579 4.15351C14.1122 2.72966 12.0759 1.95864 9.97477 2.00171C7.87368 2.04479 5.87064 2.89863 4.38464 4.38464C2.89863 5.87064 2.04479 7.87368 2.00171 9.97477C1.95864 12.0758 2.72966 14.1122 4.15351 15.6579C5.57735 17.2035 7.54372 18.1388 9.64127 18.2679C11.7388 18.3971 13.8051 17.7102 15.4078 16.3509C15.4078 16.3509 15.4078 16.3848 15.4078 16.3984L19.8179 20.8084C19.8809 20.872 19.956 20.9225 20.0386 20.9569C20.1213 20.9914 20.21 21.0091 20.2996 21.0091C20.3891 21.0091 20.4778 20.9914 20.5605 20.9569C20.6432 20.9225 20.7182 20.872 20.7813 20.8084C20.8508 20.7468 20.907 20.6716 20.9463 20.5874C20.9856 20.5033 21.0072 20.4119 21.0097 20.319C21.0123 20.2262 20.9957 20.1338 20.9611 20.0475C20.9265 19.9613 20.8745 19.8832 20.8084 19.8179ZM10.1496 16.9072C8.80775 16.9072 7.496 16.5093 6.38026 15.7638C5.26452 15.0183 4.3949 13.9586 3.88139 12.7189C3.36787 11.4792 3.23351 10.115 3.4953 8.79887C3.75709 7.48277 4.40327 6.27385 5.35213 5.32499C6.30099 4.37613 7.50991 3.72995 8.82601 3.46816C10.1421 3.20637 11.5063 3.34073 12.746 3.85425C13.9858 4.36777 15.0454 5.23738 15.7909 6.35312C16.5364 7.46886 16.9344 8.78061 16.9344 10.1225C16.9344 11.0135 16.7589 11.8957 16.4179 12.7189C16.0769 13.5421 15.5772 14.29 14.9472 14.92C14.3171 15.55 13.5692 16.0498 12.746 16.3908C11.9229 16.7317 11.0406 16.9072 10.1496 16.9072Z" fill="#111111"/>
</svg>
