<svg width="68" height="50" viewBox="0 0 68 50" fill="none" xmlns="http://www.w3.org/2000/svg">
<path d="M59.9941 22.511C57.6802 21.3542 53.3419 21.3408 53.1583 21.3408C52.6082 21.3408 52.1622 21.7868 52.1622 22.3369C52.1622 22.887 52.6082 23.333 53.1583 23.333C54.2778 23.3331 57.5281 23.5055 59.1032 24.293C59.2462 24.3646 59.3981 24.3983 59.5478 24.3983C59.9132 24.3983 60.265 24.1964 60.4395 23.8475C60.6856 23.3555 60.4861 22.7571 59.9941 22.511Z" fill="#BEAD8E"/>
<path d="M64.9602 36.693L60.8463 35.5176C60.6688 35.4668 60.5447 35.3024 60.5447 35.1177V33.7445C60.8794 33.5126 61.1987 33.2531 61.4971 32.9635C62.9434 31.5599 63.7399 29.6773 63.7399 27.6622V25.7674L64.1377 24.972C64.5742 24.0988 64.8049 23.1211 64.8049 22.145V17.0117C64.8049 16.4616 64.3589 16.0157 63.8088 16.0157H54.2234C50.7378 16.0157 47.902 18.8515 47.902 22.337V22.3964C47.902 23.2081 48.0939 24.0211 48.4569 24.747L48.967 25.7673V27.3942C48.967 29.9727 50.2377 32.2861 52.1622 33.6783L52.1625 35.1174C52.1625 35.3393 52.1625 35.4312 51.34 35.6663L49.3327 36.2398L43.526 34.1284C43.5468 33.8544 43.4544 33.5757 43.2545 33.3657L41.399 31.4163V28.1438C41.5951 27.9822 41.7885 27.8162 41.9759 27.6406C44.3167 25.4465 45.6592 22.3488 45.6592 19.1418V16.5283C46.366 14.9902 46.7242 13.3626 46.7242 11.6864V1.03613C46.7242 0.486023 46.2783 0.0400391 45.7281 0.0400391H30.8174C25.57 0.0400391 21.301 4.30916 21.301 9.55645V11.6866C21.301 13.3629 21.6592 14.9905 22.366 16.5286V18.7772C22.366 22.5008 24.0217 25.8553 26.6262 28.0669V31.4165L24.7707 33.3659C24.5708 33.5759 24.4784 33.8545 24.4993 34.1285L18.3706 36.3569C17.9265 36.5184 17.5139 36.7372 17.1392 37.0021L16.1768 36.521C19.0416 35.274 19.9491 33.5202 19.9927 33.4331C20.1329 33.1527 20.1329 32.8225 19.9927 32.5422C19.2745 31.1059 19.1876 28.4735 19.1177 26.3583C19.0945 25.6541 19.0724 24.9889 19.0303 24.3965C18.6907 19.6187 15.0585 16.0157 10.5814 16.0157C6.10433 16.0157 2.47204 19.6186 2.13257 24.3965C2.09047 24.989 2.06842 25.6543 2.04518 26.3586C1.97532 28.4736 1.8882 31.1058 1.17021 32.542C1.02996 32.8224 1.02996 33.1526 1.17021 33.4329C1.21377 33.5201 2.11942 35.2703 4.9899 36.5187L2.31678 37.8552C0.887719 38.5703 0 40.0066 0 41.6042V48.9632C0 49.5134 0.445984 49.9593 0.996094 49.9593C1.5462 49.9593 1.99219 49.5134 1.99219 48.9632V41.6042C1.99219 40.7659 2.45796 40.0122 3.20769 39.6373L6.53637 37.973L7.69423 39.0734C8.50385 39.8427 9.54245 40.2272 10.5814 40.2272C11.6202 40.2272 12.6593 39.8425 13.4686 39.0734L14.6264 37.9731L15.7117 38.5158C15.2007 39.3335 14.9106 40.2924 14.9106 41.2969V48.9635C14.9106 49.5136 15.3566 49.9596 15.9067 49.9596C16.4568 49.9596 16.9028 49.5136 16.9028 48.9635V41.2969C16.9028 39.9295 17.7662 38.6967 19.0514 38.2293L25.513 35.8798L28.2029 39.9147C28.5467 40.4306 29.0978 40.7614 29.7147 40.8225C29.7835 40.8293 29.8519 40.8326 29.9201 40.8326C30.4644 40.8326 30.9857 40.6184 31.3754 40.2288L33.0164 38.5878V48.9636C33.0164 49.5138 33.4624 49.9597 34.0125 49.9597C34.5626 49.9597 35.0086 49.5138 35.0086 48.9636V38.5878L36.6496 40.2288C37.0392 40.6185 37.5604 40.8327 38.1048 40.8327C38.173 40.8327 38.2415 40.8294 38.3102 40.8226C38.9272 40.7615 39.4783 40.4307 39.8221 39.9149L42.5121 35.88L48.9735 38.2296C50.2586 38.697 51.1222 39.9297 51.1222 41.2972V48.9638C51.1222 49.5139 51.5682 49.9599 52.1183 49.9599C52.6684 49.9599 53.1144 49.5139 53.1144 48.9638V41.2972C53.1144 39.9122 52.5641 38.6133 51.6411 37.6527L51.8872 37.5824C52.1354 37.5115 52.4741 37.4144 52.8141 37.2477L55.3573 39.7909V48.9638C55.3573 49.5139 55.8033 49.9599 56.3534 49.9599C56.9035 49.9599 57.3495 49.5139 57.3495 48.9638V39.7909L59.8751 37.2654C60.0093 37.3337 60.1504 37.3913 60.2989 37.4337L64.4129 38.609C65.3519 38.8773 66.0078 39.7469 66.0078 40.7236V48.9638C66.0078 49.5139 66.4538 49.9599 67.0039 49.9599C67.554 49.9599 68 49.5139 68 48.9638V40.7236C68 38.8618 66.75 37.2044 64.9602 36.693ZM6.39027 34.9336C4.52705 34.2632 3.59245 33.3693 3.19348 32.8812C3.46548 32.1702 3.64185 31.3558 3.76125 30.4961C4.31056 31.8132 5.23056 32.9376 6.39027 33.7397V34.9336ZM12.0966 37.6294C11.247 38.4367 9.91605 38.4365 9.06671 37.6293L8.14034 36.749C8.29666 36.4562 8.38259 36.1241 8.38259 35.7763V34.7146C9.07747 34.9317 9.81617 35.0489 10.5817 35.0489C11.3463 35.0489 12.0846 34.9312 12.7807 34.7153L12.7805 35.7762C12.7805 36.1241 12.8663 36.4563 13.0228 36.7493L12.0966 37.6294ZM10.582 33.0567C7.6075 33.0567 5.18779 30.6368 5.18779 27.6625C5.18779 27.1124 4.7418 26.6664 4.1917 26.6664C4.13591 26.6664 4.08146 26.6721 4.0282 26.681C4.03113 26.5954 4.03391 26.5096 4.03684 26.4247C4.05902 25.7398 4.0804 25.0929 4.11984 24.538C4.24708 22.7482 4.96227 21.0989 6.13368 19.8938C7.31558 18.6777 8.89525 18.0081 10.5817 18.0081C12.2682 18.0081 13.8477 18.6777 15.0297 19.8938C16.2011 21.0989 16.9163 22.7482 17.0436 24.538C17.0829 25.0927 17.1044 25.7395 17.127 26.4243C17.129 26.4831 17.131 26.5428 17.1329 26.602C16.0492 24.9323 14.3755 23.7018 12.2129 23.0069C10.215 22.365 8.49668 22.4047 8.42416 22.4066C8.16332 22.4139 7.91576 22.5231 7.73473 22.7109L5.93752 24.5748C5.55568 24.9708 5.5671 25.6014 5.96315 25.9832C6.3592 26.3651 6.98979 26.3535 7.37163 25.9576L8.86709 24.4067C10.155 24.4697 14.2983 24.9515 15.9097 28.4999C15.5043 31.1147 13.2568 33.0567 10.582 33.0567ZM14.7726 34.9369L14.7727 33.7489C15.9315 32.9511 16.8528 31.8288 17.4026 30.5018C17.522 31.3595 17.6982 32.172 17.9697 32.8815C17.573 33.3649 16.634 34.2667 14.7726 34.9369ZM24.3582 18.7771V16.3057C24.3582 16.1558 24.3243 16.0077 24.2591 15.8726C23.6182 14.5453 23.2932 13.1369 23.2932 11.6866V9.55658C23.2932 5.40766 26.6686 2.03236 30.8174 2.03236H44.732V11.6868C44.732 13.1371 44.4071 14.5454 43.7661 15.8727C43.7009 16.0078 43.667 16.1559 43.667 16.3058V19.1421C43.667 21.8396 42.5826 24.3417 40.6135 26.1874C40.3677 26.4177 40.1126 26.6336 39.8488 26.8348C39.843 26.8388 39.8374 26.8432 39.8317 26.8473C37.987 28.2478 35.7276 28.9285 33.3681 28.7756C28.3158 28.4485 24.3582 24.0567 24.3582 18.7771ZM29.9668 38.82C29.9598 38.8269 29.9438 38.8432 29.9112 38.8397C29.8788 38.8366 29.8661 38.8176 29.8606 38.8093L26.7628 34.1625L27.7597 33.115L32.4592 36.3273L29.9668 38.82ZM34.0126 34.976L28.6184 31.2888V29.4295C30.0142 30.184 31.577 30.6558 33.2391 30.7634C33.5017 30.7804 33.7627 30.7888 34.0228 30.7888C35.9275 30.7888 37.7606 30.3335 39.4068 29.4693V31.2888L34.0126 34.976ZM38.1646 38.8096C38.1592 38.8178 38.1464 38.8368 38.114 38.84C38.0815 38.8441 38.0655 38.827 38.0585 38.8202L35.566 36.3277L40.2656 33.1153L41.2626 34.1628L38.1646 38.8096ZM56.3534 37.9692L54.0929 35.7088C54.1324 35.5297 54.1547 35.3335 54.1546 35.1171L54.1544 34.6968C54.7817 34.9026 55.4428 35.0248 56.127 35.0453C56.2037 35.0477 56.2798 35.0487 56.3563 35.0487C57.1123 35.0487 57.8502 34.9345 58.5525 34.7166V35.1177C58.5525 35.3164 58.5775 35.5111 58.6245 35.6982L56.3534 37.9692ZM60.1097 31.5339C59.054 32.5584 57.6594 33.0995 56.1869 33.054C53.3043 32.9676 50.9592 30.4286 50.9592 27.3945V25.5323C50.9592 25.3776 50.9232 25.2251 50.854 25.0869L50.2387 23.8562C50.0133 23.4053 49.8942 22.9007 49.8942 22.3965V22.3371C49.8942 19.95 51.8363 18.008 54.2234 18.008H62.8127V22.1451C62.8127 22.8137 62.6547 23.4832 62.3557 24.0812L61.8529 25.0869C61.7837 25.2253 61.7477 25.3776 61.7477 25.5323V27.6624C61.7477 29.1339 61.166 30.5088 60.1097 31.5339Z" fill="#BEAD8E"/>
<path d="M62.7437 41.5771C62.1935 41.5771 61.7476 42.0231 61.7476 42.5732V48.9635C61.7476 49.5136 62.1935 49.9596 62.7437 49.9596C63.2938 49.9596 63.7397 49.5136 63.7397 48.9635V42.5732C63.7397 42.0233 63.2938 41.5771 62.7437 41.5771Z" fill="#BEAD8E"/>
<path d="M5.25635 42.8936C4.70624 42.8936 4.26025 43.3395 4.26025 43.8896V48.9632C4.26025 49.5133 4.70624 49.9593 5.25635 49.9593C5.80646 49.9593 6.25244 49.5133 6.25244 48.9632V43.8896C6.25244 43.3397 5.80646 42.8936 5.25635 42.8936Z" fill="#BEAD8E"/>
<path d="M42.1722 12.0479C38.4049 8.28054 30.5226 9.00078 27.3082 9.48528C26.2958 9.63788 25.5611 10.4947 25.5611 11.5225V13.8172C25.5611 14.3673 26.0071 14.8133 26.5572 14.8133C27.1073 14.8133 27.5533 14.3673 27.5533 13.8172V11.5224C27.5533 11.4885 27.5756 11.4595 27.6053 11.455C28.8892 11.2615 31.437 10.963 34.0766 11.1389C37.1829 11.3457 39.4327 12.1255 40.7636 13.4565C41.1526 13.8455 41.7833 13.8455 42.1722 13.4565C42.5612 13.0675 42.5612 12.4368 42.1722 12.0479Z" fill="#BEAD8E"/>
<path d="M22.2971 43.707C21.747 43.707 21.301 44.153 21.301 44.7031V48.9634C21.301 49.5135 21.747 49.9594 22.2971 49.9594C22.8472 49.9594 23.2932 49.5135 23.2932 48.9634V44.7031C23.2932 44.1531 22.8472 43.707 22.2971 43.707Z" fill="#BEAD8E"/>
<path d="M45.7281 43.707C45.178 43.707 44.7321 44.153 44.7321 44.7031V48.9634C44.7321 49.5135 45.178 49.9594 45.7281 49.9594C46.2783 49.9594 46.7242 49.5135 46.7242 48.9634V44.7031C46.7242 44.1531 46.2783 43.707 45.7281 43.707Z" fill="#BEAD8E"/>
</svg>
