<svg width="57" height="51" viewBox="0 0 57 51" fill="none" xmlns="http://www.w3.org/2000/svg">
<path d="M50.9317 3.14007H45.421V1.08444C45.421 0.483711 44.9215 -0.00390625 44.3063 -0.00390625C43.691 -0.00390625 43.1916 0.483711 43.1916 1.08444V3.14007H24.3679V1.08444C24.3679 0.483711 23.8685 -0.00390625 23.2532 -0.00390625C22.638 -0.00390625 22.1385 0.483711 22.1385 1.08444V3.14007H16.2562C12.9063 3.14385 10.1918 5.79378 10.1879 9.06449V27.2017C10.1879 27.8024 10.6874 28.2896 11.3026 28.2896C11.9179 28.2896 12.4169 27.8024 12.4169 27.2017V20.0678H54.771V44.1294C54.7683 46.1987 53.0511 47.8753 50.9317 47.8775H16.2562C14.1368 47.8753 12.4197 46.1987 12.4169 44.1294V37.8418C12.4169 37.2411 11.9179 36.7535 11.3026 36.7535C10.6874 36.7535 10.1879 37.2411 10.1879 37.8418V44.1294C10.1918 47.4001 12.9063 50.0504 16.2562 50.0542H50.9317C54.2816 50.0504 56.9961 47.4001 57 44.1294V9.06449C56.9961 5.79378 54.2816 3.14385 50.9317 3.14007ZM12.4169 17.8912V9.06449C12.4197 6.99524 14.1368 5.31865 16.2562 5.31638H22.1385V8.27121C20.4601 8.80612 19.4291 10.4528 19.7065 12.1555C19.9839 13.8578 21.4876 15.1107 23.2532 15.1107C25.0189 15.1107 26.5226 13.8578 26.8 12.1555C27.0774 10.4528 26.0464 8.80612 24.3679 8.27121V5.31638H43.1916V8.27121C41.5131 8.80612 40.4821 10.4528 40.7595 12.1555C41.0369 13.8578 42.5406 15.1107 44.3063 15.1107C46.0719 15.1107 47.5756 13.8578 47.853 12.1555C48.1304 10.4528 47.0994 8.80612 45.421 8.27121V5.31638H50.9317C53.0511 5.31865 54.7683 6.99524 54.771 9.06449V17.8912H12.4169ZM23.2532 10.2739C24.0057 10.2739 24.6155 10.8693 24.6155 11.604C24.6155 12.3382 24.0057 12.934 23.2532 12.934C22.5012 12.934 21.8909 12.3382 21.8909 11.604C21.8921 10.8697 22.5016 10.2746 23.2532 10.2739ZM44.3063 10.2739C45.0587 10.2739 45.6685 10.8693 45.6685 11.604C45.6685 12.3382 45.0587 12.934 44.3063 12.934C43.5542 12.934 42.944 12.3382 42.944 11.604C42.9451 10.8697 43.5546 10.2746 44.3063 10.2739Z" fill="#BEAD8E"/>
<path d="M7.94582 37.4356C8.38093 37.8608 8.38093 38.5493 7.94582 38.9745C7.51033 39.3997 6.80516 39.3997 6.36967 38.9745L0.548962 33.2915C0.113852 32.8666 0.113852 32.1778 0.548962 31.7529L6.36967 26.0699C6.80516 25.6447 7.51033 25.6447 7.94582 26.0699C8.38093 26.4951 8.38093 27.1836 7.94582 27.6088L4.0279 31.434H25.9814C26.5966 31.434 27.0961 31.9213 27.0961 32.522C27.0961 33.1231 26.5966 33.6104 25.9814 33.6104H4.0279L7.94582 37.4356Z" fill="#BEAD8E"/>
</svg>
