<svg width="40" height="40" viewBox="0 0 40 40" fill="none" xmlns="http://www.w3.org/2000/svg">
<path d="M38.9504 30.8574L30.8543 25.4582C29.8268 24.7786 28.4496 25.0022 27.69 25.9721L25.3317 29.0043C25.0286 29.404 24.4777 29.5199 24.0393 29.2763L23.5907 29.029C22.1035 28.2184 20.2532 27.2093 16.5251 23.4798C12.7969 19.7504 11.7858 17.8986 10.9752 16.4142L10.7292 15.9656C10.4823 15.5273 10.596 14.974 10.9958 14.6685L14.026 12.3109C14.9955 11.5512 15.2195 10.1744 14.5406 9.14665L9.14139 1.05051C8.44563 0.0039495 7.04974 -0.310223 5.97264 0.337259L2.58712 2.37094C1.52337 2.99632 0.742942 4.00914 0.409476 5.19716C-0.80964 9.63916 0.107489 17.3054 11.4005 28.5997C20.3839 37.5824 27.0715 39.998 31.6682 39.998C32.7261 40.0025 33.7798 39.8649 34.8011 39.5888C35.9894 39.2557 37.0023 38.4752 37.6273 37.4111L39.663 34.0276C40.3115 32.9503 39.9974 31.5536 38.9504 30.8574ZM38.5145 33.3437L36.4834 36.7292C36.0347 37.4972 35.3061 38.0619 34.4504 38.305C30.3497 39.4308 23.1854 38.4983 12.3436 27.6566C1.50189 16.8148 0.569452 9.65119 1.6953 5.54984C1.9387 4.6931 2.50409 3.9636 3.27304 3.51413L6.65855 1.4831C7.1259 1.2019 7.73175 1.3382 8.03366 1.79236L10.9666 6.19569L13.4283 9.88779C13.7231 10.3336 13.6262 10.9311 13.2056 11.261L10.1747 13.6186C9.25239 14.3239 8.98899 15.6 9.55687 16.6128L9.79754 17.0501C10.6494 18.6125 11.7086 20.5562 15.5754 24.4224C19.4421 28.2884 21.3852 29.3476 22.9469 30.1995L23.3848 30.4408C24.3976 31.0086 25.6738 30.7452 26.3791 29.8229L28.7367 26.792C29.0666 26.3717 29.6639 26.2749 30.1098 26.5694L38.2053 31.9686C38.6597 32.2703 38.7961 32.8764 38.5145 33.3437Z" fill="#BEAD8E"/>
<path d="M22.6655 6.66902C28.9209 6.67597 33.9901 11.7453 33.9972 18.0007C33.9972 18.3688 34.2955 18.6672 34.6637 18.6672C35.0318 18.6672 35.3302 18.3688 35.3302 18.0007C35.3225 11.0093 29.6569 5.34359 22.6655 5.33594C22.2973 5.33594 21.9989 5.63433 21.9989 6.00248C21.9989 6.37063 22.2973 6.66902 22.6655 6.66902Z" fill="#BEAD8E"/>
<path d="M22.6655 10.669C26.713 10.6738 29.993 13.9538 29.9978 18.0013C29.9978 18.3694 30.2962 18.6678 30.6643 18.6678C31.0325 18.6678 31.3308 18.3694 31.3308 18.0013C31.3253 13.2178 27.4489 9.34141 22.6655 9.33594C22.2973 9.33594 21.9989 9.63433 21.9989 10.0025C21.9989 10.3706 22.2973 10.669 22.6655 10.669Z" fill="#BEAD8E"/>
<path d="M22.6655 14.668C24.5052 14.6702 25.9961 16.1611 25.9984 18.0009C25.9984 18.3691 26.2968 18.6675 26.6649 18.6675C27.033 18.6675 27.3314 18.3691 27.3314 18.0009C27.3285 15.4252 25.2412 13.3379 22.6655 13.335C22.2973 13.335 21.9989 13.6334 21.9989 14.0015C21.9989 14.3697 22.2973 14.668 22.6655 14.668Z" fill="#BEAD8E"/>
</svg>
