<svg width="16" height="17" viewBox="0 0 16 17" fill="none" xmlns="http://www.w3.org/2000/svg">
<g clip-path="url(#clip0_57_4299)">
<path d="M3.46391 12.9869C3.46391 12.6019 3.71991 12.5382 3.85494 12.1651C3.89904 12.0433 3.836 11.9087 3.71416 11.8646C3.59222 11.8206 3.45779 11.8835 3.41366 12.0054C3.31966 12.2652 2.99463 12.426 2.99463 12.9869C2.99463 13.6579 3.44872 13.7229 3.44872 14.1916C3.44872 14.6705 2.99463 14.7147 2.99463 15.3963C2.99463 15.5259 3.09966 15.631 3.22925 15.631C3.35885 15.631 3.46388 15.5259 3.46388 15.3963C3.46388 14.9174 3.91797 14.8732 3.91797 14.1916C3.918 13.5205 3.46391 13.4559 3.46391 12.9869Z" fill="#BEAD8E"/>
<path d="M8.33525 12.9869C8.33525 12.6019 8.591 12.5389 8.72628 12.1651C8.7704 12.0433 8.70737 11.9087 8.58553 11.8646C8.46387 11.8206 8.32919 11.8835 8.28506 12.0054C8.1909 12.2654 7.86597 12.4257 7.86597 12.9869C7.86597 13.6579 8.32006 13.7229 8.32006 14.1916C8.32006 14.6705 7.86597 14.7147 7.86597 15.3963C7.86597 15.5259 7.971 15.631 8.10059 15.631C8.23019 15.631 8.33522 15.5259 8.33522 15.3963C8.33522 14.9174 8.78931 14.8732 8.78931 14.1916C8.78937 13.5205 8.33525 13.4559 8.33525 12.9869Z" fill="#BEAD8E"/>
<path d="M5.8997 12.9869C5.8997 12.6018 6.15542 12.5389 6.2907 12.1651C6.33483 12.0433 6.27179 11.9087 6.14995 11.8646C6.02829 11.8206 5.89361 11.8835 5.84948 12.0054C5.75526 12.2655 5.43042 12.4257 5.43042 12.9869C5.43042 13.6579 5.88451 13.7229 5.88451 14.1916C5.88451 14.6705 5.43042 14.7147 5.43042 15.3963C5.43042 15.5259 5.53545 15.631 5.66504 15.631C5.79464 15.631 5.89967 15.5259 5.89967 15.3963C5.89967 14.9174 6.35376 14.8732 6.35376 14.1916C6.35379 13.5205 5.8997 13.4559 5.8997 12.9869Z" fill="#BEAD8E"/>
<path d="M10.7708 12.9869C10.7708 12.6018 11.0265 12.5389 11.1618 12.1651C11.2059 12.0433 11.1429 11.9087 11.021 11.8646C10.8994 11.8206 10.7647 11.8835 10.7206 12.0054C10.6264 12.2655 10.3015 12.4257 10.3015 12.9869C10.3015 13.6579 10.7556 13.7229 10.7556 14.1916C10.7556 14.6705 10.3015 14.7147 10.3015 15.3963C10.3015 15.5259 10.4065 15.631 10.5361 15.631C10.6657 15.631 10.7708 15.5259 10.7708 15.3963C10.7708 14.9174 11.2249 14.8732 11.2249 14.1916C11.2249 13.5205 10.7708 13.4559 10.7708 12.9869Z" fill="#BEAD8E"/>
<path d="M13.2066 12.9869C13.2066 12.6018 13.4623 12.5389 13.5976 12.1651C13.6417 12.0433 13.5787 11.9087 13.4568 11.8646C13.3352 11.8206 13.2005 11.8835 13.1564 12.0054C13.0621 12.2655 12.7373 12.4257 12.7373 12.9869C12.7373 13.6579 13.1914 13.7229 13.1914 14.1916C13.1914 14.6705 12.7373 14.7147 12.7373 15.3963C12.7373 15.5259 12.8423 15.631 12.9719 15.631C13.1015 15.631 13.2066 15.5259 13.2066 15.3963C13.2066 14.9174 13.6606 14.8732 13.6606 14.1916C13.6606 13.5205 13.2066 13.4559 13.2066 12.9869Z" fill="#BEAD8E"/>
<path d="M1.32874 4.15503L1.31042 4.23847C1.28264 4.36503 1.36277 4.49016 1.48933 4.51791C1.61611 4.54566 1.74105 4.46541 1.7688 4.339L1.80917 4.15503H2.22417V4.57003L2.04017 4.61041C1.91361 4.63819 1.83349 4.76331 1.8613 4.88987C1.88908 5.01644 2.01424 5.0965 2.14074 5.06875L2.22417 5.05044V5.18044C2.22417 5.31003 2.32921 5.41506 2.4588 5.41506C2.58839 5.41506 2.69343 5.31 2.69343 5.18044V5.05047L2.77683 5.06878C2.90308 5.09647 3.02846 5.01678 3.05627 4.88991C3.08408 4.76334 3.00396 4.63822 2.87739 4.61044L2.69343 4.57006V4.15506H3.10843L3.1488 4.33906C3.17658 4.46575 3.3018 4.54566 3.42824 4.51794C3.5548 4.49016 3.63493 4.36503 3.60711 4.23847L3.5888 4.15506H3.7188C3.84839 4.15506 3.95343 4.05 3.95343 3.92044C3.95343 3.79084 3.84839 3.68581 3.7188 3.68581H3.5888L3.60711 3.60241C3.63493 3.47584 3.5548 3.35072 3.42824 3.32294C3.30177 3.29525 3.17655 3.37528 3.1488 3.50181L3.10843 3.68581H2.69343V3.27081L2.87739 3.23044C3.00396 3.20266 3.08408 3.07756 3.0563 2.95097C3.02852 2.82441 2.90336 2.74441 2.77683 2.77209L2.69343 2.79041V2.66041C2.69343 2.53081 2.58839 2.42578 2.4588 2.42578C2.32921 2.42578 2.22417 2.53084 2.22417 2.66041V2.79041L2.14074 2.77209C2.01399 2.74444 1.88905 2.82444 1.86127 2.95097C1.83349 3.07753 1.91361 3.20266 2.04017 3.23044L2.22417 3.27081V3.68581H1.80917L1.7688 3.50184C1.74099 3.37528 1.61614 3.29525 1.48933 3.32294C1.36277 3.35072 1.28264 3.47581 1.31042 3.60238L1.32874 3.68581H1.19874C1.06914 3.68581 0.964111 3.79088 0.964111 3.92044C0.964111 4.05003 1.06914 4.15506 1.19874 4.15506H1.32874V4.15503Z" fill="#BEAD8E"/>
<path d="M14.183 5.74983C14.183 5.25561 13.7809 4.85352 13.2867 4.85352C12.7924 4.85352 12.3904 5.25561 12.3904 5.74983C12.3904 6.24405 12.7924 6.64614 13.2867 6.64614C13.7809 6.64614 14.183 6.24405 14.183 5.74983ZM12.8596 5.74983C12.8596 5.51436 13.0512 5.32277 13.2867 5.32277C13.5222 5.32277 13.7138 5.51436 13.7138 5.74983C13.7138 5.9853 13.5222 6.17689 13.2867 6.17689C13.0512 6.17689 12.8596 5.9853 12.8596 5.74983Z" fill="#BEAD8E"/>
<path d="M11.8732 5.74983C11.8732 5.25561 11.4711 4.85352 10.9769 4.85352C10.4826 4.85352 10.0806 5.25561 10.0806 5.74983C10.0806 6.24405 10.4826 6.64614 10.9769 6.64614C11.4711 6.64614 11.8732 6.24405 11.8732 5.74983ZM10.5498 5.74983C10.5498 5.51436 10.7414 5.32277 10.9769 5.32277C11.2123 5.32277 11.4039 5.51436 11.4039 5.74983C11.4039 5.9853 11.2123 6.17689 10.9769 6.17689C10.7414 6.17689 10.5498 5.9853 10.5498 5.74983Z" fill="#BEAD8E"/>
<path d="M2.45878 6.38533C3.81456 6.38533 4.91753 5.28233 4.91753 3.92655C4.91753 2.57077 3.81453 1.46777 2.45878 1.46777C1.10303 1.46777 0 2.57077 0 3.92655C0 5.28233 1.10303 6.38533 2.45878 6.38533ZM2.45878 1.93702C3.55578 1.93702 4.44828 2.82952 4.44828 3.92655C4.44828 5.02358 3.55578 5.91608 2.45878 5.91608C1.36175 5.91608 0.46925 5.02358 0.46925 3.92655C0.46925 2.82952 1.36175 1.93702 2.45878 1.93702Z" fill="#BEAD8E"/>
<path d="M14.9414 3.09277H5.70881C5.57922 3.09277 5.47418 3.19784 5.47418 3.3274C5.47418 3.45696 5.57922 3.56202 5.70881 3.56202H14.9414C15.2663 3.56202 15.5307 3.82637 15.5307 4.1513V9.85696C15.5307 10.1819 15.2663 10.4462 14.9414 10.4462H14.183V8.3874C14.183 7.94371 13.8221 7.58274 13.3784 7.58274H3.27681C2.83312 7.58274 2.47218 7.94371 2.47218 8.3874V10.4462H1.71381C1.38887 10.4462 1.12452 10.1819 1.12452 9.85696V6.79805C1.12452 6.66846 1.01949 6.56343 0.889899 6.56343C0.760305 6.56343 0.655273 6.66849 0.655273 6.79805V9.85696C0.655273 10.4406 1.13012 10.9155 1.71381 10.9155H14.9414C15.5251 10.9155 15.9999 10.4406 15.9999 9.85696V4.1513C15.9999 3.56762 15.5251 3.09277 14.9414 3.09277ZM2.94143 8.99737H13.7138V9.50087H2.94143V8.99737ZM3.27681 8.05199H13.3784C13.5633 8.05199 13.7138 8.20246 13.7138 8.3874V8.52812H2.94143V8.3874C2.94143 8.20246 3.09187 8.05199 3.27681 8.05199ZM2.94143 9.97012H13.7138V10.4462H2.94143V9.97012Z" fill="#BEAD8E"/>
</g>
<defs>
<clipPath id="clip0_57_4299">
<rect width="16" height="16" fill="white" transform="translate(0 0.549805)"/>
</clipPath>
</defs>
</svg>
