<svg width="16" height="18" viewBox="0 0 16 18" fill="none" xmlns="http://www.w3.org/2000/svg">
<path d="M15.248 12.554L13.112 11.3293L14.9684 10.5136C15.227 10.4 15.346 10.0974 15.2328 9.83788C15.1218 9.58682 14.81 9.46363 14.5569 9.57426L12.0057 10.6949L9.03104 8.98907L11.9915 7.28019L14.5715 8.40369C14.8334 8.51657 15.1366 8.38738 15.2448 8.13744C15.3571 7.87794 15.2378 7.57569 14.9793 7.46357L13.0949 6.64307L15.2418 5.40369C15.3603 5.33526 15.445 5.22463 15.4803 5.09226C15.5155 4.95988 15.4974 4.82188 15.4287 4.70338C15.2922 4.46863 14.9652 4.37938 14.7286 4.51569L12.5962 5.74663L12.8245 3.73176C12.8403 3.59507 12.8017 3.46063 12.716 3.353C12.6307 3.24613 12.509 3.179 12.3742 3.16419C12.0873 3.13025 11.836 3.33763 11.8066 3.61719L11.5169 6.38488L8.56248 8.10369V4.69063L10.7984 3.01963C10.9042 2.942 10.9733 2.82726 10.9932 2.69638C11.0138 2.55969 10.9775 2.41644 10.8938 2.30319C10.7305 2.08176 10.4185 2.03094 10.1947 2.19576L8.56248 3.41319V0.93913C8.56248 0.637255 8.26529 0.42688 7.99848 0.42688C7.73316 0.42688 7.43748 0.637255 7.43748 0.93913V3.39819L5.83004 2.19557C5.6101 2.03225 5.28948 2.08176 5.12579 2.30301C5.0401 2.41851 5.00316 2.564 5.02398 2.70182C5.04348 2.83063 5.11173 2.94332 5.21466 3.0185L7.43748 4.67488V8.10201L4.52729 6.42088L4.21735 3.65132C4.18641 3.39294 3.97116 3.19813 3.71616 3.19813C3.69573 3.19813 3.67454 3.19925 3.65504 3.20188C3.37829 3.23357 3.1771 3.48763 3.20673 3.77057L3.44335 5.78582L1.26066 4.53388C1.18341 4.48982 1.09566 4.46638 1.00698 4.46638C0.823602 4.46638 0.653351 4.56501 0.562601 4.72401C0.423289 4.96682 0.507476 5.28032 0.751976 5.42357L2.94854 6.68319L1.06735 7.50932C0.941726 7.56444 0.845164 7.66494 0.795851 7.79225C0.746164 7.91975 0.749351 8.05907 0.804289 8.18376C0.912289 8.43276 1.21435 8.55988 1.4791 8.44851L4.05498 7.31751L6.97529 8.99188L4.04879 10.6814L1.49485 9.56901C1.24116 9.45894 0.930289 9.58251 0.820789 9.83432C0.707539 10.0929 0.826414 10.3957 1.08591 10.5097L2.94441 11.3189L0.765289 12.5771C0.522102 12.7196 0.438476 13.0336 0.578914 13.2772C0.670039 13.4351 0.840664 13.5331 1.02329 13.5331C1.11423 13.5331 1.2031 13.5089 1.27866 13.4645L3.47241 12.1979L3.23973 14.2421C3.22473 14.3784 3.26354 14.5123 3.34941 14.6195C3.43491 14.7262 3.55679 14.7935 3.68804 14.8078C3.7081 14.8106 3.72966 14.8111 3.75104 14.8111C4.01166 14.8111 4.23029 14.6158 4.25973 14.3551L4.55298 11.5599L7.43748 9.88232V13.2873L5.45673 14.9443C5.24523 15.1214 5.22123 15.4449 5.4016 15.6629C5.49648 15.7805 5.64666 15.8506 5.80341 15.8506C5.94498 15.8506 6.04004 15.7899 6.1111 15.7334L7.43748 14.621V17.0608C7.43748 17.3626 7.73316 17.573 7.99848 17.573C8.26529 17.573 8.56248 17.3626 8.56248 17.0608V14.6045L9.90929 15.7357C10.1335 15.9163 10.4369 15.8735 10.6089 15.6652C10.6951 15.5615 10.7407 15.4327 10.7369 15.302C10.733 15.1601 10.6715 15.0328 10.5646 14.9437L8.56248 13.2704V9.87426L11.5077 11.576L11.8201 14.3716C11.851 14.6294 12.0668 14.8239 12.3224 14.8239C12.3466 14.8239 12.3616 14.8226 12.3781 14.8201C12.5131 14.8053 12.6342 14.7382 12.7192 14.6317C12.805 14.5241 12.8437 14.3893 12.8277 14.2522L12.5898 12.2109L14.7384 13.4429C14.8154 13.4874 14.9035 13.5108 14.9932 13.5108C15.1767 13.5108 15.347 13.412 15.4372 13.253C15.5768 13.0093 15.4925 12.6956 15.248 12.554Z" fill="#222222"/>
</svg>
