<svg width="24" height="24" viewBox="0 0 24 24" fill="none" xmlns="http://www.w3.org/2000/svg">
<path d="M7.90909 12.5455C8.39455 12.5455 8.86912 12.4015 9.27276 12.1318C9.67641 11.8621 9.99102 11.4787 10.1768 11.0302C10.3626 10.5817 10.4112 10.0882 10.3165 9.61205C10.2218 9.13592 9.98799 8.69856 9.64472 8.35528C9.30144 8.01201 8.86408 7.77824 8.38795 7.68353C7.91181 7.58882 7.41829 7.63743 6.96978 7.82321C6.52127 8.00898 6.13792 8.32359 5.86821 8.72724C5.5985 9.13088 5.45455 9.60545 5.45455 10.0909C5.45455 10.7419 5.71315 11.3662 6.17347 11.8265C6.63378 12.2869 7.2581 12.5455 7.90909 12.5455ZM7.90909 9.27273C8.07091 9.27273 8.2291 9.32071 8.36365 9.41062C8.4982 9.50052 8.60307 9.6283 8.66499 9.7778C8.72692 9.92731 8.74312 10.0918 8.71155 10.2505C8.67998 10.4092 8.60206 10.555 8.48763 10.6695C8.37321 10.7839 8.22742 10.8618 8.06871 10.8934C7.91 10.9249 7.74549 10.9087 7.59599 10.8468C7.44648 10.7849 7.3187 10.68 7.2288 10.5455C7.13889 10.4109 7.09091 10.2527 7.09091 10.0909C7.09091 9.87391 7.17711 9.66581 7.33055 9.51237C7.48399 9.35893 7.6921 9.27273 7.90909 9.27273ZM18.5455 7.63636H12C11.783 7.63636 11.5749 7.72256 11.4215 7.876C11.268 8.02944 11.1818 8.23755 11.1818 8.45455V13.3636H4.63636V6.81818C4.63636 6.60119 4.55016 6.39308 4.39672 6.23964C4.24328 6.0862 4.03518 6 3.81818 6C3.60119 6 3.39308 6.0862 3.23964 6.23964C3.0862 6.39308 3 6.60119 3 6.81818V17.4545C3 17.6715 3.0862 17.8797 3.23964 18.0331C3.39308 18.1865 3.60119 18.2727 3.81818 18.2727C4.03518 18.2727 4.24328 18.1865 4.39672 18.0331C4.55016 17.8797 4.63636 17.6715 4.63636 17.4545V15H19.3636V17.4545C19.3636 17.6715 19.4498 17.8797 19.6033 18.0331C19.7567 18.1865 19.9648 18.2727 20.1818 18.2727C20.3988 18.2727 20.6069 18.1865 20.7604 18.0331C20.9138 17.8797 21 17.6715 21 17.4545V10.0909C21 9.43992 20.7414 8.8156 20.2811 8.35528C19.8208 7.89497 19.1964 7.63636 18.5455 7.63636ZM19.3636 13.3636H12.8182V9.27273H18.5455C18.7625 9.27273 18.9706 9.35893 19.124 9.51237C19.2774 9.66581 19.3636 9.87391 19.3636 10.0909V13.3636Z" fill="#222222"/>
</svg>
