<svg width="16" height="17" viewBox="0 0 16 17" fill="none" xmlns="http://www.w3.org/2000/svg">
<g clip-path="url(#clip0_57_4313)">
<path d="M8 4.1123C5.55316 4.1123 3.5625 6.10296 3.5625 8.5498C3.5625 10.9966 5.55316 12.9873 8 12.9873C10.4468 12.9873 12.4375 10.9966 12.4375 8.5498C12.4375 6.10296 10.4468 4.1123 8 4.1123ZM8 12.3623C5.89778 12.3623 4.1875 10.652 4.1875 8.5498C4.1875 6.44759 5.89778 4.7373 8 4.7373C10.1022 4.7373 11.8125 6.44759 11.8125 8.5498C11.8125 10.652 10.1022 12.3623 8 12.3623Z" fill="#BEAD8E"/>
<path d="M15.8341 0.586305C15.732 0.532117 15.6083 0.538648 15.5125 0.603336C13.9784 1.63993 13.0625 3.36418 13.0625 5.21571V9.27046C13.0625 9.70537 13.2319 10.1142 13.5394 10.4218L14.125 11.0074V15.6123C14.125 16.1292 14.5456 16.5498 15.0625 16.5498C15.5794 16.5498 16 16.1292 16 15.6123V0.862305C16 0.746711 15.9362 0.640555 15.8341 0.586305ZM15.375 15.6123C15.375 15.7846 15.2348 15.9248 15.0625 15.9248C14.8902 15.9248 14.75 15.7846 14.75 15.6123V10.8779C14.75 10.7951 14.7171 10.7156 14.6585 10.657L13.9813 9.9798C13.7918 9.79034 13.6875 9.53843 13.6875 9.27046V5.21571C13.6875 3.77884 14.3088 2.4284 15.375 1.49659V15.6123Z" fill="#BEAD8E"/>
<path d="M7.28317 6.07171C7.21542 5.91299 7.03173 5.83927 6.87304 5.90699C5.81263 6.35968 5.12744 7.39714 5.12744 8.55004C5.12744 8.72261 5.26735 8.86254 5.43994 8.86254C5.61254 8.86254 5.75244 8.72261 5.75244 8.55004C5.75244 7.64789 6.28863 6.83605 7.11845 6.48183C7.27717 6.41408 7.35092 6.23046 7.28317 6.07171Z" fill="#BEAD8E"/>
<path d="M8.00002 5.67676L7.98424 5.67679C7.81165 5.67795 7.67268 5.81879 7.67384 5.99138C7.67499 6.16326 7.81468 6.30179 7.9863 6.30179C7.98699 6.30179 7.98774 6.30179 7.98843 6.30179L8.00002 6.30176C8.17262 6.30176 8.31252 6.16185 8.31252 5.98926C8.31252 5.81666 8.17262 5.67676 8.00002 5.67676Z" fill="#BEAD8E"/>
<path d="M12.332 4.43953C11.7798 3.85778 11.129 3.40003 10.3976 3.07903C9.64026 2.74666 8.83357 2.57812 8.00001 2.57812C7.04751 2.57812 6.13701 2.79581 5.29382 3.22519C5.14004 3.3035 5.07882 3.49166 5.15713 3.64547C5.23547 3.79922 5.42363 3.86041 5.57744 3.78212C6.33194 3.39794 7.14701 3.20312 8.00001 3.20312C9.48113 3.20312 10.8586 3.795 11.8786 4.86978C11.9401 4.93453 12.0226 4.96716 12.1054 4.96716C12.1826 4.96716 12.26 4.93869 12.3204 4.88131C12.4456 4.7625 12.4508 4.56472 12.332 4.43953Z" fill="#BEAD8E"/>
<path d="M12.6352 11.8115C12.4998 11.7045 12.3033 11.7275 12.1963 11.8628C11.1746 13.155 9.64512 13.8961 7.9999 13.8961C6.97021 13.8961 5.97062 13.6028 5.10918 13.048C4.96412 12.9546 4.77068 12.9965 4.67724 13.1415C4.5838 13.2866 4.62568 13.48 4.77077 13.5735C5.73334 14.1934 6.84996 14.5211 7.9999 14.5211C9.8374 14.5211 11.5456 13.6935 12.6866 12.2504C12.7936 12.1151 12.7706 11.9186 12.6352 11.8115Z" fill="#BEAD8E"/>
<path d="M4.24868 12.3599L4.24409 12.3547C4.24243 12.3526 4.24078 12.3506 4.23906 12.3486C4.1279 12.2165 3.93078 12.1996 3.79875 12.3107C3.66672 12.4219 3.64978 12.619 3.76097 12.7511L3.764 12.7547L3.76416 12.7546C3.76747 12.7588 3.7709 12.7629 3.77447 12.7671C3.83628 12.8391 3.92372 12.876 4.01172 12.876C4.08378 12.876 4.15618 12.8512 4.21512 12.8006C4.34606 12.6882 4.36109 12.4909 4.24868 12.3599Z" fill="#BEAD8E"/>
<path d="M3.875 0.549805C3.70241 0.549805 3.5625 0.689711 3.5625 0.862305V4.2373H2.99975C2.99978 4.23555 3 4.23387 3 4.23209V0.862305C3 0.689711 2.86009 0.549805 2.6875 0.549805C2.51491 0.549805 2.375 0.689711 2.375 0.862305V4.23209C2.375 4.23384 2.37525 4.23555 2.37525 4.2373H1.81225C1.81228 4.23555 1.8125 4.23387 1.8125 4.23209V0.862305C1.8125 0.689711 1.67259 0.549805 1.5 0.549805C1.32741 0.549805 1.1875 0.689711 1.1875 0.862305V4.23209C1.1875 4.23384 1.18775 4.23555 1.18775 4.2373H0.625V0.862305C0.625 0.689711 0.485094 0.549805 0.3125 0.549805C0.139906 0.549805 0 0.689711 0 0.862305V4.6748C0 5.44137 0.465125 6.13321 1.15625 6.43227V15.6123C1.15625 16.1292 1.57681 16.5498 2.09375 16.5498C2.61069 16.5498 3.03125 16.1292 3.03125 15.6123V6.43227C3.72237 6.13321 4.1875 5.44137 4.1875 4.6748V0.862305C4.1875 0.689711 4.04759 0.549805 3.875 0.549805ZM2.632 5.91293C2.49831 5.95155 2.40625 6.07396 2.40625 6.21315V15.6123C2.40625 15.7846 2.26606 15.9248 2.09375 15.9248C1.92144 15.9248 1.78125 15.7846 1.78125 15.6123V6.21315C1.78125 6.07396 1.68922 5.95155 1.5555 5.91293C1.06853 5.77221 0.712344 5.35421 0.639125 4.8623H3.54834C3.47516 5.35421 3.11897 5.77221 2.632 5.91293Z" fill="#BEAD8E"/>
</g>
<defs>
<clipPath id="clip0_57_4313">
<rect width="16" height="16" fill="white" transform="translate(0 0.549805)"/>
</clipPath>
</defs>
</svg>
