<svg width="16" height="14" viewBox="0 0 16 14" fill="none" xmlns="http://www.w3.org/2000/svg">
<path fill-rule="evenodd" clip-rule="evenodd" d="M1.63454 4.43273L1.9 3.63636H1.45455C1.05273 3.63636 0.727273 3.31091 0.727273 2.90909C0.727273 2.50727 1.05273 2.18182 1.45455 2.18182C1.9 2.18182 2.38473 2.18182 2.38473 2.18182C2.38473 2.18182 2.73164 1.1411 2.94654 0.497459C3.04545 0.200368 3.32327 0 3.63636 0C5.33345 0 10.6665 0 12.3636 0C12.6767 0 12.9545 0.200368 13.0535 0.497459L13.6153 2.18182H14.5455C14.9473 2.18182 15.2727 2.50727 15.2727 2.90909C15.2727 3.31091 14.9473 3.63636 14.5455 3.63636H14.1L14.3655 4.43273C15.3055 4.67564 16 5.52945 16 6.54545V13.0909C16 13.4927 15.6745 13.8182 15.2727 13.8182C14.8284 13.8182 14.2625 13.8182 13.8182 13.8182C13.4164 13.8182 13.0909 13.4927 13.0909 13.0909V12.3636H2.90909V13.0909C2.90909 13.4927 2.58364 13.8182 2.18182 13.8182C1.73745 13.8182 1.17164 13.8182 0.727273 13.8182C0.325455 13.8182 0 13.4927 0 13.0909C0 11.7076 0 8.648 0 6.54545C0 5.52945 0.694544 4.67564 1.63454 4.43273ZM2.90909 7.27273C3.31091 7.27273 3.63636 7.59818 3.63636 8C3.63636 8.40182 3.31091 8.72727 2.90909 8.72727C2.27455 8.72727 1.45455 8.72727 1.45455 8.72727V10.9091H3.91418C3.91418 10.9091 4.76873 9.20036 5.16764 8.40218C5.29091 8.15563 5.54255 8 5.81818 8C6.81236 8 9.18764 8 10.1818 8C10.4575 8 10.7091 8.15563 10.8324 8.40218C11.2313 9.20036 12.0858 10.9091 12.0858 10.9091H14.5455V8.72727H13.0909C12.6891 8.72727 12.3636 8.40182 12.3636 8C12.3636 7.59818 12.6891 7.27273 13.0909 7.27273C13.7255 7.27273 14.5455 7.27273 14.5455 7.27273V6.54545C14.5455 6.14364 14.22 5.81818 13.8182 5.81818C11.5265 5.81818 4.47345 5.81818 2.18182 5.81818C1.78 5.81818 1.45455 6.14364 1.45455 6.54545V7.27273H2.90909ZM9.73237 9.45455H6.26763L5.54036 10.9091H10.4596L9.73237 9.45455ZM4.16073 1.45455L3.19091 4.36364H12.8091L11.8393 1.45455H4.16073Z" fill="#222222"/>
</svg>
