<svg width="16" height="16" viewBox="0 0 16 16" fill="none" xmlns="http://www.w3.org/2000/svg">
<g clip-path="url(#clip0_57_4341)">
<path d="M4.65462 3.42745C5.21796 3.68004 5.44459 4.27723 5.51587 4.52226C5.55046 4.64116 5.6569 4.72107 5.78068 4.72107C5.90446 4.72107 6.01087 4.64116 6.04549 4.52223C6.11677 4.27719 6.34337 3.68001 6.90677 3.42741C7.00602 3.38291 7.07018 3.28401 7.07018 3.17548C7.07018 3.06695 7.00605 2.96804 6.90677 2.92351C6.3434 2.67091 6.1168 2.07373 6.04549 1.8287C6.0109 1.70979 5.90446 1.62988 5.78068 1.62988C5.6569 1.62988 5.55046 1.70979 5.51587 1.8287C5.44459 2.07373 5.21799 2.67091 4.65465 2.92351C4.55537 2.96801 4.49121 3.06691 4.49121 3.17548C4.49121 3.28404 4.55537 3.38295 4.65462 3.42745ZM5.78068 2.42148C5.91071 2.67441 6.11084 2.95988 6.41118 3.17548C6.11084 3.39107 5.91074 3.67654 5.78068 3.92948C5.65065 3.67654 5.45055 3.39107 5.15018 3.17548C5.45052 2.95988 5.65065 2.67441 5.78068 2.42148Z" fill="#BEAD8E"/>
<path d="M4.2278 4.75308C4.33293 4.70595 4.40083 4.6013 4.40083 4.48645C4.40083 4.37161 4.3329 4.26692 4.2278 4.21983C3.41502 3.85542 3.09002 3.00052 2.98802 2.64983C2.95143 2.52398 2.83883 2.43945 2.70786 2.43945C2.57689 2.43945 2.4643 2.52402 2.42771 2.64983C2.32571 3.00048 2.00071 3.85539 1.18792 4.21983C1.0828 4.26695 1.01489 4.37161 1.01489 4.48645C1.01489 4.6013 1.08283 4.70598 1.18792 4.75308C2.00071 5.11752 2.32571 5.97242 2.42774 6.32308C2.46433 6.44889 2.57693 6.53342 2.70789 6.53342C2.83883 6.53342 2.95143 6.44889 2.98805 6.32305C3.09002 5.97242 3.41505 5.11752 4.2278 4.75308ZM2.70786 5.7347C2.52677 5.33198 2.20936 4.82586 1.67683 4.48642C2.20936 4.14702 2.5268 3.64089 2.70789 3.23817C2.88899 3.64089 3.20643 4.14702 3.73893 4.48642C3.2064 4.82586 2.88896 5.33198 2.70786 5.7347Z" fill="#BEAD8E"/>
<path d="M14.9838 15.4566L14.9348 14.7707C14.9346 14.7685 14.9345 14.7663 14.9342 14.7641C14.8247 13.6689 14.6198 12.5615 14.6104 12.5108C14.4629 11.4763 13.8207 11.0019 13.3071 10.7861C13.1934 10.7383 13.0814 10.7011 12.975 10.6721V4.39122C12.975 4.262 12.8703 4.15722 12.741 4.15722C12.6118 4.15722 12.507 4.26197 12.507 4.39122V10.5844C12.3661 10.5696 12.2687 10.5699 12.2416 10.5703C12.2146 10.5699 12.1171 10.5697 11.9761 10.5845V2.60206H12.507V3.28575C12.507 3.41497 12.6118 3.51975 12.741 3.51975C12.8702 3.51975 12.975 3.415 12.975 3.28575V0.733469C12.975 0.329031 12.646 0 12.2416 0C11.8371 0 11.5081 0.329031 11.5081 0.733469V10.6721C11.4017 10.7011 11.2897 10.7383 11.1761 10.7861C11.055 10.8369 10.9269 10.9024 10.7998 10.986L10.8834 9.41859C11.0846 9.3645 11.2334 9.18103 11.2334 8.963V8.31763C11.2334 8.05722 11.0215 7.84538 10.7611 7.84538H10.6755C10.7139 7.74447 10.7345 7.63613 10.7345 7.52481C10.7345 7.02806 10.3303 6.62397 9.83362 6.62397C9.72327 6.62397 9.61624 6.6435 9.51587 6.68141C9.31087 6.38597 8.96868 6.20003 8.60008 6.20003C8.47896 6.20003 8.35902 6.22006 8.2453 6.25838C8.09346 5.62372 7.5214 5.15053 6.84087 5.15053C6.16033 5.15053 5.58824 5.62369 5.4364 6.25838C5.32268 6.22006 5.20274 6.20003 5.08162 6.20003C4.46802 6.20003 3.9688 6.69922 3.9688 7.31281C3.9688 7.50128 4.0158 7.68388 4.10021 7.84538H3.94215C3.68174 7.84538 3.4699 8.05722 3.4699 8.31759V8.963C3.4699 9.18103 3.61862 9.3645 3.8198 9.41859L3.92612 11.4106L3.23462 12.1021C3.10712 12.2296 3.03687 12.3991 3.03687 12.5795C3.03687 12.7598 3.10708 12.9293 3.23462 13.0568C3.36624 13.1884 3.53912 13.2542 3.71199 13.2542C3.81805 13.2542 3.92402 13.2292 4.02055 13.1797L4.11108 14.8761C4.14474 15.5063 4.66546 16 5.29655 16H9.40677C9.53408 16 9.65677 15.9796 9.77202 15.9423C9.84358 15.9794 9.92346 16 10.0053 16H14.4778C14.6181 16 14.7535 15.9411 14.8491 15.8384C14.9446 15.7357 14.9938 15.5966 14.9838 15.4566ZM11.9761 0.733469C11.9761 0.587094 12.0952 0.468 12.2416 0.468C12.3879 0.468 12.507 0.587094 12.507 0.733469V2.13409H11.9761V0.733469ZM12.2351 11.0383C12.2392 11.0384 12.2438 11.0384 12.2479 11.0383C12.3123 11.0368 13.7407 11.0174 14.0941 12.3174H10.7287L10.7658 11.6228C11.3186 11.0262 12.1838 11.037 12.2351 11.0383ZM5.08165 6.66803C5.23002 6.66803 5.36955 6.71716 5.48515 6.81009C5.55627 6.86728 5.65408 6.87788 5.73577 6.83738C5.81749 6.79684 5.86821 6.7125 5.86568 6.62131L5.86533 6.60988C5.86515 6.60475 5.86493 6.59966 5.86493 6.5945C5.86493 6.05638 6.30274 5.61856 6.8409 5.61856C7.37905 5.61856 7.81683 6.05638 7.81683 6.5945C7.81683 6.59966 7.81662 6.60478 7.81643 6.60988L7.81608 6.62131C7.81358 6.7125 7.86427 6.79681 7.94599 6.83738C8.02771 6.87791 8.12555 6.86728 8.19662 6.81009C8.31221 6.71716 8.45171 6.66803 8.60012 6.66803C8.86612 6.66803 9.1084 6.83512 9.20293 7.08384C9.2294 7.15344 9.2874 7.20628 9.35915 7.22619C9.4309 7.24609 9.5078 7.23063 9.56637 7.18456C9.6433 7.124 9.73574 7.092 9.83365 7.092C10.0723 7.092 10.2665 7.28619 10.2665 7.52488C10.2665 7.64806 10.2144 7.76391 10.1246 7.84544H4.69624C4.53702 7.724 4.43683 7.52134 4.43683 7.31287C4.4368 6.95728 4.72608 6.66803 5.08165 6.66803ZM3.93793 8.31759C3.93793 8.31525 3.93983 8.31334 3.94218 8.31334H10.7611C10.7635 8.31334 10.7654 8.31525 10.7654 8.31759V8.96297C10.7654 8.96531 10.7635 8.96722 10.7611 8.96722H8.81249C8.5019 8.96722 8.2269 9.15203 8.1119 9.43803C7.98643 9.75019 7.68802 9.95184 7.35165 9.95184C7.33312 9.95184 7.3148 9.95088 7.29655 9.94963L7.73493 9.51125C7.86243 9.38375 7.93268 9.21422 7.93268 9.03388C7.93268 8.85353 7.86246 8.684 7.73493 8.5565C7.47171 8.29328 7.04343 8.29328 6.78021 8.5565L6.26912 9.06759C6.15693 9.00319 6.02743 8.96719 5.89083 8.96719H3.94218C3.93983 8.96719 3.93793 8.96528 3.93793 8.96294V8.31759ZM5.9008 9.43594L4.37105 10.9657L4.28937 9.43522H5.8908C5.89424 9.43522 5.89746 9.43584 5.9008 9.43594ZM9.40677 15.532H5.29655C4.91424 15.532 4.5988 15.2329 4.57843 14.8512L4.4678 12.7784L5.47499 11.7712C5.56637 11.6799 5.56637 11.5317 5.47499 11.4403C5.38362 11.349 5.23546 11.349 5.14408 11.4403L3.85849 12.7259C3.77774 12.8067 3.64633 12.8067 3.56558 12.7259C3.48483 12.6452 3.48483 12.5138 3.56558 12.433L7.11112 8.8875C7.19187 8.80672 7.32324 8.80672 7.40402 8.8875C7.48477 8.96825 7.48477 9.09966 7.40402 9.18041L5.93462 10.6498C5.84324 10.7412 5.84324 10.8893 5.93462 10.9807C6.02599 11.0721 6.17415 11.0721 6.26552 10.9807L6.90555 10.3407C7.04549 10.3921 7.1959 10.4199 7.35165 10.4199C7.88012 10.4199 8.34899 10.103 8.54612 9.61263C8.58943 9.50488 8.69399 9.43525 8.81246 9.43525H10.4139L10.1249 14.8512C10.1045 15.233 9.78908 15.532 9.40677 15.532ZM14.5066 15.5195C14.5012 15.5252 14.4919 15.532 14.4778 15.532H13.7468C13.6747 14.519 13.4808 13.7664 13.472 13.7327C13.4394 13.6077 13.3117 13.5328 13.1865 13.5654C13.0615 13.598 12.9866 13.7258 13.0192 13.8508C13.0212 13.8586 13.2061 14.5764 13.2775 15.532H12.4756V13.7918C12.4756 13.6626 12.3708 13.5578 12.2416 13.5578C12.1123 13.5578 12.0076 13.6625 12.0076 13.7918V15.532H11.2056C11.2768 14.5813 11.4609 13.8626 11.4639 13.8509C11.4966 13.7258 11.4216 13.598 11.2966 13.5654C11.1716 13.5327 11.0437 13.6077 11.0111 13.7327C11.0023 13.7665 10.8084 14.5191 10.7363 15.532H10.351C10.4909 15.3486 10.579 15.1229 10.5922 14.8762L10.7037 12.7855H14.1841C14.2478 13.1499 14.3856 13.9822 14.4682 14.8074L14.517 15.4899C14.518 15.504 14.5119 15.5138 14.5066 15.5195Z" fill="#BEAD8E"/>
</g>
<defs>
<clipPath id="clip0_57_4341">
<rect width="16" height="16" fill="white"/>
</clipPath>
</defs>
</svg>
