<svg width="16" height="17" viewBox="0 0 16 17" fill="none" xmlns="http://www.w3.org/2000/svg">
<g clip-path="url(#clip0_57_4485)">
<path d="M10.48 12.1279C10.052 12.1279 9.70386 12.4761 9.70386 12.9041C9.70386 13.3321 10.052 13.6803 10.48 13.6803C10.908 13.6803 11.2562 13.3321 11.2562 12.9041C11.2562 12.4761 10.908 12.1279 10.48 12.1279ZM10.48 13.2115C10.3105 13.2115 10.1727 13.0736 10.1727 12.9041C10.1727 12.7346 10.3105 12.5967 10.48 12.5967C10.6495 12.5967 10.7874 12.7346 10.7874 12.9041C10.7874 13.0736 10.6495 13.2115 10.48 13.2115Z" fill="#BEAD8E"/>
<path d="M14.5194 15.1791H14.3699C14.402 15.044 14.3807 15.1429 14.387 12.7546C14.387 12.6251 14.282 12.5202 14.1526 12.5202C14.0231 12.5202 13.9182 12.6251 13.9182 12.7546V15.0384C13.9182 15.1147 13.8538 15.1791 13.7775 15.1791H7.18262C7.1064 15.1791 7.04197 15.1147 7.04197 15.0384C7.04197 14.662 7.04197 11.3062 7.04197 10.7702C7.04197 10.6939 7.10637 10.6295 7.18262 10.6295H13.7775C13.8537 10.6295 13.9182 10.6939 13.9182 10.7702V11.6607C13.9182 11.7902 14.0231 11.8951 14.1526 11.8951C14.2821 11.8951 14.387 11.7901 14.387 11.6607V10.7702C14.387 10.4341 14.1135 10.1607 13.7775 10.1607H8.80678L8.28403 9.98289C8.24453 9.96932 8.21803 9.9322 8.21803 9.89039V9.31589C9.06887 8.8102 9.61562 7.93989 9.71541 6.98967C10.4328 7.02292 10.9245 6.33795 10.6269 5.74395V3.83292C10.6269 2.45092 9.87528 1.97017 9.64566 1.85555C8.32134 0.274611 5.59168 0.0446112 3.91446 1.63342C3.75978 1.77867 3.86371 2.03873 4.075 2.03873C4.24765 2.03873 4.22131 1.91786 4.75493 1.57092C4.79446 1.54527 4.87109 1.50005 4.86793 1.50192C6.25012 0.672267 8.28903 0.926423 9.31691 2.19386C9.34322 2.22627 9.37525 2.25017 9.41437 2.2648C9.44475 2.27698 10.158 2.57717 10.158 3.83295V5.31245C10.028 5.25739 9.88541 5.22917 9.73341 5.23342V4.46667C9.73341 4.27217 9.58687 4.11142 9.39259 4.09267C8.99866 4.05464 8.7779 3.79795 8.66206 3.58936C8.51709 3.3283 8.171 3.26573 7.94409 3.45964C6.89887 4.35317 5.69543 4.39855 4.86978 4.27942C4.24412 4.18908 3.66581 4.61611 3.56524 5.2337C3.41349 5.22714 3.26349 5.25398 3.12565 5.31239C3.14034 4.58239 3.01637 3.79217 3.59465 2.78383C3.65906 2.67152 3.62021 2.5283 3.50796 2.46386C3.39562 2.39942 3.2524 2.4383 3.18799 2.55055C2.83531 3.16555 2.66478 3.87601 2.66021 4.38098C2.65437 4.53217 2.6579 4.47683 2.65687 5.74386C2.35881 6.33867 2.85249 7.02276 3.56834 6.98958C3.67106 7.96748 4.25062 8.86857 5.15325 9.36626V9.89029C5.15325 9.93207 5.12668 9.9692 5.08734 9.98273C4.15818 10.3076 5.25315 9.91257 2.81709 10.7764C2.60443 10.8395 2.65159 10.8231 2.56765 10.8573C2.04515 11.0768 1.72224 11.4964 1.61787 12.0125C0.886649 15.6853 0.91443 15.477 0.919399 15.6767C0.942212 16.2557 1.31259 16.5497 1.88296 16.5497C1.89224 16.5497 6.6899 16.5497 6.68559 16.5497C7.16115 16.5497 6.97825 16.5497 7.45378 16.5497C7.58328 16.5497 7.68819 16.4448 7.68819 16.3153C7.68819 16.1858 7.58325 16.0809 7.45378 16.0809H6.68562C6.35797 16.0809 6.24946 15.6479 6.4409 15.6479C6.96722 15.6479 14.2201 15.6479 14.5195 15.6479C14.7112 15.6479 14.6015 16.0809 14.2748 16.0809H8.54765C8.41815 16.0809 8.31325 16.1859 8.31325 16.3153C8.31325 16.4448 8.41819 16.5497 8.54765 16.5497H14.2746C14.72 16.5497 15.0823 16.1874 15.0823 15.742C15.0824 15.4316 14.8298 15.1791 14.5194 15.1791ZM9.73341 5.70239C10.0037 5.68811 10.2457 5.8702 10.2457 6.11176C10.2457 6.3557 10.0012 6.53533 9.73341 6.52117V5.70239ZM3.55024 6.52114C3.27996 6.53548 3.03793 6.35333 3.03793 6.11176C3.03793 5.86783 3.28249 5.6882 3.55024 5.70236V6.52114ZM4.02281 6.7902C4.01687 6.68173 4.01978 6.72095 4.01906 5.51279C4.02609 5.47342 3.96862 5.15123 4.25434 4.90376C4.40496 4.7733 4.6049 4.71492 4.80278 4.74345C5.72412 4.87655 7.07 4.82355 8.24869 3.81601L8.25215 3.81692C8.47856 4.22467 8.83584 4.48208 9.26456 4.54883C9.26456 6.66767 9.29203 6.87423 9.18669 7.29367C9.12187 7.55289 9.01003 7.81458 8.87397 8.0342C7.49834 10.2084 4.151 9.35367 4.02281 6.7902ZM3.06259 16.081H1.88287C1.48159 16.081 1.40965 15.8911 1.39184 15.7256C1.37327 15.5531 1.41152 15.4757 1.57293 14.6383H3.06259V16.081ZM6.44081 15.1791V15.1791C6.0599 15.1791 5.76106 15.548 5.92353 16.0097C5.93025 16.0288 5.94162 16.0579 5.95237 16.081H3.53143C3.53143 14.4589 3.53143 15.5219 3.53143 13.8716C3.53143 13.7421 3.42649 13.6372 3.29703 13.6372C3.16753 13.6372 3.06262 13.7421 3.06262 13.8716V14.1695H1.66627C2.10846 11.9502 2.08309 12.043 2.13131 11.9151C2.22781 11.6618 2.37156 11.5135 2.57784 11.3774C2.76124 11.2716 2.78203 11.2774 2.95421 11.2249C2.96662 11.2214 2.88381 11.2501 4.3054 10.7465C4.3054 10.7465 4.30546 10.7465 4.30553 10.7465L5.15456 10.4554C5.16025 10.8622 5.42087 11.2207 5.80737 11.3501C6.05206 11.432 6.30934 11.4772 6.57318 11.4853C6.58806 15.0522 6.55184 15.02 6.58956 15.1791H6.44081ZM6.57315 10.7701C6.57315 10.776 6.57315 11.0197 6.57315 11.0165C6.36015 11.0087 6.15303 10.9714 5.95622 10.9054C5.75681 10.8387 5.62284 10.6524 5.62284 10.4418C5.62228 9.87298 5.62375 10.2203 5.62196 9.57507C6.61237 9.91954 7.39184 9.64626 7.44481 9.64223L7.44428 9.64032L7.44743 9.63945L7.448 9.64135C7.52965 9.61479 7.55709 9.61676 7.74919 9.54286C7.74919 9.69832 7.74919 10.0016 7.74919 10.1605H7.18265C6.84659 10.1606 6.57315 10.434 6.57315 10.7701Z" fill="#BEAD8E"/>
</g>
<defs>
<clipPath id="clip0_57_4485">
<rect width="16" height="16" fill="white" transform="translate(0 0.549805)"/>
</clipPath>
</defs>
</svg>
