<svg width="288" height="72" viewBox="0 0 288 72" fill="none" xmlns="http://www.w3.org/2000/svg">
<g filter="url(#filter0_d_57_7695)">
<rect x="16" y="8" width="256" height="40" fill="white"/>
</g>
<path d="M45.2727 28.3636C45.5964 28.3636 45.9127 28.2677 46.1818 28.0879C46.4509 27.9081 46.6607 27.6525 46.7845 27.3535C46.9084 27.0545 46.9408 26.7255 46.8776 26.408C46.8145 26.0906 46.6587 25.799 46.4298 25.5702C46.201 25.3413 45.9094 25.1855 45.592 25.1224C45.2745 25.0592 44.9455 25.0916 44.6465 25.2155C44.3475 25.3393 44.0919 25.5491 43.9121 25.8182C43.7323 26.0873 43.6364 26.4036 43.6364 26.7273C43.6364 27.1613 43.8088 27.5775 44.1156 27.8844C44.4225 28.1912 44.8387 28.3636 45.2727 28.3636ZM45.2727 26.1818C45.3806 26.1818 45.4861 26.2138 45.5758 26.2737C45.6655 26.3337 45.7354 26.4189 45.7767 26.5185C45.8179 26.6182 45.8287 26.7279 45.8077 26.8337C45.7867 26.9395 45.7347 27.0367 45.6584 27.113C45.5821 27.1893 45.4849 27.2412 45.3791 27.2622C45.2733 27.2833 45.1637 27.2725 45.064 27.2312C44.9643 27.1899 44.8791 27.12 44.8192 27.0303C44.7593 26.9406 44.7273 26.8352 44.7273 26.7273C44.7273 26.5826 44.7847 26.4439 44.887 26.3416C44.9893 26.2393 45.1281 26.1818 45.2727 26.1818ZM52.3636 25.0909H48C47.8553 25.0909 47.7166 25.1484 47.6143 25.2507C47.512 25.353 47.4545 25.4917 47.4545 25.6364V28.9091H43.0909V24.5455C43.0909 24.4008 43.0334 24.2621 42.9311 24.1598C42.8289 24.0575 42.6901 24 42.5455 24C42.4008 24 42.2621 24.0575 42.1598 24.1598C42.0575 24.2621 42 24.4008 42 24.5455V31.6364C42 31.781 42.0575 31.9198 42.1598 32.0221C42.2621 32.1244 42.4008 32.1818 42.5455 32.1818C42.6901 32.1818 42.8289 32.1244 42.9311 32.0221C43.0334 31.9198 43.0909 31.781 43.0909 31.6364V30H52.9091V31.6364C52.9091 31.781 52.9666 31.9198 53.0689 32.0221C53.1711 32.1244 53.3099 32.1818 53.4545 32.1818C53.5992 32.1818 53.7379 32.1244 53.8402 32.0221C53.9425 31.9198 54 31.781 54 31.6364V26.7273C54 26.2933 53.8276 25.8771 53.5207 25.5702C53.2138 25.2633 52.7976 25.0909 52.3636 25.0909ZM52.9091 28.9091H48.5455V26.1818H52.3636C52.5083 26.1818 52.647 26.2393 52.7493 26.3416C52.8516 26.4439 52.9091 26.5826 52.9091 26.7273V28.9091Z" fill="#222222"/>
<path d="M79.95 29.3205C79.2432 29.3205 78.5363 29.6115 78.0789 30.1521C77.6631 30.651 76.9147 29.9857 77.3305 29.4868C77.9958 28.7384 78.9521 28.3226 79.95 28.3226C80.9479 28.3226 81.9043 28.7384 82.5695 29.4868C82.9853 29.9857 82.2369 30.651 81.8211 30.1521C81.3637 29.6115 80.6569 29.3205 79.95 29.3205ZM79.95 32.8132C79.4095 32.8132 78.9521 32.3558 78.9521 31.8153C78.9521 31.2747 79.4095 30.8173 79.95 30.8173C80.4905 30.8173 80.9479 31.2747 80.9479 31.8153C80.9479 32.3558 80.4905 32.8132 79.95 32.8132ZM79.95 26.8257C78.6195 26.8257 77.4137 27.2831 76.4573 28.2394C76.0415 28.6552 75.2515 28.0315 75.7505 27.5326C76.8731 26.4099 78.37 25.8278 79.95 25.8278C81.53 25.8278 83.0269 26.4099 84.1496 27.5326C84.6485 28.0315 83.8585 28.6552 83.4427 28.2394C82.4864 27.2831 81.2806 26.8257 79.95 26.8257ZM79.95 24.3309C78.0374 24.3309 76.2494 25.0378 74.8773 26.3267C74.3783 26.7841 73.6715 26.0773 74.1704 25.6199C75.7921 24.123 77.7879 23.333 79.95 23.333C82.1122 23.333 84.108 24.123 85.7296 25.6199C86.2285 26.0773 85.5217 26.7841 85.0227 26.3267C83.6506 25.0378 81.8627 24.3309 79.95 24.3309Z" fill="#222222"/>
<g clip-path="url(#clip0_57_7695)">
<path fill-rule="evenodd" clip-rule="evenodd" d="M107.756 26.2882L107.933 25.7573H107.636C107.368 25.7573 107.152 25.5403 107.152 25.2724C107.152 25.0045 107.368 24.7876 107.636 24.7876C107.933 24.7876 108.256 24.7876 108.256 24.7876C108.256 24.7876 108.488 24.0937 108.631 23.6646C108.697 23.4666 108.882 23.333 109.091 23.333C110.222 23.333 113.778 23.333 114.909 23.333C115.118 23.333 115.303 23.4666 115.369 23.6646L115.744 24.7876H116.364C116.632 24.7876 116.848 25.0045 116.848 25.2724C116.848 25.5403 116.632 25.7573 116.364 25.7573H116.067L116.244 26.2882C116.87 26.4501 117.333 27.0193 117.333 27.6966V32.0603C117.333 32.3282 117.116 32.5451 116.848 32.5451C116.552 32.5451 116.175 32.5451 115.879 32.5451C115.611 32.5451 115.394 32.3282 115.394 32.0603V31.5754H108.606V32.0603C108.606 32.3282 108.389 32.5451 108.121 32.5451C107.825 32.5451 107.448 32.5451 107.152 32.5451C106.884 32.5451 106.667 32.3282 106.667 32.0603C106.667 31.1381 106.667 29.0983 106.667 27.6966C106.667 27.0193 107.13 26.4501 107.756 26.2882ZM108.606 28.1815C108.874 28.1815 109.091 28.3985 109.091 28.6663C109.091 28.9342 108.874 29.1512 108.606 29.1512C108.183 29.1512 107.636 29.1512 107.636 29.1512V30.6057H109.276C109.276 30.6057 109.846 29.4666 110.112 28.9345C110.194 28.7701 110.362 28.6663 110.545 28.6663C111.208 28.6663 112.792 28.6663 113.455 28.6663C113.638 28.6663 113.806 28.7701 113.888 28.9345C114.154 29.4666 114.724 30.6057 114.724 30.6057H116.364V29.1512H115.394C115.126 29.1512 114.909 28.9342 114.909 28.6663C114.909 28.3985 115.126 28.1815 115.394 28.1815C115.817 28.1815 116.364 28.1815 116.364 28.1815V27.6966C116.364 27.4288 116.147 27.2118 115.879 27.2118C114.351 27.2118 109.649 27.2118 108.121 27.2118C107.853 27.2118 107.636 27.4288 107.636 27.6966V28.1815H108.606ZM113.155 29.636H110.845L110.36 30.6057H113.64L113.155 29.636ZM109.44 24.3027L108.794 26.2421H115.206L114.56 24.3027H109.44Z" fill="#222222"/>
</g>
<path d="M148.832 30.3689L147.408 29.5524L148.646 29.0087C148.818 28.9329 148.897 28.7312 148.822 28.5582C148.748 28.3908 148.54 28.3087 148.371 28.3824L146.67 29.1296L144.687 27.9923L146.661 26.8531L148.381 27.6021C148.556 27.6773 148.758 27.5912 148.83 27.4246C148.905 27.2516 148.825 27.0501 148.653 26.9753L147.397 26.4283L148.828 25.6021C148.907 25.5564 148.963 25.4827 148.987 25.3944C149.01 25.3062 148.998 25.2142 148.952 25.1352C148.861 24.9787 148.643 24.9192 148.486 25.0101L147.064 25.8307L147.216 24.4874C147.227 24.3963 147.201 24.3067 147.144 24.2349C147.087 24.1637 147.006 24.1189 146.916 24.1091C146.725 24.0864 146.557 24.2247 146.538 24.4111L146.345 26.2562L144.375 27.4021V25.1267L145.866 24.0127C145.936 23.9609 145.982 23.8844 145.995 23.7972C146.009 23.7061 145.985 23.6106 145.929 23.5351C145.82 23.3874 145.612 23.3536 145.463 23.4634L144.375 24.2751V22.6257C144.375 22.4244 144.177 22.2842 143.999 22.2842C143.822 22.2842 143.625 22.4244 143.625 22.6257V24.2651L142.553 23.4633C142.407 23.3544 142.193 23.3874 142.084 23.5349C142.027 23.6119 142.002 23.7089 142.016 23.8008C142.029 23.8867 142.074 23.9618 142.143 24.0119L143.625 25.1162V27.4009L141.685 26.2802L141.478 24.4338C141.458 24.2616 141.314 24.1317 141.144 24.1317C141.13 24.1317 141.116 24.1324 141.103 24.1342C140.919 24.1553 140.785 24.3247 140.805 24.5133L140.962 25.8568L139.507 25.0222C139.456 24.9928 139.397 24.9772 139.338 24.9772C139.216 24.9772 139.102 25.0429 139.042 25.1489C138.949 25.3108 139.005 25.5198 139.168 25.6153L140.632 26.4551L139.378 27.0058C139.295 27.0426 139.23 27.1096 139.197 27.1944C139.164 27.2794 139.166 27.3723 139.203 27.4554C139.275 27.6214 139.476 27.7062 139.653 27.6319L141.37 26.8779L143.317 27.9942L141.366 29.1206L139.663 28.3789C139.494 28.3056 139.287 28.3879 139.214 28.5558C139.138 28.7282 139.218 28.9301 139.391 29.0061L140.63 29.5456L139.177 30.3843C139.015 30.4793 138.959 30.6887 139.053 30.8511C139.113 30.9563 139.227 31.0217 139.349 31.0217C139.41 31.0217 139.469 31.0056 139.519 30.9759L140.982 30.1316L140.826 31.4943C140.816 31.5852 140.842 31.6744 140.9 31.7459C140.957 31.8171 141.038 31.8619 141.125 31.8714C141.139 31.8733 141.153 31.8737 141.167 31.8737C141.341 31.8737 141.487 31.7434 141.506 31.5697L141.702 29.7062L143.625 28.5878V30.8578L142.304 31.9624C142.163 32.0806 142.147 32.2962 142.268 32.4416C142.331 32.5199 142.431 32.5667 142.536 32.5667C142.63 32.5667 142.693 32.5262 142.741 32.4886L143.625 31.7469V33.3734C143.625 33.5747 143.822 33.7149 143.999 33.7149C144.177 33.7149 144.375 33.5747 144.375 33.3734V31.7359L145.273 32.4901C145.422 32.6104 145.625 32.5819 145.739 32.4431C145.797 32.3739 145.827 32.2881 145.825 32.2009C145.822 32.1063 145.781 32.0214 145.71 31.9621L144.375 30.8466V28.5824L146.338 29.7169L146.547 31.5807C146.567 31.7526 146.711 31.8822 146.882 31.8822C146.898 31.8822 146.908 31.8813 146.919 31.8797C147.009 31.8698 147.089 31.8251 147.146 31.7541C147.203 31.6823 147.229 31.5924 147.218 31.5011L147.06 30.1402L148.492 30.9616C148.544 30.9912 148.602 31.0068 148.662 31.0068C148.784 31.0068 148.898 30.9409 148.958 30.8349C149.051 30.6724 148.995 30.4633 148.832 30.3689Z" fill="#222222"/>
<path d="M174.051 27.1752L178.04 29.4783M175.191 24.5094L173.795 23.7034C173.63 23.608 173.419 23.6646 173.323 23.8298L170.79 28.2177C170.694 28.3829 170.751 28.5942 170.916 28.6896L172.312 29.4956C172.478 29.591 172.689 29.5344 172.784 29.3692L175.318 24.9813C175.413 24.8161 175.356 24.6048 175.191 24.5094ZM181.175 27.964L179.778 27.1579C179.613 27.0625 179.402 27.1191 179.307 27.2843L176.773 31.6722C176.678 31.8375 176.734 32.0487 176.9 32.1441L178.296 32.9502C178.461 33.0456 178.672 32.989 178.768 32.8237L181.301 28.4359C181.396 28.2706 181.34 28.0594 181.175 27.964ZM169.87 26.3568L171.252 23.9634C171.347 23.7982 171.558 23.7416 171.723 23.837L172.621 24.3551C172.786 24.4505 172.843 24.6618 172.747 24.827L171.366 27.2204C171.27 27.3857 171.059 27.4423 170.894 27.3469L169.996 26.8287C169.831 26.7333 169.774 26.522 169.87 26.3568ZM180.839 32.6901L182.221 30.2967C182.317 30.1315 182.26 29.9202 182.095 29.8248L181.197 29.3067C181.032 29.2113 180.821 29.2679 180.725 29.4331L179.343 31.8265C179.248 31.9917 179.305 32.203 179.47 32.2984L180.367 32.8166C180.533 32.912 180.744 32.8554 180.839 32.6901Z" stroke="#222222" stroke-linecap="round" stroke-linejoin="round"/>
<g clip-path="url(#clip1_57_7695)">
<path d="M205.333 28.6667V31.3333M210.667 23.3333V23.6667C210.667 24.0203 210.807 24.3594 211.057 24.6095C211.307 24.8595 211.646 25 212 25C212.354 25 212.693 25.1405 212.943 25.3905C213.193 25.6406 213.333 25.9797 213.333 26.3333V26.6667M202 22L214 34M211.333 31.3333H202.667C202.49 31.3333 202.32 31.2631 202.195 31.1381C202.07 31.013 202 30.8435 202 30.6667V29.3333C202 29.1565 202.07 28.987 202.195 28.8619C202.32 28.7369 202.49 28.6667 202.667 28.6667H208.667M211.333 28.6667H213.333C213.51 28.6667 213.68 28.7369 213.805 28.8619C213.93 28.987 214 29.1565 214 29.3333V30.6667C214 30.8533 213.923 31.022 213.8 31.1427L211.333 28.6667Z" stroke="#222222" stroke-linecap="round" stroke-linejoin="round"/>
</g>
<path d="M240.36 29.873L235.887 24.993H244.833L240.36 29.873ZM240.36 29.873C240.36 30.2797 240.36 33.533 240.36 33.533M238.733 33.533H241.987M237.513 26.6197H243.207M237.107 22.9597L239.953 26.6197M234.667 24.1797L239.14 21.333H235.887L234.667 24.1797Z" stroke="#222222" stroke-miterlimit="10" stroke-linecap="round" stroke-linejoin="round"/>
<defs>
<filter id="filter0_d_57_7695" x="0" y="0" width="288" height="72" filterUnits="userSpaceOnUse" color-interpolation-filters="sRGB">
<feFlood flood-opacity="0" result="BackgroundImageFix"/>
<feColorMatrix in="SourceAlpha" type="matrix" values="0 0 0 0 0 0 0 0 0 0 0 0 0 0 0 0 0 0 127 0" result="hardAlpha"/>
<feOffset dy="8"/>
<feGaussianBlur stdDeviation="8"/>
<feComposite in2="hardAlpha" operator="out"/>
<feColorMatrix type="matrix" values="0 0 0 0 0.541176 0 0 0 0 0.541176 0 0 0 0 0.541176 0 0 0 0.05 0"/>
<feBlend mode="normal" in2="BackgroundImageFix" result="effect1_dropShadow_57_7695"/>
<feBlend mode="normal" in="SourceGraphic" in2="effect1_dropShadow_57_7695" result="shape"/>
</filter>
<clipPath id="clip0_57_7695">
<rect width="16" height="16" fill="white" transform="translate(104 20)"/>
</clipPath>
<clipPath id="clip1_57_7695">
<rect width="16" height="16" fill="white" transform="translate(200 20)"/>
</clipPath>
</defs>
</svg>
