<svg width="16" height="17" viewBox="0 0 16 17" fill="none" xmlns="http://www.w3.org/2000/svg">
<g clip-path="url(#clip0_57_4350)">
<g clip-path="url(#clip1_57_4350)">
<path d="M8.20756 5.25841L10.0835 5.79955H10.0835C10.1447 5.81718 10.2069 5.82593 10.2688 5.82593C10.3797 5.82593 10.4895 5.79786 10.5894 5.74273C10.7449 5.65685 10.8576 5.51556 10.9069 5.34489C11.0085 4.99255 10.8045 4.62323 10.4522 4.5216L8.57625 3.98046C8.40571 3.93124 8.22597 3.95139 8.07043 4.03728C7.91491 4.12316 7.80215 4.26445 7.75293 4.43512C7.6513 4.7874 7.85525 5.15675 8.20756 5.25841ZM8.20331 4.56498C8.21785 4.5146 8.25113 4.47291 8.29704 4.44756C8.34298 4.42218 8.39602 4.41628 8.44637 4.43078L10.3223 4.97192C10.4263 5.00192 10.4865 5.11096 10.4565 5.21497C10.442 5.26535 10.4087 5.30704 10.3628 5.33239C10.3168 5.35776 10.2638 5.3637 10.2134 5.34917H10.2135L8.33751 4.80803C8.2335 4.77803 8.17331 4.66902 8.20331 4.56498Z" fill="#BEAD8E"/>
<path d="M14.8339 13.0848C14.7138 12.7681 14.4538 12.3729 13.8924 12.1372C14.1092 11.8664 14.3636 11.4068 14.3636 10.7399C14.3636 10.6105 14.2587 10.5056 14.1292 10.5056C13.9998 10.5056 13.8948 10.6105 13.8948 10.7399C13.8948 11.243 13.7173 11.5923 13.5595 11.8035C13.3559 11.3285 13.0047 10.9923 12.5429 10.8408C12.4975 10.8259 12.4512 10.8128 12.4043 10.8016V6.23396C12.4043 6.15771 12.3672 6.08626 12.3049 6.04235C12.2425 5.99844 12.1628 5.9876 12.0909 6.01329L11.8703 6.09223C12.0082 5.18715 11.9557 4.30783 11.7159 3.58004C11.426 2.70053 10.8843 2.10594 10.1906 1.9058C9.44252 1.68997 8.61432 1.95087 7.85857 2.64036C7.44832 3.01468 7.08503 3.49288 6.78791 4.04193L6.50764 3.59357C6.31097 3.27883 6.20702 2.91658 6.20702 2.54595V2.10979C6.45123 1.96271 6.61496 1.69503 6.61496 1.38975C6.6149 0.926619 6.23809 0.549805 5.77495 0.549805H3.10856C2.64543 0.549805 2.26862 0.926619 2.26862 1.38975C2.26862 1.69497 2.43229 1.96262 2.67646 2.10972V2.54598C2.67646 2.91661 2.57252 3.27889 2.37578 3.5937L2.20549 3.8665C2.13695 3.9763 2.17039 4.12087 2.28018 4.18944C2.39003 4.25798 2.53455 4.22454 2.60311 4.11475L2.77335 3.84203C3.01662 3.45275 3.14519 3.00458 3.14519 2.54601V2.22973H5.73823V2.54598C5.73823 3.00455 5.8668 3.45269 6.11011 3.84203L6.52899 4.51209C6.53471 4.52128 6.53996 4.53034 6.54549 4.53947C6.42345 4.81868 6.31747 5.11161 6.22993 5.41499C6.13733 5.7358 6.06798 6.06004 6.0225 6.38251L4.99101 6.01335C4.93994 5.99507 4.88412 5.99507 4.83306 6.01335L3.09772 6.63441L2.054 6.26084V5.55994C2.054 5.33013 2.09348 5.10452 2.17126 4.88935C2.21527 4.76762 2.15229 4.63326 2.03056 4.58926C1.90887 4.54528 1.77448 4.60823 1.73048 4.72996C1.63412 4.99639 1.58528 5.27566 1.58528 5.55994V6.09308L1.36241 6.01332C1.29062 5.98763 1.21084 5.99844 1.14849 6.04238C1.08617 6.08629 1.04907 6.15774 1.04907 6.234V16.3149C1.04907 16.4443 1.15399 16.5492 1.28344 16.5492C1.28344 16.5492 12.1188 16.5506 12.1548 16.5492H12.1699C12.1815 16.5492 12.1929 16.5481 12.204 16.5465C12.7269 16.518 13.2464 16.3476 13.702 16.0291C13.8081 15.955 13.8339 15.8089 13.7597 15.7028C13.6856 15.5967 13.5394 15.5708 13.4334 15.645C12.5169 16.2857 11.2931 16.2125 10.4578 15.488C10.9492 14.9252 11.2177 14.2124 11.2177 13.4582C11.2177 12.8081 11.0183 12.1888 10.6486 11.6699C11.204 11.272 11.8836 11.1178 12.3969 11.2862C12.8199 11.425 13.1077 11.7743 13.2291 12.2963C13.2493 12.3833 13.3173 12.4512 13.4043 12.4714C13.9035 12.5876 14.2463 12.8572 14.3957 13.251C14.5889 13.7604 14.4484 14.4633 14.0378 15.0418C13.9629 15.1473 13.9877 15.2936 14.0933 15.3686C14.1344 15.3978 14.1818 15.4118 14.2287 15.4118C14.302 15.4118 14.3744 15.3775 14.42 15.3131C14.9261 14.5999 15.0847 13.7461 14.8339 13.0848ZM3.10856 1.01853H5.77492C5.97959 1.01853 6.14614 1.18505 6.14614 1.38975C6.14614 1.59446 5.97963 1.76097 5.77492 1.76097H3.10856C2.90389 1.76097 2.73734 1.59446 2.73734 1.38975C2.73734 1.18505 2.90389 1.01853 3.10856 1.01853ZM6.68025 5.5449C6.98203 4.49897 7.51267 3.59042 8.17441 2.98665C8.80518 2.41116 9.4749 2.1872 10.0606 2.35618C10.601 2.5121 11.0307 2.99883 11.2706 3.7268C11.5097 4.45215 11.5414 5.35214 11.3629 6.27381L10.3552 6.63441L8.61957 6.01332C8.56848 5.99504 8.51272 5.99504 8.46162 6.01332L6.72628 6.63441L6.47389 6.54409C6.51555 6.21187 6.58452 5.87662 6.68025 5.5449ZM9.76489 16.0805C9.88962 16.0022 10.0093 15.9146 10.123 15.818C10.2319 15.9149 10.3465 16.0025 10.4658 16.0805H9.76489ZM9.98079 15.3124C9.48549 15.8077 8.827 16.0805 8.12653 16.0805C7.4261 16.0805 6.76757 15.8077 6.27228 15.3124C5.656 14.6961 5.35945 13.7974 5.55109 13.1267C5.69073 12.6381 6.07551 12.3075 6.66381 12.1706C6.75079 12.1503 6.8187 12.0824 6.83895 11.9954C6.97587 11.4071 7.30652 11.0223 7.79516 10.8827C7.93158 10.8437 8.07743 10.8249 8.22842 10.8249C8.81972 10.8249 9.48987 11.113 9.98075 11.6038C10.4761 12.0991 10.7489 12.7577 10.7489 13.4581C10.7489 14.1586 10.4761 14.8171 9.98079 15.3124ZM10.3123 11.2724C9.56953 10.5298 8.50625 10.192 7.6664 10.432C7.13201 10.5848 6.72953 10.9594 6.50498 11.5035C6.32991 11.2769 6.12358 10.8908 6.12358 10.3282C6.12358 10.1988 6.01866 10.0939 5.88921 10.0939C5.75976 10.0939 5.65485 10.1988 5.65485 10.3282C5.65485 11.0553 5.938 11.551 6.17189 11.8366C5.62775 12.0611 5.25313 12.4636 5.10042 12.998C4.8604 13.8379 5.19815 14.9011 5.94084 15.6439C6.10854 15.8116 6.29218 15.9575 6.48823 16.0805H1.51777V6.56678L3.01874 7.10398C3.06981 7.12226 3.12563 7.12226 3.17669 7.10398L4.91203 6.48289L6.64737 7.10398C6.69844 7.12226 6.75426 7.12226 6.80532 7.10398L8.54066 6.48289L10.2763 7.10398C10.3273 7.12223 10.3831 7.12226 10.4342 7.10398L11.9355 6.56674V10.7496C11.406 10.7521 10.8372 10.9488 10.3478 11.3089C10.336 11.2967 10.3243 11.2845 10.3123 11.2724Z" fill="#BEAD8E"/>
</g>
</g>
<defs>
<clipPath id="clip0_57_4350">
<rect width="16" height="16" fill="white" transform="translate(0 0.549805)"/>
</clipPath>
<clipPath id="clip1_57_4350">
<rect width="16" height="16" fill="white" transform="translate(0 0.549805)"/>
</clipPath>
</defs>
</svg>
