<svg width="21" height="17" viewBox="0 0 21 17" fill="none" xmlns="http://www.w3.org/2000/svg">
<path d="M7.07643 6.76238L13.0599 10.2169M8.78676 2.76364L6.69255 1.55455C6.44471 1.41145 6.12779 1.49637 5.9847 1.74421L2.1847 8.32601C2.0416 8.57387 2.12653 8.89077 2.37437 9.03386L4.46858 10.2429C4.71642 10.386 5.03332 10.3011 5.17643 10.0533L8.97643 3.47149C9.11952 3.22364 9.0346 2.90673 8.78676 2.76364ZM17.7619 7.94545L15.6677 6.73636C15.4199 6.59326 15.103 6.67819 14.9599 6.92603L11.1599 13.5078C11.0168 13.7557 11.1017 14.0726 11.3495 14.2157L13.4437 15.4248C13.6916 15.5679 14.0085 15.483 14.1516 15.2351L17.9516 8.6533C18.0947 8.40546 18.0098 8.08856 17.7619 7.94545ZM0.804545 5.53469L2.87727 1.94462C3.02036 1.69678 3.33728 1.61186 3.58512 1.75495L4.9314 2.53223C5.17924 2.67532 5.26416 2.99223 5.12107 3.24008L3.04834 6.83015C2.90523 7.07801 2.58833 7.16291 2.34049 7.01981L0.994212 6.24254C0.74637 6.09945 0.66144 5.78256 0.804545 5.53469ZM17.259 15.0347L19.3318 11.4446C19.4748 11.1968 19.39 10.8799 19.1421 10.7368L17.7958 9.9595C17.5479 9.81639 17.2311 9.90133 17.088 10.1492L15.0152 13.7392C14.8721 13.9871 14.957 14.304 15.2049 14.4471L16.5512 15.2244C16.799 15.3675 17.1159 15.2826 17.259 15.0347Z" stroke="#222222" stroke-width="1.25" stroke-linecap="round" stroke-linejoin="round"/>
</svg>
