<svg width="16" height="17" viewBox="0 0 16 17" fill="none" xmlns="http://www.w3.org/2000/svg">
<g clip-path="url(#clip0_57_4420)">
<g clip-path="url(#clip1_57_4420)">
<path d="M15.6875 6.4248H12.6562C12.4836 6.4248 12.3438 6.5647 12.3438 6.7373C12.3438 6.90991 12.4836 7.0498 12.6562 7.0498H15.375V9.6748H7.125V7.0498H9.84375C10.0164 7.0498 10.1562 6.90991 10.1562 6.7373C10.1562 6.5647 10.0164 6.4248 9.84375 6.4248H5.46521C5.78296 5.94629 5.97571 5.39746 6.02686 4.81946H6.21472C6.38733 4.81946 6.52722 4.67944 6.52722 4.50696C6.52722 4.33435 6.38733 4.19446 6.21472 4.19446H6.04089V3.9873C6.04089 3.8147 5.901 3.6748 5.72839 3.6748H1.39661C1.224 3.6748 1.08411 3.8147 1.08411 3.9873V4.19446H0.910278C0.737671 4.19446 0.597778 4.33435 0.597778 4.50696C0.597778 4.67944 0.737671 4.81946 0.910278 4.81946H1.09778C1.14856 5.39734 1.3407 5.94629 1.65759 6.4248H0.3125C0.139893 6.4248 0 6.5647 0 6.7373V16.2373C0 16.4099 0.139893 16.5498 0.3125 16.5498H15.6875C15.8601 16.5498 16 16.4099 16 16.2373V6.7373C16 6.5647 15.8601 6.4248 15.6875 6.4248ZM1.70911 4.51013V4.2998H5.41589V4.50696C5.41589 5.22266 5.15356 5.89893 4.67468 6.4248H2.44739C1.97034 5.89929 1.70911 5.22437 1.70911 4.51013ZM2.31323 7.0498H6.5V9.6748H0.625V7.0498H2.31323ZM0.625 10.2998H6.5V15.9248H0.625V10.2998ZM7.125 10.2998H10.9375V15.9248H7.125V10.2998ZM11.5625 15.9248V10.2998H15.375V15.9248H11.5625Z" fill="#BEAD8E"/>
<path d="M10.7812 8.3623C10.7812 8.53491 10.9211 8.6748 11.0938 8.6748H11.4062C11.5789 8.6748 11.7188 8.53491 11.7188 8.3623C11.7188 8.1897 11.5789 8.0498 11.4062 8.0498H11.0938C10.9211 8.0498 10.7812 8.1897 10.7812 8.3623Z" fill="#BEAD8E"/>
<path d="M2.0625 8.6748C2.14465 8.6748 2.22534 8.64136 2.28345 8.58325C2.34155 8.52515 2.375 8.44446 2.375 8.3623C2.375 8.28015 2.34155 8.19946 2.28345 8.14136C2.22534 8.08325 2.14465 8.0498 2.0625 8.0498C1.98022 8.0498 1.89966 8.08325 1.84155 8.14136C1.78345 8.19946 1.75 8.28015 1.75 8.3623C1.75 8.44446 1.78345 8.52515 1.84155 8.58325C1.89966 8.64136 1.98022 8.6748 2.0625 8.6748Z" fill="#BEAD8E"/>
<path d="M3.5625 8.6748C3.64465 8.6748 3.72534 8.64136 3.78345 8.58325C3.84155 8.52515 3.875 8.44446 3.875 8.3623C3.875 8.28015 3.84155 8.19946 3.78345 8.14136C3.72534 8.08325 3.64465 8.0498 3.5625 8.0498C3.47998 8.0498 3.39966 8.08325 3.34155 8.14136C3.28345 8.19946 3.25 8.28015 3.25 8.3623C3.25 8.44446 3.28345 8.52515 3.34155 8.58325C3.39966 8.64136 3.48022 8.6748 3.5625 8.6748Z" fill="#BEAD8E"/>
<path d="M5.0625 8.6748C5.14465 8.6748 5.22534 8.64136 5.28345 8.58325C5.34155 8.52515 5.375 8.44446 5.375 8.3623C5.375 8.28015 5.34155 8.19946 5.28345 8.14136C5.22534 8.08325 5.14465 8.0498 5.0625 8.0498C4.97998 8.0498 4.89966 8.08325 4.84155 8.14136C4.78308 8.19946 4.75 8.28015 4.75 8.3623C4.75 8.44446 4.78308 8.52515 4.84155 8.58325C4.89966 8.64136 4.97998 8.6748 5.0625 8.6748Z" fill="#BEAD8E"/>
<path d="M12.6418 12.6436C12.4692 12.6436 12.3293 12.7834 12.3293 12.9561V13.2686C12.3293 13.4412 12.4692 13.5811 12.6418 13.5811C12.8145 13.5811 12.9543 13.4412 12.9543 13.2686V12.9561C12.9543 12.7834 12.8145 12.6436 12.6418 12.6436Z" fill="#BEAD8E"/>
<path d="M9.85815 12.6436C9.68555 12.6436 9.54565 12.7834 9.54565 12.9561V13.2686C9.54565 13.4412 9.68555 13.5811 9.85815 13.5811C10.0308 13.5811 10.1707 13.4412 10.1707 13.2686V12.9561C10.1707 12.7834 10.0308 12.6436 9.85815 12.6436Z" fill="#BEAD8E"/>
<path d="M5.5625 10.7998H1.5625C1.38989 10.7998 1.25 10.9397 1.25 11.1123V15.1123C1.25 15.2849 1.38989 15.4248 1.5625 15.4248H5.5625C5.73511 15.4248 5.875 15.2849 5.875 15.1123V11.1123C5.875 10.9397 5.73511 10.7998 5.5625 10.7998ZM3.31653 11.4248L1.875 12.8663V11.4248H3.31653ZM1.875 13.7501L4.20032 11.4248H5.25V11.8829L2.33313 14.7998H1.875V13.7501ZM3.21704 14.7998L5.25 12.7668V14.7998H3.21704Z" fill="#BEAD8E"/>
<path d="M7.99609 1.7998H11.6211V3.47168C11.1874 3.60547 10.8711 4.01013 10.8711 4.48718C10.8711 5.07312 11.3478 5.54968 11.9336 5.54968C12.5195 5.54968 12.9961 5.07312 12.9961 4.48718C12.9961 4.01013 12.6799 3.60547 12.2461 3.47168V1.7998H14.6211V3.47168C14.1874 3.60547 13.8711 4.01013 13.8711 4.48718C13.8711 5.07312 14.3478 5.54968 14.9336 5.54968C15.5195 5.54968 15.9961 5.07312 15.9961 4.48718C15.9961 4.01013 15.6799 3.60547 15.2461 3.47168V1.7998H15.6836C15.8562 1.7998 15.9961 1.65991 15.9961 1.4873C15.9961 1.3147 15.8562 1.1748 15.6836 1.1748H15.2461V0.862305C15.2461 0.689697 15.1062 0.549805 14.9336 0.549805C14.7611 0.549805 14.6211 0.689697 14.6211 0.862305V1.1748H12.2461V0.862305C12.2461 0.689697 12.1062 0.549805 11.9336 0.549805C11.7611 0.549805 11.6211 0.689697 11.6211 0.862305V1.1748H7.99609C7.82361 1.1748 7.68359 1.3147 7.68359 1.4873C7.68359 1.65991 7.82361 1.7998 7.99609 1.7998ZM11.9336 4.92468C11.6924 4.92468 11.4961 4.72852 11.4961 4.48718C11.4961 4.24597 11.6924 4.04968 11.9336 4.04968C12.1749 4.04968 12.3711 4.24597 12.3711 4.48718C12.3711 4.72852 12.1749 4.92468 11.9336 4.92468ZM14.9336 4.92468C14.6924 4.92468 14.4961 4.72852 14.4961 4.48718C14.4961 4.24597 14.6924 4.04968 14.9336 4.04968C15.1749 4.04968 15.3711 4.24597 15.3711 4.48718C15.3711 4.72852 15.1749 4.92468 14.9336 4.92468Z" fill="#BEAD8E"/>
<path d="M11.4709 6.95825C11.5291 6.90015 11.5625 6.81946 11.5625 6.7373C11.5625 6.65515 11.5291 6.57446 11.4709 6.51636C11.4128 6.45825 11.3322 6.4248 11.25 6.4248C11.1675 6.4248 11.0872 6.45825 11.0291 6.51636C10.9709 6.57446 10.9375 6.65515 10.9375 6.7373C10.9375 6.81946 10.9709 6.90015 11.0291 6.95825C11.0872 7.01636 11.1675 7.0498 11.25 7.0498C11.3322 7.0498 11.4128 7.01636 11.4709 6.95825Z" fill="#BEAD8E"/>
</g>
</g>
<defs>
<clipPath id="clip0_57_4420">
<rect width="16" height="16" fill="white" transform="translate(0 0.549805)"/>
</clipPath>
<clipPath id="clip1_57_4420">
<rect width="16" height="16" fill="white" transform="translate(0 0.549805)"/>
</clipPath>
</defs>
</svg>
