<svg width="20" height="20" viewBox="0 0 20 20" fill="none" xmlns="http://www.w3.org/2000/svg">
<path d="M6 11V15M14 3V3.5C14 4.03043 14.2107 4.53914 14.5858 4.91421C14.9609 5.28929 15.4696 5.5 16 5.5C16.5304 5.5 17.0391 5.71071 17.4142 6.08579C17.7893 6.46086 18 6.96957 18 7.5V8M1 1L19 19M15 15H2C1.73478 15 1.48043 14.8946 1.29289 14.7071C1.10536 14.5196 1 14.2652 1 14V12C1 11.7348 1.10536 11.4804 1.29289 11.2929C1.48043 11.1054 1.73478 11 2 11H11M15 11H18C18.2652 11 18.5196 11.1054 18.7071 11.2929C18.8946 11.4804 19 11.7348 19 12V14C19 14.28 18.885 14.533 18.7 14.714L15 11Z" stroke="#222222" stroke-width="1.4" stroke-linecap="round" stroke-linejoin="round"/>
</svg>
