<svg width="16" height="17" viewBox="0 0 16 17" fill="none" xmlns="http://www.w3.org/2000/svg">
<g clip-path="url(#clip0_57_4475)">
<path d="M14.8764 7.52515C14.8151 5.7799 14.1084 4.1479 12.8674 2.9069C11.5666 1.6059 9.83789 0.889648 7.99989 0.889648C4.28764 0.889648 1.25439 3.8444 1.12364 7.52515C0.557144 7.7769 0.160645 8.3439 0.160645 9.0029V10.8184C0.160645 11.7099 0.885894 12.4354 1.77764 12.4354C2.35464 12.4354 2.82389 11.9661 2.82389 11.3891V8.4319C2.82389 7.89015 2.40839 7.4484 1.88014 7.3959C2.07514 4.18915 4.74464 1.63965 7.99989 1.63965C9.63789 1.63965 11.1781 2.27815 12.3374 3.4374C13.4019 4.5019 14.0249 5.8894 14.1186 7.39615C13.5909 7.44915 13.1761 7.89065 13.1761 8.4319V11.3889C13.1761 11.9351 13.5981 12.3796 14.1326 12.4259V13.1731C14.1326 14.0146 13.4479 14.6991 12.6064 14.6991H11.4761C11.4206 14.5406 11.3336 14.3941 11.2116 14.2726C10.9979 14.0579 10.7129 13.9396 10.4094 13.9396H9.24439C9.07714 13.9396 8.91664 13.9751 8.76964 14.0436C8.36864 14.2279 8.10964 14.6324 8.10964 15.0741C8.10964 15.3776 8.22789 15.6626 8.44214 15.8759C8.65639 16.0906 8.94139 16.2089 9.24439 16.2089H10.4094C10.8924 16.2089 11.3181 15.8966 11.4769 15.4491H12.6064C13.8616 15.4491 14.8826 14.4281 14.8826 13.1731V12.2924C15.4456 12.0391 15.8391 11.4741 15.8391 10.8179V9.0024C15.8391 8.3439 15.4426 7.7769 14.8764 7.52515ZM2.07364 8.4319V11.3889C2.07364 11.5521 1.94089 11.6851 1.77739 11.6851C1.29939 11.6851 0.910394 11.2961 0.910394 10.8181V9.00265C0.910394 8.5244 1.29939 8.13565 1.77739 8.13565C1.94089 8.13565 2.07364 8.26865 2.07364 8.4319ZM10.7856 15.1546C10.7484 15.3311 10.5899 15.4594 10.4091 15.4594H9.24414C9.14164 15.4594 9.04539 15.4194 8.97189 15.3459C8.89939 15.2736 8.85939 15.1771 8.85939 15.0746C8.85939 14.9249 8.94714 14.7881 9.08464 14.7249C9.13364 14.7019 9.18739 14.6901 9.24414 14.6901H10.4091C10.5116 14.6901 10.6079 14.7299 10.6811 14.8034C10.7536 14.8756 10.7936 14.9721 10.7936 15.0746C10.7939 15.1021 10.7909 15.1296 10.7856 15.1546ZM15.0891 10.8181C15.0891 11.2961 14.7001 11.6851 14.2221 11.6851C14.0589 11.6851 13.9259 11.5524 13.9259 11.3889V8.4319C13.9259 8.26865 14.0586 8.13565 14.2221 8.13565C14.7001 8.13565 15.0891 8.52465 15.0891 9.00265V10.8181Z" fill="#BEAD8E"/>
<path d="M10.4282 10.947C11.3044 10.947 12.0172 10.234 12.0172 9.358V6.12025C12.0172 5.69675 11.8517 5.29775 11.5512 4.99725C11.2507 4.69675 10.8519 4.53125 10.4282 4.53125H5.57167C4.69542 4.53125 3.98267 5.244 3.98267 6.12025V9.358C3.98267 10.2342 4.69542 10.947 5.57167 10.947H5.60142V11.786C5.60142 12.106 5.79217 12.39 6.08717 12.5097C6.18242 12.548 6.28142 12.567 6.37942 12.567C6.58367 12.567 6.78267 12.486 6.92842 12.3352L8.32417 10.947H10.4282ZM7.90542 10.306L6.39492 11.8082C6.38817 11.8152 6.38317 11.8205 6.36892 11.8142C6.35167 11.8072 6.35167 11.796 6.35167 11.786V10.572C6.35167 10.365 6.18392 10.197 5.97667 10.197H5.57192C5.10917 10.197 4.73292 9.82049 4.73292 9.358V6.12025C4.73292 5.6575 5.10917 5.28125 5.57192 5.28125H10.4284C10.6519 5.28125 10.8622 5.36875 11.0212 5.5275C11.1802 5.6865 11.2674 5.897 11.2674 6.12025V9.358C11.2674 9.82074 10.8909 10.197 10.4284 10.197H8.16992C8.07067 10.197 7.97567 10.2362 7.90542 10.306Z" fill="#BEAD8E"/>
<path d="M6.17825 7.24609C5.87325 7.24609 5.625 7.49459 5.625 7.79934C5.625 8.10409 5.8735 8.35259 6.17825 8.35259C6.4835 8.35259 6.732 8.10409 6.732 7.79934C6.732 7.49459 6.48375 7.24609 6.17825 7.24609Z" fill="#BEAD8E"/>
<path d="M7.99954 7.24609C7.69454 7.24609 7.44629 7.49459 7.44629 7.79934C7.44629 8.10409 7.69479 8.35259 7.99954 8.35259C8.30504 8.35259 8.55329 8.10409 8.55329 7.79934C8.55329 7.49459 8.30504 7.24609 7.99954 7.24609Z" fill="#BEAD8E"/>
<path d="M9.82107 7.24609C9.51607 7.24609 9.26782 7.49459 9.26782 7.79934C9.26782 8.10409 9.51632 8.35259 9.82107 8.35259C10.1263 8.35259 10.3748 8.10409 10.3748 7.79934C10.3748 7.49459 10.1263 7.24609 9.82107 7.24609Z" fill="#BEAD8E"/>
</g>
<defs>
<clipPath id="clip0_57_4475">
<rect width="16" height="16" fill="white" transform="translate(0 0.549805)"/>
</clipPath>
</defs>
</svg>
