<svg width="16" height="17" viewBox="0 0 16 17" fill="none" xmlns="http://www.w3.org/2000/svg">
<g clip-path="url(#clip0_57_4358)">
<path d="M15.6875 13.4456H15.0676V7.08245C15.4328 6.80089 15.6686 6.35914 15.6686 5.86336V4.18835C15.6686 4.18542 15.6669 4.11532 15.6438 4.06517L14.6519 1.5842C14.6044 1.46551 14.4895 1.3877 14.3617 1.3877H1.63828C1.51047 1.3877 1.39556 1.46551 1.34809 1.5842L0.35625 4.06517C0.333094 4.11001 0.331437 4.18542 0.331437 4.18835V5.86336C0.331437 6.35914 0.567187 6.80089 0.932437 7.08245V13.4456H0.3125C0.139906 13.4456 0 13.5855 0 13.7581V15.3988C0 15.5714 0.139906 15.7113 0.3125 15.7113H6.58731C6.75991 15.7113 6.89981 15.5714 6.89981 15.3988C6.89981 15.2262 6.75991 15.0863 6.58731 15.0863H0.625V14.0706H15.375V15.0863H9.41272C9.24012 15.0863 9.10022 15.2262 9.10022 15.3988C9.10022 15.5714 9.24012 15.7113 9.41272 15.7113H15.6875C15.8601 15.7113 16 15.5714 16 15.3988V13.7581C16 13.5855 15.8601 13.4456 15.6875 13.4456ZM12.5915 5.86336C12.5915 6.36708 12.1817 6.77686 11.678 6.77686C11.1743 6.77686 10.7645 6.36704 10.7645 5.86336V4.49992H12.5915V5.86336ZM10.1395 5.86336C10.1395 6.36708 9.72972 6.77686 9.22603 6.77686C8.72234 6.77686 8.3125 6.36708 8.3125 5.86336V4.49992H10.1395V5.86336ZM7.6875 5.86336C7.6875 6.36708 7.27769 6.77686 6.774 6.77686C6.27031 6.77686 5.8605 6.36704 5.8605 5.86336V4.49992H7.6875V5.86336ZM5.2355 5.86336C5.2355 6.36708 4.82569 6.77686 4.322 6.77686C3.81831 6.77686 3.4085 6.36704 3.4085 5.86336V4.49992H5.23553V5.86336H5.2355ZM0.956438 5.86336V4.49992H2.78344V5.86336C2.78344 6.36708 2.37363 6.77686 1.86994 6.77686C1.36625 6.77686 0.956438 6.36708 0.956438 5.86336ZM5.52253 2.0127L5.27437 3.87492H3.50266L3.99897 2.0127H5.52253ZM8.3125 2.0127H9.84694L10.0951 3.87492H8.3125V2.0127ZM12.001 2.0127L12.4973 3.87492H10.7257L10.4775 2.0127H12.001ZM13.2165 4.49992H15.0435V5.86336C15.0435 6.36708 14.6337 6.77686 14.13 6.77686C13.6263 6.77686 13.2165 6.36704 13.2165 5.86336V4.49992ZM14.8946 3.87492H13.1441L12.6478 2.0127H14.1501L14.8946 3.87492ZM7.6875 3.87492H5.90491L6.15306 2.0127H7.6875V3.87492ZM1.84991 2.0127H3.35216L2.85584 3.87492H1.10544L1.84991 2.0127ZM3.05628 13.4456V8.89767H6.28944V13.4456H3.05628V13.4456ZM6.91444 13.4456V8.58517C6.91444 8.41258 6.77453 8.27267 6.60194 8.27267H2.74378C2.57119 8.27267 2.43128 8.41258 2.43128 8.58517V13.4456H1.55744V7.36995C1.65838 7.39086 1.76291 7.40186 1.86994 7.40186C2.36981 7.40186 2.81472 7.1622 3.09594 6.79179C3.37713 7.1622 3.82206 7.40186 4.32194 7.40186C4.82181 7.40186 5.26675 7.1622 5.54794 6.79179C5.82912 7.1622 6.27406 7.40186 6.77394 7.40186C7.27381 7.40186 7.71875 7.1622 7.99994 6.79179C8.28113 7.1622 8.72606 7.40186 9.22594 7.40186C9.72581 7.40186 10.1708 7.1622 10.4519 6.79179C10.7331 7.1622 11.1781 7.40186 11.6779 7.40186C12.1778 7.40186 12.6228 7.1622 12.9039 6.79179C13.1851 7.1622 13.6301 7.40186 14.1299 7.40186C14.237 7.40186 14.3415 7.39086 14.4424 7.36995V13.4456H6.91444V13.4456Z" fill="#BEAD8E"/>
<path d="M13.2563 8.27246H8.39722C8.22462 8.27246 8.08472 8.41237 8.08472 8.58496V11.9839C8.08472 12.1565 8.22462 12.2964 8.39722 12.2964H13.2563C13.4289 12.2964 13.5688 12.1565 13.5688 11.9839V8.58496C13.5688 8.41237 13.4289 8.27246 13.2563 8.27246ZM12.9438 11.6714H10.7986L11.3254 11.1446C11.4474 11.0226 11.4474 10.8247 11.3254 10.7026C11.2033 10.5806 11.0055 10.5806 10.8834 10.7026L9.91465 11.6714H8.70969V8.89746H12.9437V11.6714H12.9438Z" fill="#BEAD8E"/>
<path d="M9.45703 11.0785C9.37706 11.0785 9.29706 11.048 9.23606 10.987C9.11402 10.865 9.11402 10.6671 9.23606 10.545L10.4806 9.30051C10.6026 9.17848 10.8005 9.17848 10.9226 9.30051C11.0446 9.42254 11.0446 9.62042 10.9226 9.74248L9.67803 10.987C9.61696 11.048 9.537 11.0785 9.45703 11.0785Z" fill="#BEAD8E"/>
<path d="M8.00551 15.7113C7.87304 15.7113 7.75245 15.6242 7.70989 15.4991C7.66845 15.3774 7.70795 15.239 7.80726 15.1573C7.90923 15.0734 8.05829 15.0634 8.17041 15.1333C8.27954 15.2014 8.33744 15.3334 8.31207 15.4597C8.2831 15.6039 8.15282 15.7113 8.00551 15.7113Z" fill="#BEAD8E"/>
</g>
<defs>
<clipPath id="clip0_57_4358">
<rect width="16" height="16" fill="white" transform="translate(0 0.549805)"/>
</clipPath>
</defs>
</svg>
