<svg width="16" height="17" viewBox="0 0 16 17" fill="none" xmlns="http://www.w3.org/2000/svg">
<g clip-path="url(#clip0_57_4435)">
<g clip-path="url(#clip1_57_4435)">
<g clip-path="url(#clip2_57_4435)">
<path d="M10.7707 9.89062C10.6885 9.89062 10.6079 9.92375 10.5498 9.98187C10.4917 10.0403 10.4583 10.1209 10.4583 10.2031C10.4583 10.2853 10.4917 10.3659 10.5498 10.424C10.6079 10.4821 10.6885 10.5156 10.7707 10.5156C10.8529 10.5156 10.9335 10.4821 10.9916 10.424C11.0497 10.3659 11.0832 10.2853 11.0832 10.2031C11.0832 10.1209 11.0498 10.0403 10.9916 9.98187C10.9335 9.92372 10.8529 9.89062 10.7707 9.89062Z" fill="#BEAD8E"/>
<path d="M15.9994 9.51571C15.9994 9.07349 15.7107 8.69761 15.312 8.56605V2.23719C15.312 1.30679 14.555 0.549805 13.6246 0.549805H12.9603C12.1267 0.549805 11.4328 1.15764 11.2973 1.95331C10.6264 2.08755 10.1192 2.6811 10.1192 3.39096V3.73709C10.1192 3.90964 10.2592 4.04957 10.4317 4.04957H12.7393C12.9118 4.04957 13.0517 3.90964 13.0517 3.73709V3.39096C13.0517 2.70219 12.5742 2.12317 11.933 1.96668C12.0529 1.51146 12.468 1.17476 12.9603 1.17476H13.6246C14.2104 1.17476 14.687 1.65136 14.687 2.23719V8.51578H7.97215C7.79569 8.36035 7.56446 8.26579 7.31138 8.26579H4.56381C4.31073 8.26579 4.0795 8.36035 3.90304 8.51578H1.00042C0.449052 8.51578 0.000488281 8.96434 0.000488281 9.51571C0.000488281 9.95793 0.289188 10.3338 0.687943 10.4654V11.6927C0.687943 12.6156 1.01164 13.4643 1.5512 14.1315L1.03126 15.0692C0.769375 15.5416 0.936864 16.1456 1.40465 16.4158C1.55839 16.5046 1.72862 16.5498 1.90121 16.5498C1.99083 16.5498 2.0811 16.5376 2.16997 16.5129C2.42983 16.4406 2.64484 16.2709 2.77537 16.0348L3.17243 15.3164C3.60719 15.4851 4.0795 15.5778 4.57309 15.5778H11.4268C11.9204 15.5778 12.3927 15.4851 12.8275 15.3164L13.2245 16.0348C13.3551 16.2709 13.5701 16.4407 13.83 16.5129C13.9188 16.5376 14.009 16.5498 14.0987 16.5498C14.2712 16.5498 14.4415 16.5045 14.5953 16.4158C15.0631 16.1457 15.2305 15.5416 14.9687 15.0692L14.4487 14.1315C14.9883 13.4643 15.312 12.6156 15.312 11.6927V10.4654C15.7107 10.3338 15.9994 9.95793 15.9994 9.51571ZM12.4268 3.39096V3.42461H10.7442V3.39096C10.7442 2.92705 11.1216 2.54967 11.5854 2.54967C12.0493 2.54967 12.4268 2.92705 12.4268 3.39096ZM4.56381 8.89075H7.31138C7.51877 8.89075 7.68748 9.05946 7.68748 9.26685V12.5155H4.18771V9.26685C4.18771 9.05946 4.35645 8.89075 4.56381 8.89075ZM1.00042 9.14073H3.57097C3.56575 9.18208 3.56275 9.2241 3.56275 9.26685V9.89069H1.00042C0.793654 9.89069 0.625447 9.72248 0.625447 9.51571C0.625447 9.30894 0.793654 9.14073 1.00042 9.14073ZM2.2284 15.7324C2.17972 15.8204 2.09954 15.8838 2.00257 15.9108C1.90558 15.9377 1.80424 15.9248 1.71709 15.8745C1.54264 15.7738 1.48014 15.5484 1.57785 15.3723L2.0037 14.6042C2.19047 14.7692 2.39314 14.9165 2.60913 15.0436L2.2284 15.7324ZM14.2829 15.8745C14.1957 15.9248 14.0943 15.9377 13.9973 15.9108C13.9004 15.8838 13.8202 15.8204 13.7715 15.7324L13.3908 15.0436C13.6067 14.9165 13.8094 14.7692 13.9962 14.6042L14.422 15.3723C14.5198 15.5484 14.4573 15.7738 14.2829 15.8745ZM14.9995 9.89069H12.1768C12.0042 9.89069 11.8643 10.0306 11.8643 10.2032C11.8643 10.3757 12.0042 10.5156 12.1768 10.5156H14.687V11.6927C14.687 13.4903 13.2245 14.9528 11.4268 14.9528H4.57309C2.77543 14.9528 1.3129 13.4903 1.3129 11.6927V10.5156H3.56275V12.828C3.56275 13.0005 3.70268 13.1405 3.87523 13.1405H7.99996C8.17251 13.1405 8.31244 13.0005 8.31244 12.828V10.5156H9.36468C9.53723 10.5156 9.67716 10.3757 9.67716 10.2032C9.67716 10.0306 9.53723 9.89069 9.36468 9.89069H8.31244V9.26685C8.31244 9.2241 8.30944 9.18208 8.30422 9.14073H14.9995C15.2063 9.14073 15.3745 9.30894 15.3745 9.51571C15.3745 9.72248 15.2063 9.89069 14.9995 9.89069Z" fill="#BEAD8E"/>
</g>
</g>
</g>
<defs>
<clipPath id="clip0_57_4435">
<rect width="16" height="16" fill="white" transform="translate(0 0.549805)"/>
</clipPath>
<clipPath id="clip1_57_4435">
<rect width="16" height="16" fill="white" transform="translate(0 0.549805)"/>
</clipPath>
<clipPath id="clip2_57_4435">
<rect width="16" height="16" fill="white" transform="translate(0 0.549805)"/>
</clipPath>
</defs>
</svg>
