<svg width="16" height="17" viewBox="0 0 16 17" fill="none" xmlns="http://www.w3.org/2000/svg">
<path d="M16 9.42931C16 8.90005 15.7104 8.42321 15.2442 8.18484C14.7688 7.94171 14.1532 7.81843 13.4146 7.81843H5.38572C5.32791 7.52993 5.19981 7.26781 5.00766 7.05421L3.86906 5.78849C3.58731 5.47527 3.18244 5.28509 2.72906 5.25302L2.52453 5.23855C2.41981 5.23102 2.31341 5.2458 2.21128 5.28005V4.61096C2.21128 4.37659 2.11256 4.16493 1.95475 4.01496C2.11478 3.82315 2.21128 3.57652 2.21128 3.30777C2.21128 2.69812 1.71528 2.20215 1.10566 2.20215C0.496031 2.20215 0 2.69815 0 3.3078C0 3.57659 0.0965 3.82318 0.256531 4.01499C0.0987187 4.16499 0 4.37662 0 4.61099V14.5857C0 14.7583 0.139906 14.8982 0.3125 14.8982H1.39109C1.55228 14.8982 1.68703 14.7756 1.70222 14.6151C1.73944 14.2216 1.94753 13.1408 2.46309 12.6562H3.29988C3.47247 12.6562 3.61238 12.5162 3.61238 12.3437C3.61238 12.1711 3.47247 12.0312 3.29988 12.0312L0.624969 12.0311V9.28002L4.79609 9.27993V10.0943C4.79609 10.5761 5.18806 10.9681 5.66991 10.9681H5.66997H15.1262C15.2101 10.9681 15.2946 10.9559 15.375 10.932V12.0312H13.6529C13.6527 12.0312 13.6524 12.0312 13.6521 12.0312H6.04956C5.87697 12.0312 5.73706 12.1711 5.73706 12.3437C5.73706 12.5163 5.87697 12.6562 6.04956 12.6562H13.5369C14.0504 13.1395 14.2599 14.2213 14.2978 14.6151C14.313 14.7756 14.4477 14.8982 14.6089 14.8982H15.6875C15.8601 14.8982 16 14.7583 16 14.5857V9.42931ZM2.21203 6.30184C2.21669 6.16868 2.19844 6.03109 2.30816 5.93318C2.41853 5.83468 2.55094 5.86696 2.68494 5.87646C2.98019 5.89737 3.22897 6.01146 3.40438 6.20649L4.54297 7.47224C4.72753 7.67737 4.81606 7.9633 4.79222 8.27727C4.78306 8.39815 4.78525 8.5053 4.68337 8.59059C4.59028 8.66852 4.48925 8.65399 4.37719 8.65065C4.06244 8.64121 3.78747 8.52302 3.60291 8.31787L2.46431 7.05215C2.28016 6.84737 2.20253 6.57371 2.21203 6.30184ZM0.625 8.65499V4.61099C0.625 4.50205 0.713625 4.41343 0.822563 4.41343H1.38866C1.49759 4.41343 1.58622 4.50205 1.58622 4.61099V8.65496H0.625V8.65499ZM2.21125 7.70527L3.06556 8.65499H2.21125V7.70527ZM1.10563 2.82718C1.37063 2.82718 1.58625 3.04277 1.58625 3.3078C1.58625 3.57284 1.37066 3.78843 1.10563 3.78843C0.840594 3.78843 0.625 3.57284 0.625 3.3078C0.625 3.04277 0.840594 2.82718 1.10563 2.82718ZM1.11881 14.2732H0.625V12.6562H1.67288C1.33469 13.2098 1.18175 13.8947 1.11881 14.2732ZM5.66994 10.3431C5.53278 10.3431 5.42119 10.2315 5.42119 10.0944L5.42106 8.44343H13.4146C14.0533 8.44343 14.5732 8.54365 14.9596 8.74127C15.2158 8.87227 15.375 9.1359 15.375 9.42931V10.0932C15.375 10.0936 15.3749 10.094 15.3749 10.0944C15.3749 10.2316 15.2633 10.3431 15.1262 10.3431H5.66994V10.3431ZM14.8812 14.2732C14.8182 13.8947 14.6653 13.2099 14.3272 12.6562H15.375V14.2732H14.8812Z" fill="#BEAD8E"/>
<path d="M4.96347 12.2244C4.89881 12.0668 4.71221 11.9905 4.55534 12.0553C4.3979 12.1204 4.32112 12.3061 4.38627 12.4635C4.4514 12.6208 4.63712 12.6977 4.7944 12.6325C4.95137 12.5675 5.02881 12.3814 4.96347 12.2244Z" fill="#BEAD8E"/>
</svg>
