<svg width="16" height="17" viewBox="0 0 16 17" fill="none" xmlns="http://www.w3.org/2000/svg">
<g clip-path="url(#clip0_57_4495)">
<path d="M13.1562 7.25543V5.70605C13.1562 2.8629 10.8432 0.549805 8 0.549805C5.15684 0.549805 2.84375 2.8629 2.84375 5.70605V7.25543C2.29816 7.44893 1.90625 7.96996 1.90625 8.58105V10.4561C1.90625 13.8161 4.63991 16.5498 8 16.5498C11.3601 16.5498 14.0938 13.8161 14.0938 10.4561V8.58105C14.0938 7.96996 13.7018 7.44893 13.1562 7.25543ZM8 1.4873C10.3262 1.4873 12.2188 3.37984 12.2188 5.70605V7.1748H11.2812V5.70605C11.2812 3.89677 9.80928 2.4248 8 2.4248C6.19072 2.4248 4.71875 3.89677 4.71875 5.70605V7.1748H3.78125V5.70605C3.78125 3.37984 5.67378 1.4873 8 1.4873ZM5.65625 7.1748V5.70605C5.65625 4.41371 6.70766 3.3623 8 3.3623C9.29234 3.3623 10.3438 4.41371 10.3438 5.70605V7.1748H5.65625ZM13.1562 10.4561C13.1562 13.2992 10.8432 15.6123 8 15.6123C5.15684 15.6123 2.84375 13.2992 2.84375 10.4561V8.58105C2.84375 8.32259 3.05403 8.1123 3.3125 8.1123H12.6875C12.946 8.1123 13.1562 8.32259 13.1562 8.58105V10.4561Z" fill="#BEAD8E"/>
<path d="M8 9.0498C7.22459 9.0498 6.59375 9.68065 6.59375 10.4561C6.59375 11.0671 6.98566 11.5882 7.53125 11.7817V14.2061C7.53125 14.4649 7.74112 14.6748 8 14.6748C8.25888 14.6748 8.46875 14.4649 8.46875 14.2061V11.7817C9.01434 11.5882 9.40625 11.0671 9.40625 10.4561C9.40625 9.68065 8.77541 9.0498 8 9.0498ZM8 10.9248C7.74153 10.9248 7.53125 10.7145 7.53125 10.4561C7.53125 10.1976 7.74153 9.9873 8 9.9873C8.25847 9.9873 8.46875 10.1976 8.46875 10.4561C8.46875 10.7145 8.25847 10.9248 8 10.9248Z" fill="#BEAD8E"/>
</g>
<defs>
<clipPath id="clip0_57_4495">
<rect width="16" height="16" fill="white" transform="translate(0 0.549805)"/>
</clipPath>
</defs>
</svg>
