<svg width="16" height="17" viewBox="0 0 16 17" fill="none" xmlns="http://www.w3.org/2000/svg">
<g clip-path="url(#clip0_57_4459)">
<path d="M13.4177 7.2441C13.2914 7.11785 13.0867 7.11785 12.9603 7.2441C12.368 7.83642 11.5205 8.10549 10.6939 7.96367C10.5177 7.93364 10.3506 8.05174 10.3204 8.22777C10.2902 8.4038 10.4084 8.57105 10.5845 8.60121C10.7663 8.6324 10.9487 8.64765 11.1302 8.64765C11.9805 8.64765 12.8073 8.31183 13.4177 7.70151C13.544 7.57523 13.544 7.37045 13.4177 7.2441Z" fill="#BEAD8E"/>
<path d="M14.576 1.9735C12.6777 0.0752502 9.58858 0.075219 7.68989 1.97353C6.29189 3.37181 5.88317 5.48318 6.63914 7.29372L0.0947323 13.8382C0.0301697 13.9027 -0.0040803 13.9916 0.000388454 14.0827L0.101295 16.1416C0.10942 16.3078 0.242326 16.4407 0.408545 16.4488L2.46711 16.5494C2.47242 16.5496 2.47764 16.5498 2.48292 16.5498C2.56845 16.5498 2.65073 16.5158 2.71155 16.4551L3.41758 15.7494C3.47827 15.6887 3.51236 15.6065 3.51236 15.5206V14.0064H5.02661C5.11239 14.0064 5.19467 13.9723 5.2553 13.9117L6.04667 13.1203C6.10733 13.0596 6.14139 12.9774 6.14139 12.8916V11.3773H7.65564C7.74143 11.3773 7.82371 11.3432 7.88433 11.2826L9.2563 9.91062C11.0671 10.6664 13.1782 10.2576 14.5762 8.85993C14.5762 8.8599 14.5762 8.8599 14.5762 8.85987C16.4746 6.96122 16.4744 3.872 14.576 1.9735ZM14.1189 8.40247C12.8594 9.66181 10.9322 9.99537 9.3234 9.23256C9.19977 9.17403 9.05283 9.19943 8.95615 9.29612L7.52174 10.7305H5.81802C5.63939 10.7305 5.49461 10.8753 5.49461 11.0539V12.7577L4.89267 13.3596H3.18892C3.0103 13.3596 2.86552 13.5044 2.86552 13.683V15.3867L2.35558 15.8964L0.733014 15.8171L0.653483 14.1943L7.25374 7.59397C7.35043 7.49728 7.37586 7.35022 7.31727 7.22668C6.55424 5.618 6.88783 3.69072 8.14733 2.43094C9.79374 0.784844 12.4724 0.78475 14.1186 2.43091C15.7649 4.07719 15.765 6.75606 14.1189 8.40247Z" fill="#BEAD8E"/>
<path d="M12.8936 3.65621C12.6084 3.37096 12.2292 3.21387 11.8258 3.21387C11.4224 3.21387 11.0432 3.37096 10.7579 3.65627C10.1695 4.24502 10.1695 5.20296 10.7581 5.79186C11.0524 6.08608 11.4391 6.23317 11.8258 6.23317C12.2125 6.23317 12.5992 6.08608 12.8935 5.79189C12.8936 5.79186 12.8936 5.79186 12.8936 5.79183C13.1788 5.50661 13.336 5.12736 13.336 4.72399C13.336 4.32061 13.1789 3.94146 12.8936 3.65621ZM12.4362 5.33446C12.0996 5.6708 11.5519 5.67071 11.2155 5.33455C10.879 4.99789 10.879 4.45015 11.2154 4.11365C11.3785 3.95058 11.5952 3.86077 11.8258 3.86077C12.0564 3.86077 12.2732 3.95058 12.4363 4.11365C12.5993 4.27668 12.6891 4.49346 12.6891 4.72405C12.6891 4.95464 12.5993 5.17139 12.4362 5.33446Z" fill="#BEAD8E"/>
<path d="M13.787 6.42871C13.3708 6.42871 13.3701 7.07555 13.787 7.07555C14.2032 7.07555 14.2039 6.42871 13.787 6.42871Z" fill="#BEAD8E"/>
</g>
<defs>
<clipPath id="clip0_57_4459">
<rect width="16" height="16" fill="white" transform="translate(0 0.549805)"/>
</clipPath>
</defs>
</svg>
