<svg width="16" height="17" viewBox="0 0 16 17" fill="none" xmlns="http://www.w3.org/2000/svg">
<g clip-path="url(#clip0_57_4453)">
<path d="M15.4521 2.71971H13.4245C13.2836 2.20718 12.8092 1.83105 12.2618 1.83105H4.21359C3.6585 1.83105 3.19009 2.20824 3.05053 2.71971H0.547938C0.245813 2.71971 0 2.96552 0 3.26768V3.78233C0 4.08446 0.245813 4.33027 0.547938 4.33027H3.00791V8.74095C3.00791 8.87064 3.11303 8.9758 3.24275 8.9758C3.37247 8.9758 3.47759 8.87064 3.47759 8.74095V3.03674C3.47759 2.63093 3.80775 2.30074 4.21359 2.30074H11.3075C11.15 2.50449 11.0562 2.7599 11.0562 3.03674V11.5393H3.47759V9.6803C3.47759 9.55061 3.37244 9.44545 3.24275 9.44545C3.11306 9.44545 3.00791 9.55061 3.00791 9.6803V14.5639C3.00791 14.9524 3.32394 15.2684 3.71241 15.2684H10.8213C11.2098 15.2684 11.5258 14.9524 11.5258 14.5639V11.1434H12.763C13.1514 11.1434 13.4675 10.8274 13.4675 10.4389V6.32767C13.4675 6.19799 13.3623 6.09283 13.2326 6.09283C13.1029 6.09283 12.9978 6.19796 12.9978 6.32767V10.4389C12.9978 10.5684 12.8924 10.6738 12.7629 10.6738H11.5258V4.33027H12.9978V5.38833C12.9978 5.51802 13.1029 5.62318 13.2326 5.62318C13.3623 5.62318 13.4675 5.51805 13.4675 5.38833V4.33027H15.452C15.7542 4.33027 16 4.08446 16 3.78233V3.26768C16 2.96552 15.7542 2.71971 15.4521 2.71971ZM0.547938 3.86061C0.504781 3.86061 0.469656 3.82549 0.469656 3.78233V3.26768C0.469656 3.22452 0.504781 3.1894 0.547938 3.1894H3.00791V3.86061H0.547938ZM12.2618 2.30074C12.5502 2.30074 12.8051 2.47187 12.9248 2.71974H11.5977C11.7163 2.47215 11.9694 2.30074 12.2618 2.30074ZM10.8213 14.7987H3.71244C3.58297 14.7987 3.47759 14.6934 3.47759 14.5639V13.5546H8.34966C8.47934 13.5546 8.5845 13.4494 8.5845 13.3198C8.5845 13.1901 8.47934 13.0849 8.34966 13.0849H3.47759V12.0089H11.0562V13.0849H9.289C9.15931 13.0849 9.05416 13.1901 9.05416 13.3198C9.05416 13.4494 9.15931 13.5546 9.289 13.5546H11.0562V14.5639C11.0561 14.6934 10.9508 14.7987 10.8213 14.7987ZM15.5303 3.78233C15.5303 3.82549 15.4952 3.86061 15.4521 3.86061H11.5258V3.1894H15.4521C15.4952 3.1894 15.5303 3.22452 15.5303 3.26768V3.78233Z" fill="#BEAD8E"/>
</g>
<defs>
<clipPath id="clip0_57_4453">
<rect width="16" height="16" fill="white" transform="translate(0 0.549805)"/>
</clipPath>
</defs>
</svg>
