<svg width="14" height="17" viewBox="0 0 14 17" fill="none" xmlns="http://www.w3.org/2000/svg">
<path d="M13.8339 13.0848C13.7138 12.7681 13.4538 12.3729 12.8924 12.1372C13.1092 11.8664 13.3636 11.4068 13.3636 10.7399C13.3636 10.6105 13.2587 10.5056 13.1292 10.5056C12.9998 10.5056 12.8948 10.6105 12.8948 10.7399C12.8948 11.243 12.7173 11.5923 12.5595 11.8035C12.3559 11.3285 12.0047 10.9923 11.5429 10.8408C11.4975 10.8259 11.4512 10.8128 11.4043 10.8016V6.23396C11.4043 6.15771 11.3672 6.08626 11.3049 6.04235C11.2425 5.99844 11.1628 5.9876 11.0909 6.01329L10.8703 6.09223C11.0082 5.18715 10.9557 4.30783 10.7159 3.58004C10.426 2.70053 9.88433 2.10594 9.19062 1.9058C8.44252 1.68997 7.61432 1.95087 6.85857 2.64036C6.44832 3.01468 6.08503 3.49288 5.78791 4.04193L5.50764 3.59357C5.31097 3.27883 5.20702 2.91658 5.20702 2.54595V2.10979C5.45123 1.96271 5.61496 1.69503 5.61496 1.38975C5.6149 0.926619 5.23809 0.549805 4.77495 0.549805H2.10856C1.64543 0.549805 1.26862 0.926619 1.26862 1.38975C1.26862 1.69497 1.43229 1.96262 1.67646 2.10972V2.54598C1.67646 2.91661 1.57252 3.27889 1.37578 3.5937L1.20549 3.8665C1.13695 3.9763 1.17039 4.12087 1.28018 4.18944C1.39003 4.25798 1.53455 4.22454 1.60311 4.11475L1.77335 3.84203C2.01662 3.45275 2.14519 3.00458 2.14519 2.54601V2.22973H4.73823V2.54598C4.73823 3.00455 4.8668 3.45269 5.11011 3.84203L5.52899 4.51209C5.53471 4.52128 5.53996 4.53034 5.54549 4.53947C5.42345 4.81868 5.31747 5.11161 5.22993 5.41499C5.13733 5.7358 5.06798 6.06004 5.0225 6.38251L3.99101 6.01335C3.93994 5.99507 3.88412 5.99507 3.83306 6.01335L2.09772 6.63441L1.054 6.26084V5.55994C1.054 5.33013 1.09348 5.10452 1.17126 4.88935C1.21527 4.76762 1.15229 4.63326 1.03056 4.58926C0.908866 4.54528 0.774479 4.60823 0.730475 4.72996C0.634123 4.99639 0.585275 5.27566 0.585275 5.55994V6.09308L0.362412 6.01332C0.290624 5.98763 0.210836 5.99844 0.148487 6.04238C0.0861692 6.08629 0.0490723 6.15774 0.0490723 6.234V16.3149C0.0490723 16.4443 0.153988 16.5492 0.283436 16.5492C0.283436 16.5492 11.1188 16.5506 11.1548 16.5492H11.1699C11.1815 16.5492 11.1929 16.5481 11.204 16.5465C11.7269 16.518 12.2464 16.3476 12.702 16.0291C12.8081 15.955 12.8339 15.8089 12.7597 15.7028C12.6856 15.5967 12.5394 15.5708 12.4334 15.645C11.5169 16.2857 10.2931 16.2125 9.45783 15.488C9.94925 14.9252 10.2177 14.2124 10.2177 13.4582C10.2177 12.8081 10.0183 12.1888 9.64863 11.6699C10.204 11.272 10.8836 11.1178 11.3969 11.2862C11.8199 11.425 12.1077 11.7743 12.2291 12.2963C12.2493 12.3833 12.3173 12.4512 12.4043 12.4714C12.9035 12.5876 13.2463 12.8572 13.3957 13.251C13.5889 13.7604 13.4484 14.4633 13.0378 15.0418C12.9629 15.1473 12.9877 15.2936 13.0933 15.3686C13.1344 15.3978 13.1818 15.4118 13.2287 15.4118C13.302 15.4118 13.3744 15.3775 13.42 15.3131C13.9261 14.5999 14.0847 13.7461 13.8339 13.0848ZM2.10856 1.01853H4.77492C4.97959 1.01853 5.14614 1.18505 5.14614 1.38975C5.14614 1.59446 4.97963 1.76097 4.77492 1.76097H2.10856C1.90389 1.76097 1.73734 1.59446 1.73734 1.38975C1.73734 1.18505 1.90389 1.01853 2.10856 1.01853ZM5.68025 5.5449C5.98203 4.49897 6.51267 3.59042 7.17441 2.98665C7.80518 2.41116 8.4749 2.1872 9.06057 2.35618C9.601 2.5121 10.0307 2.99883 10.2706 3.7268C10.5097 4.45215 10.5414 5.35214 10.3629 6.27381L9.35519 6.63441L7.61957 6.01332C7.56848 5.99504 7.51272 5.99504 7.46162 6.01332L5.72628 6.63441L5.47389 6.54409C5.51555 6.21187 5.58452 5.87662 5.68025 5.5449ZM8.76489 16.0805C8.88962 16.0022 9.00926 15.9146 9.12302 15.818C9.23193 15.9149 9.34654 16.0025 9.46583 16.0805H8.76489ZM8.98079 15.3124C8.48549 15.8077 7.827 16.0805 7.12653 16.0805C6.4261 16.0805 5.76757 15.8077 5.27228 15.3124C4.656 14.6961 4.35945 13.7974 4.55109 13.1267C4.69073 12.6381 5.07551 12.3075 5.66381 12.1706C5.75079 12.1503 5.8187 12.0824 5.83895 11.9954C5.97587 11.4071 6.30652 11.0223 6.79516 10.8827C6.93158 10.8437 7.07743 10.8249 7.22842 10.8249C7.81972 10.8249 8.48987 11.113 8.98075 11.6038C9.47608 12.0991 9.74885 12.7577 9.74885 13.4581C9.74889 14.1586 9.47611 14.8171 8.98079 15.3124ZM9.31225 11.2724C8.56953 10.5298 7.50625 10.192 6.6664 10.432C6.13201 10.5848 5.72953 10.9594 5.50498 11.5035C5.32991 11.2769 5.12358 10.8908 5.12358 10.3282C5.12358 10.1988 5.01866 10.0939 4.88921 10.0939C4.75976 10.0939 4.65485 10.1988 4.65485 10.3282C4.65485 11.0553 4.938 11.551 5.17189 11.8366C4.62775 12.0611 4.25313 12.4636 4.10042 12.998C3.8604 13.8379 4.19815 14.9011 4.94084 15.6439C5.10854 15.8116 5.29218 15.9575 5.48823 16.0805H0.517769V6.56678L2.01874 7.10398C2.06981 7.12226 2.12563 7.12226 2.17669 7.10398L3.91203 6.48289L5.64737 7.10398C5.69844 7.12226 5.75426 7.12226 5.80532 7.10398L7.54066 6.48289L9.27628 7.10398C9.32735 7.12223 9.38313 7.12226 9.43423 7.10398L10.9355 6.56674V10.7496C10.406 10.7521 9.8372 10.9488 9.34785 11.3089C9.33603 11.2967 9.32428 11.2845 9.31225 11.2724Z" fill="#BEAD8E"/>
</svg>
