<svg width="16" height="17" viewBox="0 0 16 17" fill="none" xmlns="http://www.w3.org/2000/svg">
<g clip-path="url(#clip0_57_4415)">
<path d="M7.95 9.87028C7.24315 9.87028 6.53629 10.1613 6.07892 10.7019C5.66312 11.2008 4.91469 10.5356 5.33048 10.0366C5.99576 9.28816 6.95209 8.87237 7.95 8.87237C8.94791 8.87237 9.90424 9.28816 10.5695 10.0366C10.9853 10.5356 10.2369 11.2008 9.82108 10.7019C9.36371 10.1613 8.65685 9.87028 7.95 9.87028ZM7.95 13.363C7.40946 13.363 6.95209 12.9056 6.95209 12.3651C6.95209 11.8245 7.40946 11.3671 7.95 11.3671C8.49053 11.3671 8.94791 11.8245 8.94791 12.3651C8.94791 12.9056 8.49053 13.363 7.95 13.363ZM7.95 7.3755C6.61945 7.3755 5.41364 7.83288 4.45731 8.78921C4.04151 9.20501 3.2515 8.58131 3.75046 8.08236C4.87311 6.9597 6.36997 6.37759 7.95 6.37759C9.53003 6.37759 11.0269 6.9597 12.1495 8.08236C12.6485 8.58131 11.8585 9.20501 11.4427 8.78921C10.4864 7.83288 9.28055 7.3755 7.95 7.3755ZM7.95 4.88072C6.03734 4.88072 4.24941 5.58758 2.87728 6.87655C2.37833 7.33392 1.67147 6.62707 2.17043 6.16969C3.79204 4.67283 5.78786 3.88281 7.95 3.88281C10.1121 3.88281 12.108 4.67283 13.7296 6.16969C14.2285 6.62707 13.5217 7.33392 13.0227 6.87655C11.6506 5.58758 9.86266 4.88072 7.95 4.88072Z" fill="#BEAD8E"/>
</g>
<defs>
<clipPath id="clip0_57_4415">
<rect width="16" height="16" fill="white" transform="translate(0 0.549805)"/>
</clipPath>
</defs>
</svg>
