<svg width="18" height="15" viewBox="0 0 18 15" fill="none" xmlns="http://www.w3.org/2000/svg">
<path d="M8.925 8.9812C7.86472 8.9812 6.80444 9.41778 6.11837 10.2286C5.49468 10.977 4.37203 9.97911 4.99572 9.23068C5.99364 8.10803 7.42813 7.48433 8.925 7.48433C10.4219 7.48433 11.8564 8.10803 12.8543 9.23068C13.478 9.97911 12.3553 10.977 11.7316 10.2286C11.0456 9.41778 9.98528 8.9812 8.925 8.9812ZM8.925 14.2202C8.1142 14.2202 7.42813 13.5342 7.42813 12.7234C7.42813 11.9126 8.1142 11.2265 8.925 11.2265C9.7358 11.2265 10.4219 11.9126 10.4219 12.7234C10.4219 13.5342 9.7358 14.2202 8.925 14.2202ZM8.925 5.23903C6.92918 5.23903 5.12046 5.9251 3.68596 7.35959C3.06227 7.98329 1.87725 7.04775 2.62568 6.29931C4.30966 4.61534 6.55496 3.74217 8.925 3.74217C11.295 3.74217 13.5403 4.61534 15.2243 6.29931C15.9727 7.04775 14.7877 7.98329 14.164 7.35959C12.7295 5.9251 10.9208 5.23903 8.925 5.23903ZM8.925 1.49687C6.056 1.49687 3.37412 2.55715 1.31593 4.4906C0.567492 5.17666 -0.492789 4.11638 0.255644 3.43032C2.68805 1.18502 5.68179 0 8.925 0C12.1682 0 15.1619 1.18502 17.5944 3.43032C18.3428 4.11638 17.2825 5.17666 16.5341 4.4906C14.4759 2.55715 11.794 1.49687 8.925 1.49687Z" fill="#222222"/>
</svg>
