<svg width="32" height="32" viewBox="0 0 32 32" fill="none" xmlns="http://www.w3.org/2000/svg">
<g clip-path="url(#clip0_57_2453)">
<path d="M31.6334 15.1152C31.633 15.1148 31.6327 15.1144 31.6322 15.114L25.1007 8.614C24.6114 8.12706 23.82 8.12887 23.3329 8.61825C22.8459 9.10756 22.8478 9.899 23.3371 10.386L27.7224 14.75H1.25C0.559625 14.75 0 15.3096 0 16C0 16.6904 0.559625 17.25 1.25 17.25H27.7223L23.3372 21.614C22.8479 22.101 22.846 22.8924 23.333 23.3817C23.8201 23.8712 24.6116 23.8729 25.1008 23.386L31.6323 16.886C31.6327 16.8856 31.633 16.8852 31.6334 16.8848C32.123 16.3962 32.1214 15.6022 31.6334 15.1152Z" fill="#DCDCDC"/>
</g>
<defs>
<clipPath id="clip0_57_2453">
<rect width="32" height="32" fill="white"/>
</clipPath>
</defs>
</svg>
