<svg width="65" height="66" viewBox="0 0 65 66" fill="none" xmlns="http://www.w3.org/2000/svg">
<path d="M55.9964 17.582C55.4408 17.5819 54.8977 17.7466 54.4358 18.0551C53.9738 18.3637 53.6137 18.8023 53.4011 19.3155C53.1884 19.8288 53.1327 20.3935 53.241 20.9384C53.3494 21.4833 53.6168 21.9838 54.0096 22.3766C54.4024 22.7695 54.9029 23.037 55.4477 23.1454C55.9926 23.2539 56.5573 23.1983 57.0706 22.9857C57.5838 22.7731 58.0225 22.4131 58.3312 21.9512C58.6398 21.4893 58.8046 20.9463 58.8046 20.3907C58.8038 19.6462 58.5077 18.9323 57.9812 18.4057C57.4548 17.8792 56.741 17.5829 55.9964 17.582ZM55.9964 21.676C55.7421 21.6761 55.4936 21.6008 55.2822 21.4597C55.0707 21.3185 54.9059 21.1178 54.8086 20.8829C54.7112 20.6481 54.6857 20.3897 54.7352 20.1403C54.7847 19.891 54.9071 19.6619 55.0868 19.4821C55.2666 19.3023 55.4956 19.1798 55.7449 19.1302C55.9942 19.0806 56.2527 19.106 56.4876 19.2033C56.7225 19.3005 56.9232 19.4653 57.0645 19.6766C57.2057 19.888 57.2811 20.1365 57.2811 20.3907C57.2809 20.7315 57.1454 21.0582 56.9046 21.2991C56.6637 21.5401 56.3371 21.6757 55.9964 21.6761V21.676Z" fill="#BEAD8E"/>
<path d="M23.3567 10.7023C24.0111 10.7025 24.651 10.5087 25.1953 10.1453C25.7395 9.78195 26.1638 9.2653 26.4145 8.66075C26.6651 8.0562 26.7308 7.39089 26.6033 6.74899C26.4758 6.10708 26.1608 5.5174 25.6981 5.05454C25.2355 4.59168 24.6459 4.27642 24.0041 4.14864C23.3622 4.02086 22.6969 4.0863 22.0922 4.33668C21.4876 4.58707 20.9708 5.01115 20.6071 5.55528C20.2435 6.09942 20.0494 6.73917 20.0494 7.39362C20.0502 8.27065 20.3989 9.11156 21.0189 9.73184C21.6389 10.3521 22.4797 10.7011 23.3567 10.7023ZM23.3567 5.6084C23.7098 5.60812 24.0551 5.71259 24.3489 5.90858C24.6426 6.10458 24.8717 6.38329 25.007 6.70948C25.1423 7.03566 25.1779 7.39465 25.1092 7.74104C25.0404 8.08743 24.8705 8.40565 24.6209 8.65546C24.3713 8.90527 24.0532 9.07543 23.7069 9.14443C23.3605 9.21342 23.0015 9.17815 22.6752 9.04307C22.349 8.908 22.0701 8.67918 21.8738 8.38557C21.6776 8.09197 21.5729 7.74676 21.5729 7.39362C21.5732 6.92049 21.7612 6.46682 22.0956 6.13214C22.43 5.79746 22.8836 5.60911 23.3567 5.6084Z" fill="#BEAD8E"/>
<path d="M36.1436 29.9299C36.1433 29.2758 35.9491 28.6365 35.5855 28.0929C35.2219 27.5492 34.7053 27.1255 34.101 26.8754C33.4966 26.6253 32.8317 26.56 32.1902 26.6877C31.5488 26.8155 30.9596 27.1306 30.4972 27.5932C30.0348 28.0558 29.72 28.6451 29.5925 29.2866C29.465 29.9281 29.5306 30.593 29.7809 31.1972C30.0313 31.8015 30.4552 32.3179 30.999 32.6813C31.5429 33.0446 32.1823 33.2385 32.8363 33.2385C33.7133 33.2374 34.5541 32.8883 35.1741 32.2681C35.7941 31.6478 36.1428 30.8069 36.1436 29.9299ZM32.8363 31.7151C32.4832 31.7154 32.1379 31.6109 31.8441 31.4149C31.5504 31.2189 31.3213 30.9402 31.186 30.614C31.0507 30.2878 31.0151 29.9289 31.0838 29.5825C31.1526 29.2361 31.3225 28.9178 31.5721 28.668C31.8217 28.4182 32.1398 28.2481 32.4861 28.1791C32.8325 28.1101 33.1915 28.1453 33.5178 28.2804C33.844 28.4155 34.1229 28.6443 34.3192 28.9379C34.5154 29.2315 34.6201 29.5767 34.6201 29.9299C34.6198 30.403 34.4318 30.8568 34.0973 31.1914C33.7628 31.5261 33.3092 31.7145 32.8361 31.7151H32.8363Z" fill="#BEAD8E"/>
<path d="M10.9996 21.0382C11.654 21.0385 12.2939 20.8447 12.8381 20.4813C13.3824 20.1179 13.8067 19.6012 14.0574 18.9967C14.308 18.3921 14.3737 17.7268 14.2462 17.0849C14.1187 16.443 13.8037 15.8533 13.341 15.3905C12.8784 14.9276 12.2888 14.6124 11.647 14.4846C11.0051 14.3568 10.3398 14.4222 9.73513 14.6726C9.13047 14.923 8.61365 15.3471 8.25003 15.8912C7.88641 16.4354 7.69232 17.0751 7.69232 17.7296C7.69313 18.6066 8.04178 19.4475 8.6618 20.0677C9.28182 20.688 10.1226 21.037 10.9996 21.0382ZM10.9996 15.9443C11.3527 15.9441 11.698 16.0485 11.9918 16.2445C12.2855 16.4405 12.5146 16.7192 12.6499 17.0454C12.7852 17.3716 12.8208 17.7306 12.7521 18.077C12.6833 18.4234 12.5134 18.7416 12.2638 18.9914C12.0142 19.2412 11.6961 19.4114 11.3498 19.4804C11.0034 19.5494 10.6444 19.5141 10.3181 19.379C9.99184 19.2439 9.71294 19.0151 9.51672 18.7215C9.3205 18.4279 9.21576 18.0827 9.21576 17.7296C9.2161 17.2564 9.4041 16.8028 9.73851 16.4681C10.0729 16.1334 10.5265 15.945 10.9996 15.9443Z" fill="#BEAD8E"/>
<path d="M60.8004 20.2031C60.637 17.6895 58.5833 15.7208 56.125 15.7208C54.9889 15.7232 53.8938 16.1454 53.0502 16.9063C50.554 14.4679 47.4377 12.3676 43.988 10.8063C40.0763 9.03595 36.0095 8.10018 32.2274 8.10018C31.1842 8.10968 30.1421 8.17435 29.1057 8.29391C29.1576 7.92254 29.1714 7.54683 29.1468 7.17266C28.9498 4.14279 26.4767 1.76953 23.5167 1.76953C20.5566 1.76953 18.0831 4.14279 17.8866 7.17139C17.816 8.55755 18.2338 9.92458 19.0672 11.0344L19.2245 11.2448C17.8308 12.0334 16.4879 12.9087 15.2039 13.8656C14.6852 13.3121 14.0589 12.8705 13.3633 12.5678C12.6678 12.2651 11.9177 12.1078 11.1592 12.1055C8.19902 12.1055 5.72559 14.4796 5.52919 17.5074C5.45867 18.8936 5.87646 20.2606 6.70986 21.3706L7.61795 22.585C5.4661 26.7234 4.18946 31.7627 4.18946 36.1653C4.18161 39.8524 4.90105 43.5047 6.30657 46.9133C7.7121 50.322 9.77613 53.4199 12.3805 56.0298C14.9848 58.6397 18.0784 60.7103 21.484 62.1231C24.8896 63.5359 28.5405 64.2631 32.2275 64.2631C35.9145 64.2631 39.5654 63.5359 42.971 62.1231C46.3766 60.7103 49.4702 58.6397 52.0745 56.0298C54.6789 53.4199 56.7429 50.322 58.1484 46.9133C59.5539 43.5047 60.2734 39.8524 60.2655 36.1653C60.2655 33.0405 59.4697 28.3543 58.4302 25.2669L59.8212 23.407C60.5203 22.4906 60.8678 21.3538 60.8004 20.2031ZM19.4067 7.27143C19.5336 5.31635 21.106 3.29297 23.5167 3.29297C25.9274 3.29297 27.4993 5.31584 27.6267 7.27346C27.6832 8.29783 27.3708 9.30855 26.746 10.1223L23.5167 14.4419L20.2928 10.1298C19.6727 9.30972 19.3592 8.29846 19.4067 7.27143ZM7.04971 17.6074C7.17666 15.6524 8.74885 13.629 11.1596 13.629C13.5703 13.629 15.1423 15.6519 15.2695 17.6096C15.3262 18.6339 15.0138 19.6447 14.3889 20.4583L11.1592 24.7779L7.93571 20.4658C7.31563 19.6457 7.00217 18.6345 7.04971 17.6074ZM8.63942 23.9513L10.5498 26.5061C10.6207 26.601 10.7128 26.678 10.8187 26.731C10.9246 26.7841 11.0414 26.8117 11.1599 26.8117C11.2783 26.8117 11.3951 26.7841 11.5011 26.731C11.607 26.678 11.699 26.601 11.77 26.5061L15.6085 21.3711C16.2883 20.4852 16.6963 19.4211 16.7832 18.3079C16.87 17.1947 16.6319 16.0801 16.0977 15.0996C17.3879 14.1372 18.7403 13.261 20.1459 12.4768L22.9068 16.1696C22.9777 16.2644 23.0698 16.3415 23.1757 16.3945C23.2816 16.4476 23.3984 16.4752 23.5169 16.4752C23.6353 16.4752 23.7521 16.4476 23.858 16.3945C23.9639 16.3415 24.056 16.2644 24.1269 16.1696L27.9657 11.0347C28.234 10.6772 28.4621 10.2912 28.6461 9.88387C28.9626 9.84337 29.2788 9.80554 29.5906 9.77393L32.7898 14.3894C33.1605 14.9218 33.3515 15.5586 33.3352 16.2071C33.3188 16.8555 33.0959 17.4819 32.6989 17.9949L31.7953 19.1683C31.5748 19.4535 31.2838 19.6763 30.9509 19.8147C30.6181 19.9531 30.2549 20.0023 29.8972 19.9575L28.8722 19.8265C28.1499 19.7338 27.4163 19.8555 26.7627 20.1764C26.109 20.4973 25.5641 21.0033 25.1958 21.6315C24.9883 21.9853 24.6814 22.2704 24.3133 22.4513C23.9452 22.6323 23.532 22.7011 23.1251 22.6493L20.7585 22.3484C20.0506 22.2563 19.3311 22.3634 18.6808 22.6577C18.0304 22.9519 17.475 23.4217 17.0768 24.0141C16.7043 24.5645 16.5004 25.2116 16.4902 25.8762C16.4799 26.5407 16.6638 27.1938 17.0192 27.7554L18.5826 30.2266C18.8708 30.6793 19.2686 31.0519 19.7393 31.3097C20.21 31.5675 20.7382 31.7022 21.2748 31.7013C21.7947 31.7017 22.3066 31.5732 22.7647 31.3274L24.3745 30.4641C25.1631 30.0412 26.4438 30.037 27.3669 30.4174C27.455 31.5582 27.8638 32.651 28.5462 33.5695L32.3857 38.706C32.4567 38.8009 32.5487 38.8779 32.6546 38.931C32.7605 38.984 32.8774 39.0117 32.9958 39.0117C33.1143 39.0117 33.2311 38.984 33.337 38.931C33.4429 38.8779 33.535 38.8009 33.6059 38.706L35.5532 36.1012L35.8008 36.4404C35.9056 36.5867 36.018 36.7306 36.1349 36.8683L38.09 39.1709C38.1771 39.2736 38.2425 39.3928 38.2822 39.5215C38.3219 39.6501 38.335 39.7854 38.3208 39.9193C38.3066 40.0532 38.2654 40.1828 38.1997 40.3003C38.1339 40.4177 38.045 40.5206 37.9383 40.6027L34.9756 42.8809C34.1871 43.4848 33.607 44.32 33.3164 45.2698L32.3289 48.4756C32.2513 48.7284 32.1242 48.9634 31.9551 49.1667L30.9942 50.3235C30.2784 51.1835 29.8353 52.2375 29.7214 53.3506C29.6935 53.6213 29.5934 53.8795 29.4314 54.0981C29.2693 54.3167 29.0515 54.4877 28.8006 54.5931C28.6954 54.6371 28.5817 54.6567 28.4678 54.6506C28.354 54.6444 28.243 54.6125 28.1433 54.5573C28.0435 54.5021 27.9575 54.4251 27.8918 54.3319C27.826 54.2388 27.7822 54.132 27.7636 54.0195L26.8585 48.5835C26.7455 47.908 26.4697 47.2701 26.0551 46.7249L22.739 42.3728C22.441 41.9825 22.2207 41.5386 22.09 41.0652L20.9955 37.1133C20.802 36.4209 20.4327 35.7903 19.9235 35.2827C19.4143 34.7752 18.7825 34.408 18.0894 34.2168L17.8515 34.152C17.3701 34.0201 16.9283 33.7723 16.5647 33.4302L14.5234 31.5064C14.1983 31.2002 13.9193 30.8484 13.6953 30.462C13.2203 29.6429 12.5013 28.9927 11.6389 28.6021C10.7764 28.2115 9.81348 28.1 8.88456 28.2832C8.8548 28.289 8.82542 28.2967 8.79658 28.306L6.75124 28.9714C7.22842 27.2447 7.86037 25.5645 8.63942 23.9513ZM28.8862 29.8074C29.0131 27.8523 30.5853 25.8289 32.996 25.8289C35.4067 25.8289 36.9788 27.8518 37.106 29.8095C37.1627 30.8339 36.8502 31.8446 36.2253 32.6582L32.996 36.9778L29.7722 32.6657C29.1521 31.8457 28.8386 30.8344 28.8862 29.8074ZM58.7421 36.1653C58.7421 50.8005 46.8476 62.707 32.2274 62.707C17.6073 62.707 5.71289 50.8005 5.71289 36.1653C5.72533 34.3314 5.92991 32.5038 6.32328 30.7126L9.222 29.7697C9.83403 29.6581 10.4656 29.7381 11.0304 29.9988C11.5953 30.2596 12.0659 30.6883 12.3779 31.2265C12.6759 31.7402 13.0468 32.2081 13.4791 32.6153L15.5205 34.5385C16.0661 35.0515 16.7288 35.4231 17.451 35.6211L17.6889 35.6858C18.1274 35.807 18.5272 36.0395 18.8493 36.3608C19.1714 36.6822 19.405 37.0813 19.5273 37.5195L20.6218 41.4721C20.8041 42.1326 21.1114 42.7521 21.5272 43.2968L24.8433 47.649C25.1078 47.9967 25.2837 48.4036 25.3557 48.8345L26.2609 54.2705C26.3166 54.61 26.4487 54.9324 26.6471 55.2135C26.8454 55.4946 27.105 55.727 27.4061 55.8933C27.7073 56.0596 28.0423 56.1555 28.3859 56.1736C28.7294 56.1917 29.0726 56.1317 29.3896 55.9981C29.8927 55.787 30.3296 55.4443 30.6545 55.0061C30.9794 54.5678 31.1804 54.0502 31.2362 53.5075C31.3193 52.6946 31.6429 51.925 32.1656 51.2969L33.1265 50.1401C33.4243 49.7823 33.6479 49.3689 33.7844 48.9239L34.7716 45.718C34.9697 45.0703 35.3653 44.5007 35.903 44.0888L38.867 41.8105C39.1372 41.6027 39.3625 41.3422 39.5291 41.0447C39.6956 40.7473 39.8001 40.4191 39.836 40.08C39.872 39.741 39.8387 39.3982 39.7382 39.0724C39.6378 38.7466 39.4722 38.4446 39.2515 38.1848L37.2964 35.8821C37.2065 35.7762 37.1201 35.6655 37.0359 35.5481L36.5082 34.8244L37.4452 33.5712C38.288 32.4663 38.7069 31.0959 38.6259 29.7086C38.429 26.6788 35.9559 24.3055 32.9958 24.3055C30.3208 24.3055 28.0446 26.2437 27.4848 28.8518C26.2195 28.4788 24.7046 28.5598 23.6547 29.1225L22.0449 29.9858C21.6768 30.1814 21.2485 30.2311 20.8455 30.1249C20.4424 30.0187 20.0941 29.7645 19.8702 29.4129L18.3066 26.9417C18.1097 26.6305 18.0078 26.2686 18.0135 25.9004C18.0191 25.5322 18.1321 25.1736 18.3385 24.8687C18.5794 24.5101 18.9155 24.2258 19.3091 24.0477C19.7026 23.8697 20.138 23.8048 20.5664 23.8605L22.9331 24.1613C23.6358 24.2511 24.3494 24.1325 24.9852 23.8201C25.621 23.5076 26.151 23.0153 26.5092 22.4041C26.7264 22.0331 27.0479 21.7341 27.4337 21.5445C27.8196 21.3549 28.2527 21.283 28.6791 21.3377L29.704 21.4687C30.3255 21.5467 30.9567 21.4612 31.5351 21.2208C32.1135 20.9803 32.6192 20.5932 33.0024 20.0976L33.906 18.9242C34.501 18.1555 34.835 17.2168 34.8595 16.245C34.884 15.2733 34.5975 14.319 34.042 13.5213L31.3536 9.64393C31.6617 9.63123 31.955 9.62361 32.2274 9.62361C35.7948 9.62361 39.644 10.5123 43.3598 12.1943C44.524 12.7226 45.6554 13.3203 46.7478 13.9843L44.7016 17.4917C44.4083 18.0064 44.2825 18.5996 44.3416 19.1891C44.4008 19.7785 44.6419 20.335 45.0317 20.7811C45.6196 21.4546 46.4355 21.8874 47.3229 21.9963L47.694 22.042C48.0532 22.0866 48.3917 22.2344 48.6685 22.4676C48.9452 22.7007 49.1484 23.0092 49.2532 23.3556C49.3524 23.6847 49.3553 24.0353 49.2616 24.366C49.1679 24.6967 48.9815 24.9937 48.7245 25.2218L45.0499 28.4708C44.6775 28.8004 44.3793 29.2053 44.175 29.6587C43.9707 30.1122 43.865 30.6038 43.865 31.1012V31.9633C43.8638 32.4742 43.9912 32.9772 44.2355 33.4259C44.4798 33.8746 44.8331 34.2546 45.2628 34.5309C45.4765 34.6683 45.6562 34.8522 45.7886 35.069C45.921 35.2857 46.0025 35.5296 46.0271 35.7824L46.1131 36.6432C46.1804 37.34 46.5053 37.9867 47.0242 38.4567C47.5431 38.9267 48.2186 39.1862 48.9187 39.1844H51.0694C51.9604 39.1841 52.832 38.9244 53.5778 38.4369C54.3236 37.9494 54.9113 37.2553 55.269 36.4393L55.3983 36.1446C55.5249 35.8525 55.7312 35.602 55.9937 35.4217C56.2561 35.2414 56.564 35.1387 56.8821 35.1253L57.3867 35.1025C57.4688 35.0988 57.5508 35.0929 57.6325 35.0846L58.7054 34.9765C58.7293 35.3938 58.7421 35.793 58.7421 36.1653ZM58.579 33.457L57.4799 33.5676C57.4264 33.5731 57.3725 33.5769 57.3182 33.5794L56.8128 33.6024C56.2105 33.6277 55.6275 33.8221 55.1305 34.1634C54.6336 34.5046 54.2429 34.979 54.0031 35.5321L53.8738 35.8267C53.635 36.3717 53.2426 36.8353 52.7445 37.1609C52.2465 37.4866 51.6644 37.6601 51.0694 37.6603H48.9185C48.5965 37.661 48.2859 37.5416 48.0473 37.3253C47.8088 37.1091 47.6595 36.8117 47.6286 36.4912L47.5425 35.6303C47.4958 35.1496 47.3407 34.6858 47.089 34.2736C46.8372 33.8614 46.4953 33.5117 46.0889 33.2506C45.8734 33.112 45.6963 32.9213 45.5738 32.6963C45.4513 32.4712 45.3874 32.2189 45.388 31.9627V31.1005C45.388 30.819 45.4478 30.5407 45.5635 30.284C45.6791 30.0273 45.8479 29.7981 46.0587 29.6115L49.7332 26.3625C50.2082 25.9409 50.5527 25.3922 50.7259 24.7811C50.8991 24.1701 50.8939 23.5222 50.7108 22.9141C50.5203 22.2853 50.1514 21.7253 49.6489 21.3021C49.1463 20.8788 48.5318 20.6105 47.8797 20.5298L47.5086 20.4841C46.9933 20.4208 46.5194 20.1695 46.1779 19.7783C45.997 19.5716 45.8847 19.3138 45.8566 19.0405C45.8285 18.7672 45.8859 18.4919 46.0209 18.2526L48.0317 14.806C49.4809 15.7761 50.8379 16.8773 52.0857 18.0957C51.7149 18.7401 51.4973 19.4612 51.4497 20.2031C51.3908 21.3529 51.7371 22.4868 52.4282 23.4075L55.5149 27.535C55.5859 27.6299 55.6779 27.7069 55.7838 27.7599C55.8897 27.813 56.0065 27.8406 56.125 27.8406C56.2434 27.8406 56.3602 27.813 56.4661 27.7599C56.572 27.7069 56.664 27.6299 56.735 27.535L57.3026 26.776C57.9088 28.9646 58.3357 31.199 58.579 33.457ZM58.6017 22.4937L56.125 25.8056L53.6538 22.501C53.1759 21.8703 52.9339 21.0921 52.9698 20.3016C53.0675 18.7985 54.2745 17.2438 56.125 17.2438C57.9754 17.2438 59.1825 18.7985 59.2803 20.3034C59.3235 21.0913 59.0827 21.8685 58.6016 22.4939L58.6017 22.4937Z" fill="#BEAD8E"/>
</svg>
