<svg width="65" height="66" viewBox="0 0 65 66" fill="none" xmlns="http://www.w3.org/2000/svg">
<g clip-path="url(#clip0_57_2446)">
<path d="M22.072 37.244C21.5845 37.0456 21.0311 37.2758 20.8332 37.7632C20.7945 37.8525 19.8513 39.9561 16.6814 39.9561C13.4754 39.9561 12.3313 37.8153 12.2758 37.7067C12.0427 37.2381 11.4754 37.0452 11.0052 37.2748C10.5326 37.5059 10.3367 38.0757 10.5673 38.5483C10.6333 38.6831 12.2356 41.8604 16.6814 41.8604C21.1729 41.8604 22.5376 38.6266 22.5937 38.4887C22.7915 38.0018 22.559 37.4419 22.072 37.244Z" fill="#BEAD8E"/>
<path d="M13.1803 32.9508C13.3231 33.0277 13.4774 33.0639 13.6291 33.0639C13.9658 33.0639 14.2926 32.8849 14.4652 32.5685C14.7176 32.1073 14.5485 31.529 14.0868 31.2766C14.008 31.233 12.1255 30.2293 9.65439 31.0614C9.15551 31.229 8.88771 31.7691 9.05533 32.2674C9.22345 32.7658 9.76349 33.0331 10.2619 32.866C11.9048 32.3126 13.1144 32.9171 13.1803 32.9508Z" fill="#BEAD8E"/>
<path d="M23.4808 31.0614C21.0087 30.2293 19.1267 31.233 19.0479 31.2766C18.5867 31.5285 18.4126 32.1097 18.665 32.5709C18.8386 32.8878 19.1639 33.0678 19.5001 33.0678C19.6534 33.0678 19.8086 33.0306 19.9534 32.9518C20.004 32.9255 21.219 32.3091 22.8733 32.866C23.3717 33.0331 23.9118 32.7658 24.0794 32.2674C24.247 31.7691 23.9792 31.229 23.4808 31.0614Z" fill="#BEAD8E"/>
<path d="M36.3497 12.4888C34.7921 12.4888 33.5151 13.683 33.4427 15.2074C33.406 15.9806 33.6842 16.7061 34.1697 17.2496C33.6842 17.7931 33.406 18.5186 33.4427 19.2917C33.4933 20.3585 34.134 21.264 35.0484 21.7113C34.8397 22.1105 34.7311 22.5672 34.7325 23.0661C34.7365 24.2479 35.5007 25.2581 36.5669 25.6473C36.3998 25.9955 36.3081 26.3808 36.2991 26.7944C36.2828 27.5318 36.5629 28.2335 37.0881 28.7701C37.6212 29.3151 38.3616 29.6275 39.1194 29.6275H52.6081C54.8873 29.6275 56.741 27.7733 56.741 25.4941V18.9987C56.741 16.8405 54.559 14.8573 52.2015 13.0353C51.0227 12.1248 50.1087 10.9163 49.5588 9.54016L47.9704 5.56841C47.4437 4.20168 45.6163 4.67478 45.0143 4.8305C44.3368 5.00605 43.7745 5.44344 43.4298 6.06284C42.9002 7.01548 42.8853 8.31675 43.3847 9.93044L43.9143 11.9751C42.6636 12.3391 41.0549 12.4561 39.8925 12.4893H36.3497V12.4888ZM39.9322 14.3931C41.2855 14.3555 43.2131 14.2087 44.7093 13.7227C45.5493 13.4499 46.0343 12.5672 45.8132 11.7132L45.2225 9.43106C45.2186 9.41569 45.2141 9.40081 45.2096 9.38593C44.9428 8.53098 44.6398 6.89448 45.4918 6.6738C45.9074 6.56619 46.1583 6.53246 46.3016 6.52403L47.7904 10.2473C48.4668 11.9389 49.589 13.4241 51.0366 14.5424C52.076 15.3453 54.8368 17.4787 54.8368 18.9987V25.4946C54.8368 26.7235 53.837 27.7237 52.6081 27.7237H39.1194C38.6324 27.7237 38.192 27.326 38.2029 26.8365C38.2064 26.6769 38.2168 26.1899 39.0519 25.8834C39.5146 25.7128 39.7874 25.2372 39.7011 24.7527C39.6143 24.2672 39.1938 23.9151 38.7008 23.9151H37.5399C37.0603 23.9151 36.6368 23.5154 36.6368 23.0597C36.6368 22.602 36.9136 22.0098 37.5692 22.0098C37.5751 22.0098 38.9473 22.0108 38.9473 22.0108C39.4734 22.0108 39.8994 21.5843 39.8994 21.0587C39.8994 20.5325 39.4734 20.1065 38.9473 20.1065C37.9986 20.1065 37.3133 20.1065 36.3497 20.1065C35.8196 20.1065 35.3688 19.7009 35.345 19.202C35.3222 18.7239 35.6579 18.3009 36.1256 18.2171C36.2917 18.1874 36.5396 18.2102 38.6185 18.2022C39.1447 18.2022 39.5706 17.7758 39.5706 17.2501C39.5706 16.7239 39.1447 16.2979 38.6185 16.2979H36.2962C35.7432 16.2979 35.3197 15.8328 35.345 15.2982C35.3688 14.7993 35.8196 14.3936 36.3497 14.3936H39.9059C39.9148 14.3931 39.9237 14.3931 39.9322 14.3931Z" fill="#BEAD8E"/>
<path d="M55.2547 0.5H40.6249C40.0993 0.5 39.6728 0.926482 39.6728 1.45215C39.6728 1.97831 40.0993 2.40429 40.6249 2.40429H55.2547C59.5781 2.40429 63.0956 5.91087 63.0956 10.2208V31.3371C63.0956 35.6466 59.5781 39.1532 55.2547 39.1532H44.2431C43.7174 39.1532 43.2909 39.5797 43.2909 40.1053C43.2909 41.908 42.8823 44.1877 39.886 45.0138C40.9264 43.4051 40.8268 41.1884 40.5019 39.8762C40.3963 39.4517 40.0149 39.1532 39.5776 39.1532H28.4255C28.6482 38.4098 28.8039 37.6377 28.8833 36.8437C31.6296 37.3396 33.1347 34.4162 33.1347 31.4765C33.1347 29.4254 32.4325 27.8653 31.2373 27.113C31.8156 25.8861 32.0616 24.2491 31.0767 22.3265C31.2225 17.7353 29.3489 15.3604 27.7337 14.1722C26.4042 13.1943 25.0395 12.8551 24.3864 12.742C23.8562 12.2233 22.5688 11.1898 20.3125 10.6399V10.2208C20.3125 5.91087 23.8295 2.40429 28.1533 2.40429H36.5624C37.0881 2.40429 37.5146 1.97831 37.5146 1.45215C37.5146 0.926482 37.0881 0.5 36.5624 0.5H28.1533C22.7796 0.5 18.4082 4.86103 18.4082 10.2208V10.3314C16.7821 10.1896 14.8019 10.3021 12.4206 10.8759C10.9214 11.2374 9.5542 11.7046 8.35757 12.2655C7.881 12.4886 7.67619 13.0554 7.89934 13.5315C8.12201 14.0081 8.68883 14.2129 9.1654 13.9897C10.2465 13.4834 11.4917 13.0584 12.8669 12.7271C15.4922 12.0949 17.5304 12.075 19.0762 12.322C19.152 12.3458 19.2324 12.3587 19.3157 12.3627C22.0005 12.8546 23.1069 14.1469 23.1739 14.2278C23.339 14.437 23.584 14.568 23.8503 14.5878C23.8637 14.5893 25.2641 14.7197 26.6051 15.7061C28.4538 17.0659 29.3147 19.3525 29.1639 22.502C29.1555 22.6801 29.1972 22.8571 29.2845 23.0128C30.0625 24.4023 30.0174 25.6838 29.1476 26.9315C28.5386 27.8043 27.7144 28.3666 27.4917 28.509C27.3945 28.5397 27.153 28.5987 26.9626 28.5105C26.7474 28.4103 26.6115 28.1113 26.5356 27.8772C25.9356 26.0274 25.1297 25.2831 24.4191 24.6265C23.7139 23.9749 23.1049 23.412 22.5505 21.5816C22.4399 21.2166 22.122 20.9523 21.7432 20.9111C21.3633 20.869 20.9963 21.0584 20.8094 21.3912C20.4464 22.0374 19.3405 24.0026 14.6353 23.834C10.6913 23.6902 7.45154 25.0862 6.17903 27.4735C5.82396 28.139 5.51452 28.3756 5.37368 28.4341C2.23953 26.6027 3.52493 23.8048 3.68263 23.4914C3.78925 23.2846 3.81652 23.0465 3.75949 22.8209C3.75007 22.7842 2.86983 19.1184 6.05159 16.0636C6.43096 15.6996 6.44335 15.0966 6.07936 14.7172C5.71486 14.3379 5.11233 14.3255 4.73296 14.69C1.33648 17.9506 1.65138 21.7805 1.84429 22.9424C1.66031 23.3991 1.37615 24.2823 1.39747 25.351C1.40888 25.9025 1.5036 26.5397 1.76742 27.1968C0.643195 27.9779 0 29.4943 0 31.4765C0 34.4648 1.54575 37.3312 4.25044 36.8437C4.53113 39.6823 5.77189 42.3136 7.81454 44.3548C9.14259 45.6838 10.7201 46.6727 12.4414 47.2792V49.0272L8.9353 50.204C8.68933 50.2868 8.49493 50.4634 8.38484 50.6865C3.86661 52.2437 0.761717 56.9628 0.761717 62.4024V64.5477C0.761717 65.0739 1.1882 65.4999 1.71386 65.4999H31.4208C31.9465 65.4999 32.373 65.0739 32.373 64.5477V62.4024C32.373 60.9449 32.1503 59.5187 31.7114 58.1634C31.5493 57.663 31.0127 57.3888 30.5123 57.5509C30.012 57.7131 29.7377 58.2502 29.8999 58.7505C30.2773 59.9159 30.4687 61.1443 30.4687 62.4024V63.5956H19.4967L22.5991 61.3407C22.8456 61.1616 22.9914 60.8755 22.9914 60.5705V58.6152L24.4553 57.5539C24.7023 57.3744 24.8485 57.0882 24.8485 56.7828V52.7743C26.1106 53.3526 27.2438 54.264 28.1721 55.4587C28.3596 55.6997 28.6408 55.8262 28.9244 55.8262C29.1287 55.8262 29.3345 55.7607 29.5081 55.6258C29.9232 55.303 29.9981 54.7049 29.6757 54.2898C28.3447 52.5779 26.6512 51.3431 24.7494 50.6861C24.6398 50.4634 24.4454 50.2868 24.1989 50.204L20.6933 49.0272V47.2727C23.7531 46.1877 26.2634 43.9313 27.6822 41.0456C27.8399 41.053 27.9971 41.0575 28.1528 41.0575H38.7692C38.8114 41.4507 38.8357 41.9625 38.7747 42.4907C38.6219 43.8242 38.0229 44.6191 36.9438 44.9211C36.3641 45.0833 35.9892 45.658 36.0715 46.2576C36.1493 46.8239 36.6209 47.235 37.1922 47.235C39.5374 47.235 41.404 46.7307 42.7405 45.7354C44.1573 44.6796 44.9666 43.109 45.1536 41.0575H55.2552C60.6284 41.0575 64.9999 36.6969 64.9999 31.3371V10.2208C64.9999 4.86103 60.6284 0.5 55.2547 0.5ZM28.9453 34.8923V29.8157C29.2835 29.5633 29.7318 29.1874 30.1702 28.6979C30.9423 29.1437 31.2304 30.3632 31.2304 31.4765C31.2304 33.1695 30.4989 35.4988 28.9453 34.8923ZM1.90429 31.4765C1.90429 30.4594 2.14927 29.3267 2.79941 28.8095C3.16638 29.2052 3.62262 29.5886 4.18944 29.9431V34.8923C2.63179 35.5003 1.90429 33.1695 1.90429 31.4765ZM10.1904 51.7914L12.3824 51.0555L15.0464 62.265L12.0476 60.0855V58.1297C12.0476 57.8247 11.9013 57.538 11.6544 57.359L10.1904 56.2973V51.7914ZM14.5778 52.0582H18.5569L16.5674 60.4292L14.5778 52.0582ZM2.66601 62.4024C2.66601 58.0781 4.92339 54.3037 8.28615 52.7728V56.7828C8.28615 57.0877 8.43245 57.3744 8.67941 57.5534L10.1433 58.6152V60.5705C10.1433 60.875 10.2891 61.1616 10.5356 61.3407L13.638 63.5956H2.66601V62.4024ZM22.9443 51.7914V56.2973L21.4803 57.359C21.2334 57.538 21.0871 57.8247 21.0871 58.1297V60.0855L18.0883 62.265L20.7523 51.0555L22.9443 51.7914ZM18.789 50.1539H14.3457V47.782C15.8121 48.0463 17.3216 48.0473 18.789 47.78V50.1539ZM9.16094 43.0084C7.18325 41.0317 6.09374 38.4014 6.09374 35.6025V30.2005C6.63874 29.9784 7.2745 29.4666 7.85918 28.3691C8.77264 26.6558 11.4059 25.6228 14.5664 25.7373C17.581 25.8459 19.8552 25.1819 21.3559 23.7596C21.9257 24.9151 22.554 25.4958 23.1272 26.025C23.7699 26.6191 24.2778 27.0882 24.7246 28.4653C25.0806 29.5628 25.7223 30.0443 26.1984 30.2551C26.4885 30.3835 26.7757 30.44 27.041 30.4554V35.6025C27.041 44.872 15.7387 49.5901 9.16094 43.0084Z" fill="#BEAD8E"/>
</g>
<defs>
<clipPath id="clip0_57_2446">
<rect width="65" height="65" fill="white" transform="translate(0 0.5)"/>
</clipPath>
</defs>
</svg>
