<svg width="65" height="66" viewBox="0 0 65 66" fill="none" xmlns="http://www.w3.org/2000/svg">
<g clip-path="url(#clip0_57_2466)">
<path d="M57.6704 14.1611L53.8182 13.6012L52.0954 10.1105C51.5142 8.93168 49.832 8.93218 49.2503 10.1105L47.5276 13.6012L43.6753 14.1611C42.375 14.35 41.8553 15.9493 42.7961 16.8667L45.5836 19.5838L44.9255 23.4207C44.7028 24.721 46.0691 25.7019 47.2275 25.0929L50.6731 23.2814L54.1187 25.0929C55.2811 25.7044 56.6424 24.7165 56.4202 23.4207L55.7621 19.5838L58.5497 16.8667C59.4909 15.9493 58.9712 14.35 57.6704 14.1611ZM54.3131 18.3371C53.9392 18.7016 53.7691 19.2263 53.8569 19.741L54.4346 23.1073L51.411 21.5179C50.9493 21.2749 50.3969 21.2749 49.9347 21.5179L46.9116 23.1073L47.4889 19.7405C47.5771 19.2263 47.4065 18.7016 47.0326 18.3371L44.5868 15.9528L47.9669 15.4618C48.4837 15.3865 48.93 15.0621 49.1611 14.594L50.6726 11.5312L52.1841 14.594C52.4152 15.0621 52.8621 15.3865 53.3788 15.4618L56.7589 15.9528L54.3131 18.3371Z" fill="#BEAD8E"/>
<path d="M7.00571 10.1105L5.28292 13.6012L1.43069 14.1611C0.129915 14.3501 -0.389304 15.9494 0.551439 16.8668L3.33895 19.5839L2.68088 23.4203C2.45772 24.7205 3.82445 25.7019 4.9824 25.093L8.42848 23.2814L11.8741 25.093C13.0365 25.7049 14.3978 24.7156 14.1756 23.4208L13.5175 19.5839L16.305 16.8668C17.2463 15.9494 16.7261 14.3496 15.4258 14.1606L11.5735 13.6007L9.85075 10.11C9.26905 8.93174 7.58742 8.93224 7.00571 10.1105ZM9.94002 14.594C10.1711 15.0622 10.6179 15.3865 11.1347 15.4619L14.5143 15.9528L12.069 18.3367C11.6945 18.7017 11.524 19.2263 11.6122 19.7411L12.1895 23.1073L9.1664 21.5184C8.70421 21.2755 8.15226 21.275 7.69007 21.5184L4.6665 23.1078L5.24424 19.7416C5.33251 19.2268 5.16192 18.7022 4.788 18.3372L2.34217 15.9533L5.7218 15.4619C6.23854 15.387 6.68536 15.0627 6.91645 14.594L8.42799 11.5313L9.94002 14.594Z" fill="#BEAD8E"/>
<path d="M13.1153 61.1963C13.1153 61.4473 12.9115 61.6516 12.6606 61.6516H9.73175C9.20559 61.6516 8.7796 62.0776 8.7796 62.6037C8.7796 63.1294 9.20559 63.5559 9.73175 63.5559H12.6606C13.823 63.5559 14.79 62.7094 14.9825 61.601L15.6564 61.6005H15.6584C18.9825 61.6005 18.8863 65.5008 24.137 65.5004H24.1459H40.8437C42.8685 65.5004 44.5159 63.8529 44.5159 61.8281C44.5159 60.8671 44.145 59.9913 43.5385 59.3362C44.4296 58.688 45.0257 57.664 45.0644 56.5135C45.0956 55.5717 44.7758 54.6771 44.1613 53.9744C45.1145 53.3312 45.7592 52.269 45.7978 51.0703C45.8326 50.0046 45.419 49.0133 44.6667 48.2838C47.2851 46.0914 45.7418 41.7978 42.3111 41.7978C42.3106 41.7978 42.3091 41.7978 42.3086 41.7978H31.6525C33.2255 36.9949 33.1779 37.3847 33.1779 31.7526C33.1779 29.4531 31.3068 27.582 29.0073 27.582C26.9235 27.582 25.1461 29.1402 24.8734 31.2061C24.189 36.379 23.3619 36.9161 19.7715 40.3736C18.793 41.3158 17.5056 41.835 16.1473 41.835H14.8942C14.5788 40.9032 13.6975 40.2297 12.6606 40.2297H2.35954C1.05827 40.2297 0 41.288 0 42.5893V61.1968C0 62.4976 1.05827 63.5559 2.35954 63.5559H5.2879C5.81406 63.5559 6.24004 63.1299 6.24004 62.6037C6.24004 62.0781 5.81406 61.6516 5.2879 61.6516H2.35954C2.10861 61.6516 1.9043 61.4478 1.9043 61.1968V42.5888C1.9043 42.3379 2.10861 42.134 2.35954 42.134H12.6606C12.9115 42.134 13.1153 42.3379 13.1153 42.5888V61.1963ZM15.0196 43.7388H16.1469C18.0006 43.7388 19.7571 43.0306 21.0921 41.7452C24.8843 38.0938 25.9996 37.2166 26.7608 31.4556C26.9091 30.3328 27.8746 29.4863 29.0073 29.4863C30.2565 29.4863 31.2731 30.5029 31.2731 31.7521C31.2731 37.3083 31.3693 36.5431 29.6326 41.8444C29.3331 42.7589 30.016 43.7016 30.9785 43.7016H42.3091H42.3106C43.2866 43.7016 44.0805 44.4916 44.0815 45.4636C44.082 46.44 43.288 47.2355 42.3126 47.236C40.6181 47.2374 44.872 47.237 37.7562 47.237C37.2305 47.237 36.804 47.6634 36.804 48.1891C36.804 48.7153 37.2305 49.1413 37.7562 49.1413H42.0825H42.085H42.0869C43.1026 49.1413 43.9273 49.9898 43.894 51.0084C43.8638 51.9501 43.0391 52.7168 42.0552 52.7168C39.8578 52.7168 42.7168 52.7178 37.7562 52.7178C37.2305 52.7178 36.804 53.1442 36.804 53.6699C36.804 54.1956 37.2305 54.6221 37.7562 54.6221C44.3399 54.6221 38.9796 54.6211 41.3942 54.6211C42.384 54.6211 43.1943 55.4368 43.1606 56.45C43.1293 57.3907 42.3046 58.1564 41.3227 58.1564C41.3227 58.1564 41.2022 58.1574 37.7562 58.1574C37.23 58.1574 36.804 58.5839 36.804 59.1096C36.804 59.6357 37.23 60.0617 37.7562 60.0617H40.8655C41.8301 60.0736 42.6111 60.8611 42.6111 61.8286C42.6111 62.8031 41.8182 63.5961 40.8437 63.5961H24.1454C24.1424 63.5961 24.1399 63.5961 24.1375 63.5961C19.712 63.5961 20.1117 59.6962 15.6599 59.6962C15.6584 59.6962 15.6569 59.6962 15.6559 59.6962L15.0196 59.6967V43.7388Z" fill="#BEAD8E"/>
<path d="M37.176 13.768C36.7996 14.135 36.7921 14.738 37.1591 15.1144C37.5266 15.4913 38.1291 15.4988 38.5055 15.1318L41.8767 11.8459C43.05 10.7018 42.4019 8.70775 40.7807 8.4722L34.2843 7.52848C34.2605 7.52501 34.2397 7.51013 34.2293 7.48831L31.3242 1.60185C30.5992 0.132468 28.502 0.132964 27.7775 1.60185L24.8719 7.48831C24.8615 7.51013 24.8407 7.52501 24.8169 7.52848L18.3205 8.4722C16.6993 8.70825 16.0517 10.7023 17.2245 11.8459L21.9252 16.4276C21.9426 16.4445 21.9505 16.4688 21.9466 16.4926L20.8367 22.9627C20.5585 24.5833 22.262 25.8068 23.706 25.0475L29.5166 21.9927C29.538 21.9818 29.5632 21.9813 29.5846 21.9927L35.3952 25.0475C36.8447 25.8097 38.5417 24.5774 38.2645 22.9627L37.539 18.7331C37.4502 18.2144 36.9573 17.8657 36.44 17.955C35.9213 18.0443 35.5732 18.5362 35.6625 19.0549L36.388 23.2845C36.3909 23.3034 36.3954 23.3297 36.3587 23.3565C36.322 23.3827 36.2987 23.3708 36.2818 23.3619L30.4713 20.3071C29.895 20.0041 29.2067 20.0041 28.6304 20.3071L22.8199 23.3619C22.803 23.3708 22.7797 23.3827 22.743 23.3565C22.7063 23.3297 22.7108 23.3034 22.7137 23.2845L23.8236 16.8149C23.9337 16.1732 23.7214 15.5186 23.2548 15.0643L18.554 10.4821C18.5406 10.4687 18.5213 10.4504 18.5357 10.4072C18.5496 10.3636 18.5758 10.3601 18.5947 10.3572L25.0911 9.41343C25.7353 9.31971 26.2917 8.91504 26.5803 8.33136L29.4854 2.4444C29.4938 2.42754 29.5057 2.40374 29.5508 2.40374C29.5965 2.40374 29.6079 2.42754 29.6168 2.4444L32.5218 8.33086C32.81 8.91504 33.3664 9.31971 34.0111 9.41294L40.5075 10.3572C40.5263 10.3596 40.5521 10.3636 40.5665 10.4067C40.5804 10.4504 40.5616 10.4687 40.5482 10.4821L37.176 13.768Z" fill="#BEAD8E"/>
</g>
<defs>
<clipPath id="clip0_57_2466">
<rect width="65" height="65" fill="white" transform="translate(0 0.5)"/>
</clipPath>
</defs>
</svg>
