<svg width="70" height="70" viewBox="0 0 70 70" fill="none" xmlns="http://www.w3.org/2000/svg">
<path d="M52.6883 48.3561C52.5241 48.3561 52.3574 48.3163 52.2029 48.2325C51.708 47.9639 51.5245 47.345 51.7932 46.8501C55.9821 39.131 58.106 31.8283 58.106 25.1449C58.106 12.4042 47.7407 2.03902 35.0001 2.03902C33.4556 2.03902 31.9119 2.19215 30.4117 2.49443C29.8603 2.60586 29.3222 2.2482 29.2111 1.69627C29.0999 1.14434 29.4573 0.606621 30.0092 0.495469C31.6414 0.166797 33.3205 0 35 0C48.8649 0 60.1449 11.28 60.1449 25.1449C60.1449 32.1717 57.9379 39.8016 53.5851 47.8226C53.4006 48.163 53.05 48.3561 52.6883 48.3561Z" fill="#BEAD8E"/>
<path d="M35 69.9999C33.9183 69.9999 32.9059 69.5736 32.1493 68.7997C29.2411 65.8247 23.6403 59.6753 18.8032 51.9169C12.8658 42.3939 9.8551 33.3865 9.8551 25.1448C9.8551 15.0163 15.883 5.92215 25.2122 1.97631C25.731 1.75701 26.3289 1.99941 26.5483 2.51813C26.7678 3.0367 26.5251 3.63498 26.0066 3.85428C17.4336 7.48033 11.8941 15.8373 11.8941 25.1448C11.8941 43.7178 28.5137 62.1633 33.6074 67.3744C33.9771 67.7527 34.4717 67.9609 35 67.9609C35.5283 67.9609 36.0229 67.7527 36.3926 67.3744C39.2228 64.4791 44.6756 58.4953 49.3966 50.9501C49.6955 50.4726 50.3245 50.328 50.8018 50.6266C51.2791 50.9253 51.4239 51.5544 51.1253 52.0317C46.3027 59.739 40.7382 65.8457 37.8507 68.7997C37.0941 69.5736 36.0817 69.9999 35 69.9999Z" fill="#BEAD8E"/>
<path d="M35 36.6312C32.4001 36.6312 29.9395 35.7948 27.8845 34.2124C27.4383 33.8689 27.3551 33.2288 27.6987 32.7826C28.0422 32.3366 28.6822 32.2531 29.1283 32.5968C30.8238 33.9022 32.8542 34.5922 35.0001 34.5922C40.3126 34.5922 44.6344 30.2702 44.6344 24.9579C44.6344 19.6455 40.3125 15.3234 35 15.3234C29.6875 15.3234 25.3657 19.6454 25.3657 24.9577C25.3657 26.4421 25.6939 27.8653 26.3414 29.1878C26.589 29.6935 26.3797 30.3043 25.874 30.5519C25.3677 30.7992 24.7574 30.59 24.51 30.0844C23.7248 28.4804 23.3267 26.7556 23.3267 24.9577C23.3267 18.521 28.5633 13.2844 35 13.2844C41.4367 13.2844 46.6733 18.521 46.6733 24.9577C46.6733 31.3945 41.4367 36.6312 35 36.6312Z" fill="#BEAD8E"/>
</svg>
