<svg width="71" height="58" viewBox="0 0 71 58" fill="none" xmlns="http://www.w3.org/2000/svg">
<path d="M37.8549 40.0802H56.7822C57.492 40.0802 57.9652 39.6137 57.9652 38.9139V28.4172C57.9652 27.7175 57.492 27.251 56.7822 27.251H37.8549C37.1451 27.251 36.6719 27.7175 36.6719 28.4172V38.9139C36.6718 39.6136 37.1451 40.0802 37.8549 40.0802ZM39.0378 29.5835H55.5993V37.7476H39.0378V29.5835Z" fill="#BEAD8E"/>
<path d="M5.91485 24.918H15.3786C16.0884 24.918 16.5615 24.4515 16.5615 23.7517C16.5615 23.0519 16.0884 22.5854 15.3786 22.5854H5.91485C5.20507 22.5854 4.73193 23.0519 4.73193 23.7517C4.73193 24.4515 5.20507 24.918 5.91485 24.918Z" fill="#BEAD8E"/>
<path d="M20.1104 24.918H29.5742C30.2839 24.918 30.7571 24.4515 30.7571 23.7517C30.7571 23.0519 30.2839 22.5854 29.5742 22.5854H20.1104C19.4006 22.5854 18.9275 23.0519 18.9275 23.7517C18.9275 24.4515 19.4006 24.918 20.1104 24.918Z" fill="#BEAD8E"/>
<path d="M5.91485 29.5835H21.2933C22.0031 29.5835 22.4763 29.117 22.4763 28.4172C22.4763 27.7174 22.0031 27.251 21.2933 27.251H5.91485C5.20507 27.251 4.73193 27.7174 4.73193 28.4172C4.73193 29.117 5.20507 29.5835 5.91485 29.5835Z" fill="#BEAD8E"/>
<path d="M29.574 27.2505H26.0251C25.3154 27.2505 24.8422 27.717 24.8422 28.4167C24.8422 29.1165 25.3154 29.583 26.0251 29.583H29.574C30.2838 29.583 30.757 29.1165 30.757 28.4167C30.757 27.717 30.2838 27.2505 29.574 27.2505Z" fill="#BEAD8E"/>
<path d="M69.9131 12.7885C69.0851 11.7389 68.0205 11.1557 66.7191 11.0391L63.88 10.6999V7.42346V5.09095C63.88 2.52513 61.7507 0.425781 59.1482 0.425781H4.73181C2.12933 0.425645 0 2.52499 0 5.09095V7.4236V16.7541V42.4127C0 44.5193 1.43578 46.3104 3.38988 46.8844C3.33027 49.2437 5.1409 51.292 7.57106 51.5098L62.224 57.5746C62.3422 57.5746 62.5789 57.5746 62.6971 57.5746C65.0631 57.5746 67.1924 55.8251 67.4289 53.6092L70.9778 16.1709C71.0961 15.0045 70.7412 13.7215 69.9131 12.7885ZM2.36597 8.58985H61.5142V11.6223V15.5877H2.36597V8.58985ZM4.73181 2.7583H59.1481C60.4494 2.7583 61.5141 3.80797 61.5141 5.09095V6.2572H2.36597V5.09095C2.36597 3.80797 3.43064 2.7583 4.73181 2.7583ZM2.36597 42.4125V17.9202H61.5142V42.4125C61.5142 43.6955 60.4495 44.7452 59.1482 44.7452H4.8502H4.73195C3.43064 44.7452 2.36597 43.6955 2.36597 42.4125ZM68.6118 15.7043L65.063 53.1426C64.9447 54.4255 63.7616 55.3585 62.4605 55.2419L7.92581 49.1772C6.74289 49.0606 5.91473 48.1275 5.79648 47.0778H59.1481C61.7506 47.0778 63.8799 44.9785 63.8799 42.4127V16.7539V12.9051L66.6008 13.1384C67.1923 13.1384 67.7837 13.4883 68.1386 13.9548C68.4936 14.4213 68.7302 15.1211 68.6118 15.7043Z" fill="#BEAD8E"/>
</svg>
