<svg width="67" height="70" viewBox="0 0 67 70" fill="none" xmlns="http://www.w3.org/2000/svg">
<path d="M39.3467 27.0215C37.1739 27.0215 35.5371 27.9527 35.5371 30.4924V34.6689C35.5371 37.2086 37.1739 38.1399 39.3467 38.1399C41.4913 38.1399 43.1563 37.2088 43.1563 34.6689V30.4924C43.1563 27.9527 41.4913 27.0215 39.3467 27.0215ZM41.1245 34.6689C41.1245 35.826 40.4472 36.3338 39.3467 36.3338C38.2462 36.3338 37.5971 35.8258 37.5971 34.6689V30.4924C37.5971 29.3355 38.2462 28.8275 39.3467 28.8275C40.4472 28.8275 41.1245 29.3355 41.1245 30.4924V34.6689Z" fill="#BEAD8E"/>
<path d="M38.2462 16.3262C37.9076 16.3262 37.5689 16.4674 37.3997 16.8342L27.0432 37.5754C26.9586 37.7164 26.9303 37.8576 26.9303 37.9987C26.9303 38.5067 27.3818 39.0428 28.0308 39.0428C28.4259 39.0428 28.821 38.8454 28.9903 38.5067L39.3468 17.8502C39.4032 17.7091 39.4314 17.568 39.4314 17.3987C39.4314 16.7494 38.8106 16.3262 38.2462 16.3262Z" fill="#BEAD8E"/>
<path d="M26.8738 17.4268C24.7009 17.4268 23.0642 18.358 23.0642 20.8978V25.0742C23.0642 27.6139 24.701 28.5452 26.8738 28.5452C29.0184 28.5452 30.6834 27.614 30.6834 25.0742V20.8978C30.6834 18.358 29.0184 17.4268 26.8738 17.4268ZM28.6515 25.0742C28.6515 26.2312 27.9742 26.7391 26.8737 26.7391C25.7731 26.7391 25.1241 26.2311 25.1241 25.0742V20.8978C25.1241 19.7407 25.7731 19.2329 26.8737 19.2329C27.9742 19.2329 28.6515 19.7409 28.6515 20.8978V25.0742Z" fill="#BEAD8E"/>
<path d="M60.0671 27.3162C60.7781 26.3348 61.0537 25.137 60.8432 23.9437C60.6328 22.7503 59.9641 21.719 58.9604 21.0399C58.0741 20.4403 57.6759 19.3462 57.9694 18.3171C58.3018 17.1517 58.1512 15.932 57.5453 14.8825C56.9393 13.833 55.9584 13.0927 54.783 12.7979C53.745 12.5375 52.9967 11.6455 52.9205 10.5783C52.8343 9.3695 52.2755 8.27473 51.3472 7.49573C50.4189 6.71685 49.2441 6.35686 48.0384 6.48157C46.9741 6.59188 45.9656 6.00969 45.529 5.03269C45.0345 3.92641 44.1351 3.08878 42.9964 2.67435C41.8576 2.25978 40.6303 2.32338 39.5403 2.85297C38.5779 3.32079 37.4312 3.11835 36.6867 2.34981C35.8436 1.47947 34.7119 1 33.5 1C32.2882 1 31.1565 1.47947 30.3135 2.34995C29.5692 3.11861 28.4224 3.32079 27.46 2.8531C26.37 2.32338 25.1426 2.25991 24.0038 2.67448C22.8651 3.08891 21.9656 3.92654 21.4712 5.03282C21.0345 6.00969 20.0268 6.59228 18.9618 6.4817C17.7568 6.35647 16.5814 6.71685 15.6531 7.49586C14.7247 8.27487 14.166 9.3695 14.0797 10.5784C14.0036 11.6457 13.2552 12.5376 12.2172 12.798C11.0418 13.0928 10.0608 13.8331 9.4549 14.8826C8.84902 15.9321 8.69827 17.1518 9.03079 18.3173C9.32431 19.3462 8.92597 20.4405 8.03966 21.0401C7.03597 21.7192 6.36728 22.7505 6.15699 23.9438C5.94656 25.1373 6.22215 26.335 6.93311 27.3163C7.56071 28.1829 7.56071 29.3473 6.93311 30.2138C6.22215 31.1953 5.94656 32.3929 6.15699 33.5865C6.36741 34.7799 7.0361 35.8111 8.03979 36.4901C8.9261 37.0897 9.32431 38.1838 9.03079 39.2129C8.69841 40.3783 8.84902 41.5981 9.4549 42.6474C10.0608 43.6969 11.0418 44.4373 12.2172 44.7323C13.2551 44.9926 14.0036 45.8845 14.0797 46.9519C14.166 48.1607 14.7247 49.2553 15.6531 50.0343C16.5814 50.8133 17.7565 51.1736 18.9618 51.0485C20.0264 50.938 21.0346 51.5204 21.4712 52.4974C21.9657 53.6036 22.8651 54.4411 24.0038 54.8557C25.1426 55.2703 26.3699 55.2068 27.4598 54.6771C28.4222 54.2095 29.569 54.4117 30.3134 55.1804C31.1564 56.0508 32.288 56.5302 33.4999 56.5302C34.7118 56.5302 35.8435 56.0508 36.6865 55.1804C37.4309 54.4117 38.5775 54.2095 39.54 54.6771C40.6299 55.2068 41.8574 55.2703 42.9961 54.8557C44.1349 54.4413 45.0344 53.6038 45.5288 52.4974C45.9653 51.5204 46.9735 50.9382 48.0381 51.0485C49.2435 51.1736 50.4186 50.8132 51.3469 50.0343C52.2752 49.2553 52.834 48.1607 52.9202 46.9519C52.9964 45.8846 53.7448 44.9927 54.7828 44.7323C55.9581 44.4375 56.9392 43.6971 57.5451 42.6476C58.1509 41.5981 58.3017 40.3783 57.9692 39.213C57.6757 38.1841 58.074 37.0898 58.9602 36.4902C59.9639 35.8112 60.6326 34.7799 60.843 33.5866C61.0534 32.3932 60.7778 31.1954 60.0669 30.214C59.4394 29.3471 59.4394 28.1828 60.0671 27.3162ZM58.4747 31.3672C58.8704 31.9136 59.0239 32.5804 58.9068 33.2448C58.7897 33.9093 58.4174 34.4834 57.8586 34.8614C56.2667 35.9385 55.5514 37.9038 56.0785 39.7522C56.2636 40.401 56.1797 41.0801 55.8424 41.6643C55.5051 42.2486 54.959 42.6608 54.3046 42.8249C52.4404 43.2926 51.0959 44.8948 50.9592 46.8119C50.9111 47.4848 50.6001 48.0943 50.0832 48.528C49.5664 48.9615 48.9124 49.1621 48.2411 49.0927C46.3298 48.8948 44.5181 49.9402 43.7338 51.6949C43.4584 52.3109 42.9578 52.7771 42.3238 53.008C41.6897 53.2388 41.0064 53.2033 40.3996 52.9085C38.671 52.0684 36.6112 52.4318 35.2741 53.8124C34.8048 54.2969 34.1748 54.5639 33.5 54.5639C32.8253 54.5639 32.1954 54.2969 31.726 53.8124C30.869 52.9274 29.7149 52.4606 28.5417 52.4606C27.8845 52.4606 27.2212 52.607 26.6005 52.9086C25.9938 53.2036 25.3103 53.2388 24.6763 53.0081C24.0423 52.7774 23.5417 52.311 23.2663 51.6951C22.4821 49.9405 20.6702 48.8949 18.7591 49.0928C18.0877 49.1621 17.4338 48.9618 16.917 48.5281C16.4001 48.0945 16.0891 47.485 16.0411 46.812C15.9043 44.8949 14.5599 43.2927 12.6956 42.8251C12.0412 42.6609 11.495 42.2487 11.1578 41.6646C10.8204 41.0803 10.7367 40.4011 10.9217 39.7524C11.4488 37.9042 10.7334 35.9388 9.14163 34.8617C8.58286 34.4836 8.21069 33.9096 8.09344 33.2451C7.97619 32.5807 8.12969 31.9138 8.52554 31.3675C9.65302 29.8109 9.65302 27.7194 8.52554 26.1629C8.12982 25.6166 7.97632 24.9498 8.09344 24.2854C8.21069 23.6209 8.58286 23.0468 9.14163 22.6687C10.7335 21.5916 11.4488 19.6264 10.9217 17.778C10.7367 17.1292 10.8206 16.4502 11.1579 15.8659C11.4953 15.2816 12.0413 14.8695 12.6958 14.7053C14.5599 14.2376 15.9043 12.6354 16.0411 10.7184C16.0891 10.0454 16.4003 9.43598 16.917 9.00231C17.4339 8.56864 18.0886 8.36817 18.7591 8.43765C20.6707 8.63564 22.4821 7.59021 23.2665 5.83538C23.5418 5.21943 24.0426 4.75305 24.6765 4.52234C25.3106 4.29151 25.9938 4.32697 26.6006 4.62179C28.3291 5.46191 30.389 5.09865 31.7261 3.71808C32.1955 3.23338 32.8255 2.96655 33.5002 2.96655C34.1749 2.96655 34.8048 3.23351 35.2742 3.71808C36.6112 5.09878 38.6711 5.46191 40.3997 4.62179C41.0065 4.32697 41.6898 4.29164 42.3239 4.52234C42.9578 4.75305 43.4586 5.21943 43.7339 5.83538C44.5181 7.59008 46.3295 8.63564 48.2412 8.43765C48.9125 8.36856 49.5664 8.56864 50.0833 9.00231C50.6001 9.43598 50.9113 10.0454 50.9593 10.7184C51.0961 12.6355 52.4405 14.2376 54.3047 14.7053C54.9591 14.8695 55.5052 15.2816 55.8426 15.8659C56.1799 16.4502 56.2638 17.1292 56.0788 17.778C55.5517 19.6263 56.2671 21.5916 57.8589 22.6687C58.4176 23.0468 58.7899 23.6209 58.9072 24.2854C59.0243 24.9498 58.8708 25.6166 58.4751 26.1629C57.3472 27.7193 57.3472 29.8108 58.4747 31.3672Z" fill="#BEAD8E"/>
<path d="M53.2726 30.1383C52.7335 30.0747 52.2446 30.46 52.1807 30.9992C51.063 40.4501 43.0322 47.577 33.5 47.577C23.968 47.577 15.937 40.4501 14.8193 30.9992C14.7555 30.4599 14.2658 30.0744 13.7274 30.1383C13.1883 30.2021 12.8028 30.6909 12.8665 31.2302C14.1012 41.6704 22.9717 49.5434 33.5 49.5434C44.0284 49.5434 52.8989 41.6704 54.1335 31.2302C54.1973 30.6908 53.8117 30.202 53.2726 30.1383Z" fill="#BEAD8E"/>
<path d="M54.1485 26.4308C52.9725 15.916 44.0955 7.98682 33.5001 7.98682C22.9046 7.98682 14.0277 15.916 12.8515 26.4308C12.7912 26.9703 13.1797 27.4567 13.7194 27.5172C14.2579 27.5773 14.7453 27.189 14.8058 26.6493C15.8703 17.131 23.9072 9.95311 33.5001 9.95311C43.093 9.95311 51.1298 17.1309 52.1944 26.6493C52.2505 27.1518 52.6762 27.5233 53.1702 27.5233C53.2067 27.5233 53.2436 27.5214 53.2806 27.5172C53.8203 27.4569 54.2088 26.9705 54.1485 26.4308Z" fill="#BEAD8E"/>
<path d="M46.0702 53.5635C45.5273 53.5635 45.0871 54.0037 45.0871 54.5466V65.5408L33.879 60.8608C33.6366 60.7596 33.3636 60.7596 33.1214 60.8608L21.9133 65.5408V54.5466C21.9133 54.0037 21.4731 53.5635 20.9302 53.5635C20.3872 53.5635 19.947 54.0037 19.947 54.5466V67.0167C19.947 67.3456 20.1115 67.6527 20.3851 67.835C20.6588 68.0174 21.0055 68.0507 21.309 67.924L33.5001 62.8336L45.6914 67.924C45.8132 67.9749 45.9418 67.9999 46.0701 67.9999C46.2613 67.9999 46.4514 67.9441 46.6151 67.835C46.8889 67.6527 47.0532 67.3457 47.0532 67.0167V54.5466C47.0534 54.0036 46.6132 53.5635 46.0702 53.5635Z" fill="#BEAD8E"/>
</svg>
