<svg width="54" height="53" viewBox="0 0 54 53" fill="none" xmlns="http://www.w3.org/2000/svg">
<g clip-path="url(#clip0_67_677)">
<path d="M26.7313 9.52148C25.2819 9.52148 23.8868 9.95103 22.697 10.7637C22.3453 11.0039 22.2564 11.4816 22.4984 11.8307C22.7405 12.1798 23.2218 12.268 23.5735 12.0279C24.5043 11.3921 25.5962 11.0561 26.7313 11.0561C29.8073 11.0561 32.3097 13.5396 32.3097 16.5924C32.3097 19.6451 29.8073 22.1288 26.7313 22.1288C23.6554 22.1288 21.153 19.6451 21.153 16.5924C21.153 15.6918 21.3637 14.8333 21.7792 14.0409C21.9762 13.6649 21.829 13.2016 21.4502 13.0061C21.0713 12.8107 20.6048 12.9566 20.4076 13.3326C19.8838 14.3318 19.6069 15.459 19.6069 16.5924C19.607 20.4914 22.8029 23.6633 26.7313 23.6633C30.6597 23.6633 33.8557 20.4914 33.8557 16.5924C33.8557 12.6935 30.6597 9.52148 26.7313 9.52148Z" fill="#BEAD8E"/>
<path d="M53.137 51.0985L45.5072 32.9039C45.3873 32.6179 45.1058 32.4315 44.7936 32.4315H37.1904C38.6692 30.4459 39.9002 28.4682 40.8615 26.5263C42.5652 23.0848 43.4289 19.7427 43.4289 16.5925C43.4288 7.45463 35.9384 0.0205078 26.7314 0.0205078C17.5243 0.0205078 10.0339 7.45463 10.0339 16.5924C10.0339 19.7426 10.8976 23.0848 12.6013 26.5262C13.5625 28.4681 14.7935 30.4459 16.2724 32.4314H8.66921C8.357 32.4314 8.0754 32.6179 7.95558 32.9038L2.75645 45.302C2.59239 45.6932 2.77889 46.1423 3.17307 46.305C3.27025 46.3452 3.37073 46.3642 3.46977 46.3642C3.77267 46.3642 4.06016 46.1864 4.1837 45.8916L4.92555 44.1225H10.1882L7.46102 50.6259H2.19852L2.98905 48.7407C3.15312 48.3494 2.96662 47.9003 2.57244 47.7376C2.17805 47.5745 1.72566 47.7599 1.5617 48.151L0.325808 51.0985C0.226461 51.3352 0.252926 51.6057 0.396415 51.819C0.539699 52.0323 0.780985 52.1605 1.03943 52.1605H52.4233C52.6816 52.1605 52.923 52.0323 53.0664 51.819C53.2098 51.6057 53.2364 51.3352 53.137 51.0985ZM11.58 16.5924C11.58 8.30069 18.3769 1.55497 26.7314 1.55497C35.0858 1.55497 41.8827 8.30079 41.8827 16.5924C41.8827 20.0694 40.6654 25.6255 35.0343 32.706C35.0287 32.7126 35.0236 32.7196 35.0182 32.7264C34.7306 33.0877 34.4319 33.4527 34.1208 33.8219C31.0264 37.4943 27.8951 40.1759 26.7313 41.1287C25.5708 40.1792 22.4543 37.511 19.3621 33.8456C19.0433 33.4677 18.7375 33.0941 18.4432 32.7244C18.4384 32.7185 18.434 32.7124 18.429 32.7066C12.7982 25.6266 11.58 20.0707 11.58 16.5924ZM9.18476 33.966H14.4475L12.5279 38.5433H7.26532L9.18476 33.966ZM13.7053 50.626L18.5373 39.1035L32.2882 50.626H13.7053ZM34.6848 50.626L18.7281 37.255C18.5397 37.097 18.2866 37.0379 18.0474 37.0955C17.808 37.153 17.6103 37.3206 17.5158 37.5463L12.0308 50.6259H9.13576L12.061 43.65C12.1603 43.4132 12.1338 43.1428 11.9904 42.9295C11.8471 42.7161 11.6057 42.5879 11.3472 42.5879H5.56929L6.62189 40.0777H13.0436C13.3558 40.0777 13.6374 39.8912 13.7572 39.6053L16.1221 33.9659H17.4638C17.6967 34.2541 17.9334 34.5424 18.1764 34.8306C22.1653 39.5588 26.093 42.5944 26.2583 42.7214C26.3977 42.8285 26.5645 42.8818 26.7314 42.8818C26.8982 42.8818 27.0652 42.8284 27.2044 42.7214C27.2953 42.6517 28.5232 41.7022 30.272 40.0778H39.0262C39.4532 40.0778 39.7993 39.7343 39.7993 39.3105C39.7993 38.8868 39.4532 38.5433 39.0262 38.5433H31.8653C32.9371 37.4737 34.1086 36.2266 35.2864 34.8307C35.5294 34.5425 35.7663 34.2543 35.9991 33.966H44.278L46.1974 38.5433H42.1184C41.6914 38.5433 41.3453 38.8868 41.3453 39.3105C41.3453 39.7343 41.6913 40.0778 42.1184 40.0778H46.8408L47.8934 42.588H31.9659C31.6432 42.588 31.3546 42.7868 31.2416 43.0868C31.1288 43.3868 31.2154 43.7248 31.4591 43.9347L39.2263 50.626H34.6848ZM41.5849 50.626L34.0358 44.1226H48.5371L51.2643 50.626H41.5849Z" fill="#BEAD8E"/>
</g>
<defs>
<clipPath id="clip0_67_677">
<rect width="52.93" height="52.14" fill="white" transform="translate(0.266357 0.0205078)"/>
</clipPath>
</defs>
</svg>
