<svg width="53" height="41" viewBox="0 0 53 41" fill="none" xmlns="http://www.w3.org/2000/svg">
<path d="M7.00501 24.5312C6.86028 24.3874 6.66076 24.3047 6.4571 24.3047C6.25241 24.3047 6.05289 24.3874 5.90816 24.5312C5.76447 24.6759 5.68176 24.8754 5.68176 25.08C5.68176 25.2837 5.76447 25.4842 5.90816 25.6279C6.05289 25.7727 6.25241 25.8554 6.4571 25.8554C6.66076 25.8554 6.86028 25.7727 7.00501 25.6279C7.14974 25.4842 7.23245 25.2837 7.23245 25.08C7.23245 24.8753 7.14974 24.6758 7.00501 24.5312Z" fill="#BEAD8E"/>
<path d="M51.6378 22.3286H49.5399V20.8418C49.5399 20.1293 48.9603 19.5496 48.2477 19.5496H47.6871V15.6118H50.7115C51.092 15.6118 51.4353 15.4465 51.6536 15.1583C51.8717 14.8701 51.9377 14.4947 51.8343 14.1285L50.1267 8.07599C49.9559 7.4704 49.3525 7.01367 48.7232 7.01367H45.1003C44.471 7.01367 43.8677 7.4703 43.6968 8.07599L41.9893 14.1286C41.886 14.4948 41.9519 14.8702 42.17 15.1584C42.3881 15.4466 42.7316 15.6119 43.1121 15.6119H46.1364V19.5497H45.5759C44.8633 19.5497 44.2837 20.1294 44.2837 20.8419V22.3287H42.4865V20.2863C42.4865 19.5737 41.9068 18.994 41.1942 18.994H20.2623C19.8341 18.994 19.4869 19.3412 19.4869 19.7694C19.4869 20.1976 19.8341 20.5447 20.2623 20.5447H40.9359V26.2809H39.8499V25.1487C39.8499 23.8661 38.8065 22.8227 37.5239 22.8227H29.4841C28.2015 22.8227 27.1581 23.8661 27.1581 25.1487V26.2809H26.094V25.1487C26.094 23.8661 25.0506 22.8227 23.7679 22.8227H15.7282C14.4455 22.8227 13.4021 23.8661 13.4021 25.1487V26.2809H11.9941V20.5447H16.7473C17.1755 20.5447 17.5226 20.1976 17.5226 19.7694C17.5226 19.3412 17.1755 18.994 16.7473 18.994H11.7357C11.0231 18.994 10.4434 19.5737 10.4434 20.2863V22.3287H8.6462V20.8421C8.6462 20.1295 8.06655 19.5498 7.35396 19.5498H6.79354V15.6118H9.81779C10.1983 15.6118 10.5417 15.4465 10.7599 15.1583C10.978 14.8701 11.044 14.4947 10.9406 14.1285L9.23308 8.07599C9.0623 7.4704 8.45888 7.01367 7.82961 7.01367H4.20669C3.57743 7.01367 2.97411 7.4703 2.80322 8.07599L1.09582 14.1285C0.992541 14.4947 1.05839 14.8701 1.27652 15.1583C1.49465 15.4465 1.83808 15.6118 2.21861 15.6118H5.24286V19.5497H4.68255C3.96996 19.5497 3.39031 20.1294 3.39031 20.8419V22.3286H1.29224C0.579646 22.3286 0 22.9083 0 23.6209V27.1797V32.9617C0 33.6743 0.579646 34.2539 1.29224 34.2539H6.54595V39.2607C6.54595 39.9732 7.1256 40.5529 7.83819 40.5529H11.3898C12.1024 40.5529 12.682 39.9732 12.682 39.2607V36.7653H31.9441C32.3723 36.7653 32.7194 36.4182 32.7194 35.99C32.7194 35.5618 32.3723 35.2146 31.9441 35.2146H12.4236C11.711 35.2146 11.1313 35.7943 11.1313 36.5069V39.0022H8.09664V32.1544H44.8335V39.0022H41.7988V36.5069C41.7988 35.7943 41.2191 35.2146 40.5065 35.2146H35.6657C35.2375 35.2146 34.8904 35.5618 34.8904 35.99C34.8904 36.4182 35.2375 36.7653 35.6657 36.7653H40.2481V39.2607C40.2481 39.9732 40.8277 40.5529 41.5403 40.5529H45.0919C45.8044 40.5529 46.3842 39.9732 46.3842 39.2607V34.2539H51.6378C52.3504 34.2539 52.93 33.6743 52.93 32.9617V23.6209C52.93 22.9084 52.3504 22.3286 51.6378 22.3286ZM43.6196 14.0611L45.1703 8.56425H48.6532L50.204 14.0611H43.6196ZM45.8345 21.1004H47.9892V22.2669H45.8345V21.1004ZM28.7088 25.1487C28.7088 24.7211 29.0567 24.3734 29.4842 24.3734H37.524C37.9515 24.3734 38.2993 24.7211 38.2993 25.1487V26.2809H28.7088V25.1487ZM15.7282 24.3734H23.7679C24.1954 24.3734 24.5433 24.7211 24.5433 25.1487V26.2809H14.9528V25.1487C14.9528 24.7211 15.3007 24.3734 15.7282 24.3734ZM2.726 14.0611L4.27668 8.56436H7.75952L9.3103 14.0611H2.726ZM4.94089 21.1004H7.09551V22.2669H4.94089V21.1004ZM7.46292 28.6068V30.6596C6.9329 30.8208 6.54585 31.3138 6.54585 31.8958V32.7032H1.55068V27.955H7.55658C7.496 28.162 7.46292 28.3805 7.46292 28.6068ZM1.55068 26.4044V23.8793H10.4434V26.2808H9.78895C9.52792 26.2808 9.27712 26.3246 9.04266 26.4044H1.55068ZM43.9164 30.6037H9.01361V28.6069C9.01361 28.1795 9.36148 27.8316 9.78895 27.8316H43.1411C43.5685 27.8316 43.9164 28.1795 43.9164 28.6069V30.6037ZM51.3793 32.7032H46.3842V31.8958C46.3842 31.3138 45.9972 30.8208 45.4671 30.6596V28.6068C45.4671 28.3805 45.434 28.162 45.3734 27.955H51.3793V32.7032ZM51.3793 26.4044H43.8873C43.6529 26.3246 43.4021 26.2808 43.1411 26.2808H42.4867V23.8793H51.3793V26.4044Z" fill="#BEAD8E"/>
<path d="M47.0219 24.5321C46.8772 24.3874 46.6777 24.3047 46.473 24.3047C46.2693 24.3047 46.0698 24.3874 45.9251 24.5321C45.7803 24.6758 45.6976 24.8753 45.6976 25.08C45.6976 25.2837 45.7803 25.4832 45.9251 25.6279C46.0688 25.7727 46.2693 25.8554 46.473 25.8554C46.6777 25.8554 46.8772 25.7727 47.0219 25.6279C47.1656 25.4832 47.2483 25.2837 47.2483 25.08C47.2483 24.8764 47.1656 24.6758 47.0219 24.5321Z" fill="#BEAD8E"/>
<path d="M37.9513 4.49334C38.3795 4.49334 38.7266 4.14619 38.7266 3.718V1.67017C38.7266 0.957575 38.147 0.37793 37.4344 0.37793H15.4957C14.7831 0.37793 14.2035 0.957575 14.2035 1.67017V13.1667C14.2035 13.8793 14.7831 14.459 15.4957 14.459H37.4344C38.147 14.459 38.7266 13.8793 38.7266 13.1667V7.23288C38.7266 6.80468 38.3795 6.45754 37.9513 6.45754C37.5231 6.45754 37.1759 6.80468 37.1759 7.23288V9.4272L33.5104 3.0785C33.3719 2.83866 33.1159 2.69083 32.839 2.69083C32.5619 2.69083 32.3061 2.83866 32.1675 3.0785L28.8683 8.79307L26.5673 4.80761C26.5662 4.80565 26.5647 4.80399 26.5636 4.80203C26.4979 4.69028 26.4038 4.5932 26.2835 4.52384C25.9126 4.30963 25.4385 4.43679 25.2244 4.80761L20.5474 12.9084H15.7542V1.92861H37.1759V3.718C37.1759 4.14619 37.5231 4.49334 37.9513 4.49334ZM32.839 5.01685L37.1759 12.5286V12.9084H28.283L32.839 5.01685ZM25.8959 6.74596L27.973 10.3438L26.4924 12.9084H22.338L25.8959 6.74596Z" fill="#BEAD8E"/>
<path d="M19.9191 2.81445C18.4701 2.81435 17.2911 3.99328 17.2911 5.44245C17.2911 6.89151 18.4701 8.07034 19.9191 8.07034C21.3682 8.07034 22.547 6.89151 22.547 5.44245C22.547 3.99328 21.3682 2.81445 19.9191 2.81445ZM19.9191 6.51966C19.3251 6.51966 18.8418 6.03636 18.8418 5.44245C18.8418 4.84833 19.3251 4.36514 19.9191 4.36514C20.513 4.36503 20.9963 4.84833 20.9963 5.44245C20.9963 6.03646 20.513 6.51966 19.9191 6.51966Z" fill="#BEAD8E"/>
</svg>
