<svg width="16" height="16" viewBox="0 0 16 16" fill="none" xmlns="http://www.w3.org/2000/svg">
<g clip-path="url(#clip0_57_7521)">
<path d="M14.5912 3.9788C14.5618 3.93931 14.5248 3.90601 14.4825 3.8808C14.4402 3.85559 14.3933 3.83898 14.3445 3.83189C14.2958 3.82481 14.2461 3.82741 14.1983 3.83953C14.1506 3.85166 14.1057 3.87307 14.0662 3.90255L8.01748 8.41755C7.99584 8.43378 7.96952 8.44255 7.94248 8.44255C7.91543 8.44255 7.88911 8.43378 7.86748 8.41755L1.93747 3.88255C1.89832 3.85268 1.85367 3.8308 1.80607 3.81818C1.75847 3.80557 1.70884 3.80245 1.66003 3.809C1.61123 3.81556 1.56419 3.83167 1.5216 3.85641C1.47902 3.88114 1.44172 3.91403 1.41185 3.95318C1.38197 3.99233 1.3601 4.03698 1.34748 4.08458C1.33486 4.13218 1.33174 4.18181 1.3383 4.23062C1.34486 4.27943 1.36097 4.32646 1.3857 4.36905C1.41044 4.41163 1.44332 4.44893 1.48247 4.4788L6.14497 8.04505L1.53372 11.52C1.494 11.5497 1.4605 11.5868 1.43514 11.6294C1.40977 11.672 1.39305 11.7191 1.38591 11.7682C1.37877 11.8172 1.38136 11.8672 1.39353 11.9152C1.4057 11.9633 1.42722 12.0084 1.45685 12.0482C1.48648 12.0879 1.52364 12.1214 1.56622 12.1468C1.60879 12.1721 1.65595 12.1889 1.70499 12.196C1.75403 12.2031 1.804 12.2005 1.85204 12.1884C1.90008 12.1762 1.94525 12.1547 1.98497 12.125L6.76373 8.51755L7.41123 9.01755C7.5622 9.13312 7.74672 9.19636 7.93684 9.19772C8.12697 9.19907 8.31237 9.13846 8.46498 9.02505L9.14498 8.51755L13.98 12.125C14.0195 12.1545 14.0644 12.1759 14.1121 12.188C14.1599 12.2001 14.2095 12.2027 14.2583 12.1957C14.307 12.1886 14.3539 12.172 14.3962 12.1468C14.4386 12.1216 14.4755 12.0883 14.505 12.0488C14.5344 12.0093 14.5558 11.9644 14.568 11.9167C14.5801 11.8689 14.5827 11.8193 14.5756 11.7705C14.5685 11.7218 14.5519 11.6749 14.5267 11.6325C14.5015 11.5902 14.4682 11.5533 14.4287 11.5238L9.77123 8.0438L14.515 4.50005C14.5937 4.44064 14.6458 4.35263 14.66 4.25507C14.6743 4.15752 14.6496 4.05826 14.5912 3.9788Z" fill="#BEAD8E"/>
<path d="M14.125 2.375H1.875C1.37772 2.375 0.900805 2.57254 0.549175 2.92417C0.197544 3.27581 0 3.75272 0 4.25L0 11.75C0 12.2473 0.197544 12.7242 0.549175 13.0758C0.900805 13.4275 1.37772 13.625 1.875 13.625H14.125C14.6223 13.625 15.0992 13.4275 15.4508 13.0758C15.8025 12.7242 16 12.2473 16 11.75V4.25C16 3.75272 15.8025 3.27581 15.4508 2.92417C15.0992 2.57254 14.6223 2.375 14.125 2.375ZM15.25 11.75C15.25 12.0484 15.1315 12.3345 14.9205 12.5455C14.7095 12.7565 14.4234 12.875 14.125 12.875H1.875C1.57663 12.875 1.29048 12.7565 1.0795 12.5455C0.868526 12.3345 0.75 12.0484 0.75 11.75V4.25C0.75 3.95163 0.868526 3.66548 1.0795 3.4545C1.29048 3.24353 1.57663 3.125 1.875 3.125H14.125C14.4234 3.125 14.7095 3.24353 14.9205 3.4545C15.1315 3.66548 15.25 3.95163 15.25 4.25V11.75Z" fill="#BEAD8E"/>
</g>
<defs>
<clipPath id="clip0_57_7521">
<rect width="16" height="16" fill="white"/>
</clipPath>
</defs>
</svg>
