<svg width="16" height="16" viewBox="0 0 16 16" fill="none" xmlns="http://www.w3.org/2000/svg">
<g clip-path="url(#clip0_57_7518)">
<path d="M15.0751 11.8376C14.8269 11.4325 14.4417 10.9608 13.9891 10.5089C13.6616 10.1813 12.5372 9.11343 11.8143 9.11343C11.5823 9.11343 11.4351 9.21259 11.3527 9.29492L10.39 10.2571C10.3738 10.2733 10.3221 10.2919 10.2289 10.2919C9.69467 10.2919 8.56186 9.70057 7.43025 8.56956C5.92123 7.05995 5.55825 5.79432 5.74275 5.60983L6.70429 4.64769C6.78722 4.56475 6.88638 4.41752 6.88638 4.18615C6.88698 3.46259 5.81847 2.33819 5.49095 2.01067C5.16402 1.68314 4.04022 0.615234 3.31607 0.615234C3.0847 0.615234 2.93746 0.713792 2.85453 0.796725L0.929648 2.7216C0.361138 3.28951 0.56847 4.40069 1.54623 6.02389C2.39479 7.43254 3.73794 9.08398 5.32688 10.6729C8.14539 13.4914 10.9994 15.3851 12.4284 15.3845C12.7842 15.3845 13.0697 15.2787 13.2782 15.0702L15.2031 13.1453C15.6196 12.7288 15.2097 12.0581 15.0751 11.8376ZM12.6256 14.4175C12.6039 14.4386 12.5414 14.4614 12.4284 14.4614C11.4555 14.4614 8.86474 12.9049 5.97953 10.0203C4.44167 8.48242 3.1484 6.89408 2.3371 5.54733C1.42304 4.0305 1.50897 3.44757 1.58229 3.37425L3.39419 1.56235C3.63037 1.6537 4.17784 2.00225 4.8383 2.66331C5.49876 3.32437 5.84792 3.87124 5.93926 4.10742L5.0901 4.95718C4.20489 5.8424 5.34431 7.78831 6.7776 9.22221C8.00717 10.4518 9.32989 11.215 10.2289 11.215C10.649 11.215 10.9032 11.0491 11.0426 10.9097L11.8924 10.0605C12.1286 10.1519 12.6754 10.5011 13.3365 11.1615C13.997 11.822 14.3461 12.3694 14.4375 12.6056L12.6256 14.4175Z" fill="#BEAD8E"/>
</g>
<defs>
<clipPath id="clip0_57_7518">
<rect width="16" height="16" fill="white"/>
</clipPath>
</defs>
</svg>
