<svg width="16" height="16" viewBox="0 0 16 16" fill="none" xmlns="http://www.w3.org/2000/svg">
<g clip-path="url(#clip0_57_7484)">
<path d="M10.9735 8.166C11.6095 7.4575 12 6.5245 12 5.5C12 3.2945 10.2055 1.5 8 1.5C5.7945 1.5 4 3.2945 4 5.5C4 7.7055 5.7945 9.5 8 9.5C8.7775 9.5 9.5015 9.2735 10.1165 8.888C12.2915 9.7075 13.789 11.698 13.9795 14H2.021C2.1505 12.4505 2.8775 11.0055 4.06 9.9745C4.2685 9.793 4.29 9.4775 4.1085 9.269C3.9275 9.061 3.6115 9.039 3.403 9.2205C1.8755 10.5515 1 12.4755 1 14.5C1 14.7765 1.224 15 1.5 15H14.5C14.7765 15 15 14.7765 15 14.5C15 11.757 13.41 9.3075 10.9735 8.166ZM5 5.5C5 3.8455 6.3455 2.5 8 2.5C9.6545 2.5 11 3.8455 11 5.5C11 7.1545 9.6545 8.5 8 8.5C6.3455 8.5 5 7.1545 5 5.5Z" fill="#BEAD8E"/>
</g>
<defs>
<clipPath id="clip0_57_7484">
<rect width="16" height="16" fill="white"/>
</clipPath>
</defs>
</svg>
