<svg width="16" height="16" viewBox="0 0 16 16" fill="none" xmlns="http://www.w3.org/2000/svg">
<path d="M15.546 2.88058L13.1196 0.454198C12.8267 0.161288 12.4373 0 12.0231 0C11.6089 0 11.2195 0.161288 10.9266 0.454188L0.769599 10.611C0.673192 10.7075 0.611047 10.8328 0.592727 10.9679L0.00566508 15.2929C-0.0205025 15.4858 0.0449164 15.6798 0.182565 15.8174C0.300224 15.9351 0.459079 16 0.623225 16C0.651071 16 0.679097 15.9981 0.707095 15.9943L5.03208 15.4073C5.1672 15.3889 5.29257 15.3268 5.38898 15.2304L15.546 5.07357C15.8389 4.78069 16.0001 4.39127 16.0001 3.97709C16.0001 3.56287 15.8388 3.17346 15.546 2.88058ZM4.65618 14.2004L1.35098 14.649L1.79962 11.3438L8.99714 4.14641L11.8537 7.00296L4.65618 14.2004ZM14.6645 4.19214L12.7351 6.12153L9.87855 3.265L11.808 1.33561C11.8855 1.25809 11.976 1.24651 12.0231 1.24651C12.0701 1.24651 12.1606 1.25809 12.2382 1.33561L14.6646 3.76199C14.7421 3.83951 14.7536 3.93002 14.7536 3.97706C14.7536 4.0241 14.7421 4.11462 14.6645 4.19214Z" fill="#BEAD8E"/>
</svg>
