<svg width="16" height="16" viewBox="0 0 16 16" fill="none" xmlns="http://www.w3.org/2000/svg">
<path d="M2.75 14.25C2.47384 14.25 2.25 14.0261 2.25 13.75V2.0625C2.25 0.925219 3.17522 0 4.3125 0H13.25C13.5262 0 13.75 0.223875 13.75 0.5V12C13.75 12.2761 13.5262 12.5 13.25 12.5C12.9738 12.5 12.75 12.2761 12.75 12V1H4.3125C3.72662 1 3.25 1.47662 3.25 2.0625V13.75C3.25 14.0261 3.02616 14.25 2.75 14.25Z" fill="#BEAD8E"/>
<path d="M13.25 16H4.5C3.25934 16 2.25 14.9907 2.25 13.75C2.25 12.5093 3.25934 11.5 4.5 11.5H13.25C13.5262 11.5 13.75 11.7239 13.75 12C13.75 12.2761 13.5262 12.5 13.25 12.5H4.5C3.81075 12.5 3.25 13.0608 3.25 13.75C3.25 14.4392 3.81075 15 4.5 15H13.25C13.5262 15 13.75 15.2239 13.75 15.5C13.75 15.7761 13.5262 16 13.25 16Z" fill="#BEAD8E"/>
<path d="M13.25 14.25H4.5C4.22384 14.25 4 14.0261 4 13.75C4 13.4739 4.22384 13.25 4.5 13.25H13.25C13.5262 13.25 13.75 13.4739 13.75 13.75C13.75 14.0261 13.5262 14.25 13.25 14.25Z" fill="#BEAD8E"/>
<path d="M5 12.5C4.72384 12.5 4.5 12.2761 4.5 12V0.5C4.5 0.223875 4.72384 0 5 0C5.27616 0 5.5 0.223875 5.5 0.5V12C5.5 12.2761 5.27616 12.5 5 12.5Z" fill="#BEAD8E"/>
</svg>
