<svg width="24" height="24" viewBox="0 0 24 24" fill="none" xmlns="http://www.w3.org/2000/svg">
<g clip-path="url(#clip0_54_1195)">
<path fill-rule="evenodd" clip-rule="evenodd" d="M21.0678 0C22.6861 0 24 1.31391 24 2.93222V21.0678C24 22.6861 22.6861 24 21.0678 24H2.93222C1.31391 24 0 22.6861 0 21.0678V2.93222C0 1.31391 1.31386 0 2.93222 0H21.0678V0ZM21.3605 15.4995C21.4035 14.8515 21.3508 14.2328 21.2008 13.6404C21.0494 13.047 20.8066 12.518 20.4667 12.0556C20.1263 11.5922 19.6927 11.2221 19.1646 10.9487C18.6338 10.6718 18.0156 10.536 17.3091 10.536C16.6691 10.536 16.0912 10.6496 15.5671 10.8755C15.0435 11.1027 14.5939 11.4134 14.2144 11.8071C13.8359 12.1985 13.5474 12.6653 13.3397 13.2064C13.1355 13.7456 13.0312 14.3288 13.0312 14.9532C13.0312 15.5989 13.1316 16.1949 13.3308 16.7332C13.5323 17.2742 13.815 17.7349 14.1789 18.1245C14.5526 18.5129 14.9964 18.8102 15.5276 19.0228C16.0593 19.2323 16.6514 19.3388 17.3091 19.3388C18.253 19.3388 19.0625 19.1227 19.7269 18.6891C20.3993 18.2568 20.8914 17.5392 21.2163 16.534H19.1961C19.118 16.7923 18.9156 17.0413 18.5832 17.2742C18.2477 17.5077 17.8483 17.6244 17.3858 17.6244C16.7423 17.6244 16.2457 17.4558 15.9018 17.1203C15.5574 16.7847 15.3346 16.1599 15.3346 15.4995H21.3605ZM8.21423 19.1227C8.73173 19.1227 9.23634 19.0575 9.72225 18.9287C10.214 18.7996 10.652 18.6007 11.0341 18.3305C11.4132 18.0624 11.7207 17.715 11.9466 17.2862C12.1707 16.8624 12.2826 16.3591 12.2826 15.7742C12.2826 15.0526 12.1108 14.4375 11.7607 13.9231C11.4123 13.4123 10.8859 13.0532 10.1772 12.8491C10.6978 12.6023 11.0879 12.285 11.3532 11.898C11.6173 11.5102 11.7487 11.0251 11.7487 10.4446C11.7487 9.90802 11.6603 9.45403 11.485 9.09145C11.3048 8.72353 11.0532 8.4315 10.7319 8.2118C10.4053 7.99214 10.0196 7.83192 9.56695 7.73606C9.11203 7.63711 8.61408 7.58963 8.06245 7.58963H2.625V19.1227H8.21423ZM7.92487 13.9826C8.4712 13.9826 8.91544 14.1082 9.24919 14.3611C9.58158 14.6172 9.74934 15.0397 9.74934 15.6339C9.74934 15.9371 9.70008 16.1883 9.59756 16.3818C9.49547 16.5761 9.35437 16.7297 9.18483 16.8415C9.01439 16.9578 8.81334 17.0368 8.58614 17.0861C8.36245 17.1362 8.12456 17.1584 7.87472 17.1584H5.16398V13.9826H7.92487ZM18.5375 12.7324C18.2646 12.4311 17.8035 12.2677 17.2402 12.2677C16.8737 12.2677 16.5705 12.3294 16.3274 12.455C16.0895 12.5793 15.8951 12.7333 15.7464 12.9152C15.5982 13.0998 15.4979 13.2951 15.4389 13.5037C15.3803 13.707 15.3448 13.8911 15.3346 14.054H19.0661C19.0115 13.4691 18.8113 13.0364 18.5375 12.7324ZM7.54008 9.5543C7.76512 9.55434 7.98394 9.57028 8.19338 9.61111C8.40595 9.64795 8.5897 9.71541 8.75212 9.81352C8.91544 9.90802 9.04547 10.0425 9.14353 10.2147C9.23808 10.3869 9.28467 10.6088 9.28467 10.8768C9.28467 11.3606 9.14353 11.7125 8.85155 11.926C8.55642 12.1425 8.18363 12.2491 7.73405 12.2491H5.16398V9.5543H7.54008ZM19.54 9.50152V8.36358H14.865V9.50152H19.54Z" fill="#777777"/>
</g>
<defs>
<clipPath id="clip0_54_1195">
<rect width="24" height="24" fill="white"/>
</clipPath>
</defs>
</svg>
