<svg width="24" height="24" viewBox="0 0 24 24" fill="none" xmlns="http://www.w3.org/2000/svg">
<g clip-path="url(#clip0_54_1191)">
<path d="M12.6477 10.6753V10.6387C12.6401 10.651 12.632 10.6634 12.6239 10.6753H12.6477Z" fill="#777777"/>
<path d="M21.782 0H1.73748C0.778081 0 0 0.759521 0 1.6956V21.9747C0 22.9103 0.778081 23.6698 1.73748 23.6698H21.782C22.7428 23.6698 23.5209 22.9098 23.5209 21.9747V1.6956C23.5209 0.759045 22.7423 0 21.782 0ZM7.12931 19.8146H3.57679V9.12662H7.12931V19.8146ZM5.35329 7.66659H5.32949C4.13787 7.66659 3.36692 6.84568 3.36692 5.82014C3.36692 4.77175 4.16166 3.97368 5.37661 3.97368C6.59203 3.97368 7.33965 4.77175 7.36345 5.82014C7.36345 6.84568 6.59156 7.66659 5.35329 7.66659ZM19.9398 19.8146H16.3873V14.0954C16.3873 12.6592 15.8733 11.6788 14.5879 11.6788C13.6067 11.6788 13.0223 12.3398 12.7648 12.9785C12.6711 13.2064 12.6482 13.5253 12.6482 13.8451V19.8142H9.09569C9.09569 19.8142 9.14233 10.1279 9.09569 9.12615H12.6482V10.639C13.1203 9.91089 13.9645 8.87393 15.8505 8.87393C18.1876 8.87393 19.9403 10.402 19.9403 13.6852V19.8146H19.9398Z" fill="#777777"/>
</g>
<defs>
<clipPath id="clip0_54_1191">
<rect width="24" height="24" fill="white"/>
</clipPath>
</defs>
</svg>
