<svg width="24" height="24" viewBox="0 0 24 24" fill="none" xmlns="http://www.w3.org/2000/svg">
<g clip-path="url(#clip0_54_1199)">
<path d="M21 24H3C1.344 24 0 22.656 0 21V3C0 1.344 1.344 0 3 0H21C22.656 0 24 1.344 24 3V21C24 22.656 22.656 24 21 24ZM9.216 18.096C14.874 18.096 17.97 13.404 17.97 9.342C17.97 9.21 17.97 9.078 17.964 8.946C18.564 8.514 19.086 7.968 19.5 7.35C18.948 7.596 18.354 7.758 17.73 7.836C18.366 7.458 18.852 6.852 19.086 6.132C18.492 6.486 17.832 6.738 17.13 6.876C16.566 6.276 15.768 5.904 14.886 5.904C13.188 5.904 11.808 7.284 11.808 8.982C11.808 9.222 11.838 9.456 11.886 9.684C9.33 9.558 7.062 8.328 5.544 6.468C5.28 6.924 5.13 7.452 5.13 8.016C5.13 9.084 5.676 10.026 6.498 10.578C5.994 10.56 5.52 10.422 5.106 10.194V10.236C5.106 11.724 6.168 12.972 7.572 13.254C7.314 13.326 7.044 13.362 6.762 13.362C6.564 13.362 6.372 13.344 6.186 13.308C6.576 14.532 7.716 15.42 9.06 15.444C8.004 16.272 6.678 16.764 5.238 16.764C4.992 16.764 4.746 16.752 4.506 16.722C5.862 17.586 7.482 18.096 9.216 18.096Z" fill="white"/>
</g>
<defs>
<clipPath id="clip0_54_1199">
<rect width="24" height="24" fill="white"/>
</clipPath>
</defs>
</svg>
