<svg width="24" height="24" viewBox="0 0 24 24" fill="none" xmlns="http://www.w3.org/2000/svg">
<g clip-path="url(#clip0_54_1189)">
<path fill-rule="evenodd" clip-rule="evenodd" d="M21.0678 0C22.6861 0 24 1.31391 24 2.93222V21.0678C24 22.6861 22.6861 24 21.0678 24H2.93222C1.31391 24 0 22.6861 0 21.0678V2.93222C0 1.31391 1.31386 0 2.93222 0H21.0678V0ZM20.085 8.23266C19.8909 7.50661 19.3192 6.93483 18.5931 6.74081C17.277 6.38812 12 6.38812 12 6.38812C12 6.38812 6.72305 6.38812 5.40689 6.74081C4.68098 6.93483 4.10911 7.50661 3.91505 8.23266C3.5625 9.54867 3.5625 12.2945 3.5625 12.2945C3.5625 12.2945 3.5625 15.0402 3.91505 16.3561C4.10911 17.0821 4.68098 17.6541 5.40689 17.8481C6.72305 18.2006 12 18.2006 12 18.2006C12 18.2006 17.277 18.2006 18.5931 17.8481C19.3192 17.6541 19.8909 17.0821 20.085 16.3561C20.4375 15.0402 20.4375 12.2945 20.4375 12.2945C20.4375 12.2945 20.4375 9.54867 20.085 8.23266ZM10.3124 14.8258V9.76317L14.6966 12.2945L10.3124 14.8258Z" fill="#777777"/>
</g>
<defs>
<clipPath id="clip0_54_1189">
<rect width="24" height="24" fill="white"/>
</clipPath>
</defs>
</svg>
